<svg data-name="Layer 1" xmlns="http://www.w3.org/2000/svg" viewBox="0 0 316.02 105.49">
  <title>
    logo_sm
  </title>
  <path d="M.07 82.22c-.15-.15 0-.73 0-.87a10.1 10.1 0 0 0 .73-3.62 12.36 12.36 0 0 1 .58-3.34v-1.45a6.91 6.91 0 0 1 .57-2.93l.29-2a20.57 20.57 0 0 1 .73-3.19 10.87 10.87 0 0 0 .58-2.32 13.58 13.58 0 0 1 1.57-4.64 3.35 3.35 0 0 1 .87-2.76 2.87 2.87 0 0 0 .73-2c0-.87.87-1.6 1-2.47a19.23 19.23 0 0 1 2.61-5.51c.15-.29.15-.87.29-1.31l1.31-2a14.51 14.51 0 0 0 1.45-3 10.42 10.42 0 0 1 1.74-3c.58-.87 1.31-1.6 1.89-2.32l.44-1.16 2.48-4.32.87-.87c1.74-1.45 2.9-3.48 4.21-5.22l.44-.73h.15c3-3.33 6.24-6.53 9.28-9.72l.87-.29c.15 0 .29-.15.44-.29a24 24 0 0 1 6.38-5.08 23.42 23.42 0 0 1 5.22-3c1.6-.73 3.19-1.45 4.79-2a2.51 2.51 0 0 1 1.45-.15c.87.58 1.88.15 2.75.58a1.09 1.09 0 0 0 .73.15l.58.58h1.43a3.63 3.63 0 0 0 1 .58 10.55 10.55 0 0 1 4.06 4.64 14.68 14.68 0 0 0 1.45 2.32 5.88 5.88 0 0 0 .73 2.47c.58 1.16.58 2.61 1.31 3.77v.44a16.07 16.07 0 0 0-.73 3.63c0 .15-.15.29-.15.58a41.94 41.94 0 0 1-3.92 6.38 108.23 108.23 0 0 1-8.85 9.43c-.15.15-.15.29-.29.29-1.74.72-2.76 2.32-4.06 3.48l-1.16.87-.73-.44c0-.15-.15-.29-.15-.44a.31.31 0 0 0-.29-.29.51.51 0 0 1 .15-.29 8.5 8.5 0 0 1 2.75-4.06v-1.4c1.16-.73 1.6-2.17 2.18-3.19a3.75 3.75 0 0 1 1-1.6l.44-.73 2.17-3.77.87-1.88a2.57 2.57 0 0 1 1-1.6c.87-3.19 2.32-6.09 2.46-9.28-.73-.73-1.45-1.31-2.17-2.18a6.5 6.5 0 0 0-1.74-.15 8.63 8.63 0 0 0-4.64 1.31 39.88 39.88 0 0 0-4.06 2.76 44.49 44.49 0 0 0-5.22 3.92l-2.69 2.47a17.16 17.16 0 0 0-3.19 4.06l-.44.58c-1.45.58-2.17 1.89-2.9 3a13.58 13.58 0 0 1-1.88 2.17c-.15.29-.44.44-.44.58a10 10 0 0 1-2.27 3.24c-.73 1-1.16 2-1.88 3a11.63 11.63 0 0 1-1.89 2.75 6.33 6.33 0 0 0-1.23 1.5v1.12c-.15.29-.44.44-.44.58-1.3 2.47-3 4.64-4.06 7.11a96.42 96.42 0 0 0-4.06 10c-.15.29-.15.72-.29.87-1 1.31-1.16 2.76-1.6 4.21-.15.43-.15 1-.43 1.3a9.69 9.69 0 0 0-1.12 3.67c-.29 1.31-.87 2.47-.58 3.77 0 .29-.44.58-.29.72 0 .44-.58.72-.15 1.16.15.14-.29.72-.29 1.16.15 1.3-.29 2.46-.29 3.77 0 .29-.15.58-.15.87s-.29.43-.15.58c.58.87.15 1.88.29 2.75.29 1.6.44 3.48 1.31 4.93a13.55 13.55 0 0 0 1.45 2.9 7.28 7.28 0 0 0 1.85 1.75c.29.15.58.73 1 .87a11.31 11.31 0 0 1 2 .72 3.2 3.2 0 0 0 2.32 0c1.16-.44 2.32-.58 3.33-1a9.81 9.81 0 0 0 3.19-1.74 15.39 15.39 0 0 1 1.59-1 41.47 41.47 0 0 0 5.57-4.52 14.49 14.49 0 0 1 3-2.9c1.31-1.88 3.19-3.19 4.64-4.93s2.9-3.48 4.5-5.08l.73-1c.44-1.16 1.6-1.74 2.18-2.76l1.74-2.46a19.86 19.86 0 0 1 2.32-2.61c.58 0 1.16-.15 1.45.43l-1.45 4.64c-1.31 1.16-2 2.9-2.9 4.64-1.16 2.18-2.18 4.35-3.48 6.38-.15 0 0 .14-.15.29-1.74 1.31-2.46 3.48-3.77 5.22-.58.87-1.31 1.45-1.88 2.32a60.26 60.26 0 0 1-6.53 7.11l-1.74 1.74a4.83 4.83 0 0 1-1.82 1.54l-2 1.31-1.6 1.45a3.73 3.73 0 0 1-1.74.72 8.9 8.9 0 0 0-1.74.72 2.71 2.71 0 0 1-2.32.58c-.44-.14-.73.29-1.16.29s-.87 0-1.16.14a2.83 2.83 0 0 1-2.17 0c-.15-.14-.29-.14-.58-.14a14.22 14.22 0 0 1-6.53-2.32 29.49 29.49 0 0 1-2.61-1.88c-1.45-1.31-2.32-3-3.48-4.64-.58-.72-1-1.74-1.6-2.61a16.89 16.89 0 0 1-1.45-3.77 6.91 6.91 0 0 1-.73-1.74c-.15-1.3.58-2.9.29-4.49-.02-.4.27-.98-.31-1.41zm3.77 5.37l.15.15c.15-.15.15-.15.15-.29a.51.51 0 0 1-.3.13zm.15-1h.13v-.44h-.14zm.29-4.64a.45.45 0 0 1 .29.14h-.15l.29.29.15-.15a.51.51 0 0 1-.29-.15c0-.14 0-.14-.15-.29a.14.14 0 0 0-.15.14zm0 5.51l.15-.14v-.14c-.16.11-.16.11-.16.26zm.29-10.15h.15v-.3h-.16zm0 3v.44h.29v-.58c-.15.02-.3.02-.3.16zm.29 1.31l-.15-.15c-.15 0-.15.15-.15.29a.51.51 0 0 1 .29-.12zm0 1.88a.14.14 0 0 1-.15-.14c-.15 0-.15 0-.15.14zm-.15 3h-.15v.29h.15zm.15-2.76l-.15.14.29.73a.14.14 0 0 1 .12-.07c0-.29 0-.58-.27-.73zm0-11.46h.15v-.72h-.16zm.58 17.54v-.21a1.1 1.1 0 0 1-.58.14v.14zm0-1.88L5 86.78v1.23zm0 3l.15.15c.15-.15.15-.15.15-.29a.51.51 0 0 1-.31.26zm.58.73c-.15 0-.29.15-.58.29l.15.14h.44zm-.44-12.06h.14v-.44h-.14zm0 6.53h.14v-.29h-.14zm.29-19.58h.15v-.29h-.15zm0 1h.15v-.29h-.15zm0 7.83h.15v-.28h-.15zm.87 9.43a4.9 4.9 0 0 0-.87.87l.87.29v-.97c.15 0 .15-.14.29-.29h-.15zm-.87 6.09l.15-.14v-.15c-.15.15-.15.15-.15.3zm.25-26.09c0 .14.15.14.29.29v.14c.15 0 .15 0 .29-.14h-.29v-.1c-.15 0-.15-.14-.29-.29zm0 4.5a.51.51 0 0 0 .29.14l-.29-.29zm0 10.29v.29h.15v-.29zm0 .72v.15a.58.58 0 0 0 .58-.29c-.25 0-.4 0-.58.14zm0 2.32h.29v-.14h-.29zm0 3.48v.44h.15v-.44zm0 1h.15v-.29h-.15zm.29-17.69h-.15c.15.14.29.14.29.29a.14.14 0 0 0 .15-.15c-.11.02-.11-.12-.25-.12zm-.15 20.45a1.78 1.78 0 0 0 .29.44c.15 0 .15-.14.29-.14zm.44-21.61h-.29v.15h.29zm-.29 6.24v.29h.15v-.29zm0 13.2v.29h.15v-.29zm.87 3.77v-.28c-.29 0-.58.15-.87.15v.14zm-.73 1.3H6.4v.29h.15zm.15-27.7a.87.87 0 0 1 .62-.08v-.29c-.15.1-.44.1-.58.39zm.33 14.92l-.15-.15c0 .15-.15.15-.15.29s.15-.14.3-.14zm-.29 2.9h.15a.51.51 0 0 0 .15-.29zm0 5.65c.15 0 .15 0 .29.14 0-.14-.15-.14-.15-.29s-.14.04-.14.19zm.15 1.6l.29.29.15-.14a1.13 1.13 0 0 1-.45-.12zm.15-7.4c.15-.15.29-.15.29-.29h-.15a.5.5 0 0 0-.15.33zm0 5.94v1l1-1c-.15-.14-.29-.29-.44-.29s-.28.19-.57.33zm.29 5.08h-.29v.23h.29zm-.15-31.9h.15v-.29h-.15zm.14 5.13v-.44h-.15v.44zm-.15 2.46v.29h.15v-.29zm0 4.79v.58h.15v-.58zm.15-10.75c0 .15 0 .15.15.15h.44v-.29c-.16.14-.3.14-.59.14zm.29 26.5a.31.31 0 0 0-.29.29.31.31 0 0 0 .29-.29zm0-21.9v-.29h-.15v.29zm-.15 4.21v.29h.15v-.29zm.58-3.77H7.6v.14h.44zM7.6 86.82v.19h.44v-.15zm.44 1.6a.45.45 0 0 1-.15-.29c-.15 0-.15.15-.29.29zm-.15-21.17v-.15a.51.51 0 0 1-.15.29v.14c.16-.1.16-.1.16-.25zm.3 2.76v-.29c-.15 0-.29.15-.44.15v.14zm-.44 3.77v.43h.15v-.4zm0 20.59v.29h.15v-.29zm.44 1.16v-.29a.53.53 0 0 1-.44.15v.15zm.15-35.67a.51.51 0 0 0-.29-.14c-.01.17.14.17.28.17zm0 7.11h-.15c-.15 0-.15.14-.15.29 0-.12.15-.12.29-.25zm-.29 21.46v.29l.15-.14zm.28-28.42a.5.5 0 0 1 .15.29c0-.15 0-.15.15-.15-.15-.14-.15-.14-.3-.14zm0 1.3l.29.29v.29c.14-.15.14-.15.29-.15-.15-.14-.15-.14-.29-.14v-.14l-.15-.15zm0 .58l.29.29c0 .14.14.14.14.29a.14.14 0 0 0 .15-.15c-.15 0-.15-.14-.29-.14v-.29zm0 3.33l.29.44v.35c.14 0 .14-.14.29-.14-.15 0-.15-.14-.29-.14v-.62c-.14 0-.14.14-.29.14zm.58 1.16c-.15 0-.15 0-.29-.14v-.23c-.15 0-.15 0-.29.15.15 0 .15.15.29.15v.14l.14.14c.15-.04.15-.04.15-.18zm-.29 27.29c0-.15-.15-.29-.15-.43h-.15v.43zm0-37.27h.29v-.14h-.29zm0 7.4v.14h.58v-.14zm.29 1l-.15-.15c0 .15-.14.29-.14.44zm.29-4.06h-.29v.15h.29zm-.29 31.61h.29v-.15h-.29zm.29 1l-.15-.14H8.9c.16.17.16.17.3.17zm.44.29a.51.51 0 0 0-.29-.15l-.44.44.44.44a8.18 8.18 0 0 0 1.16-.73c0-.15 0-.15-.15-.29-.14.18-.43.18-.72.32zM9.2 62.32a.14.14 0 0 1 .15.15c.15-.15.15-.15.15-.29a.51.51 0 0 1-.3.17zm0 2.76l.15.14h.44v-.11zm.44 31.18h-.15a.51.51 0 0 1-.29.14l.15.15c.14.02.14-.12.29-.27zm0-36h.15v-.25h-.15zm0 1.88l.15-.14v-.15c-.15.21-.15.21-.15.36zm0 .87v.43h.15v-.43zm.14 4v-.44h-.15v.44zm-.15 25.38a.51.51 0 0 0 .29.15c-.15-.15-.15-.15-.15-.29s-.13-.03-.13.12zm0 3.77l.29-.58c-.29.14-.29.29-.29.29v.29a.14.14 0 0 0 .15.14.14.14 0 0 0-.14-.16zm.15-3.62l.29.29.15-.14c-.1-.03-.29-.18-.44-.18zm.15-37.56h.19v-.29h-.15zm0 1.88h.19v-.29h-.15zm0 1v.15h.58a.5.5 0 0 1-.15-.29.53.53 0 0 1-.43.14zm0 3.19c0 .14.15.14.29.14l-.1-.18zm.29 36.25h-.29v.15h.29zm.29-37.7a.51.51 0 0 1-.15-.29.14.14 0 0 1-.15.15c.15.14.15.14.3.14zm0 2.17v-.43l.29-.29h-.15l-.15.14c-.15 0-.15 0-.29.15a.53.53 0 0 0 .15.43zm-.15-5.76a.45.45 0 0 1 .29-.15c-.15-.14-.29-.29-.29-.43zm.15-1.59l.29.29.44 1.3.58-.29-.73-1h-.29a.14.14 0 0 1 .15-.15.51.51 0 0 1-.29-.14zm.29 5.51c-.15-.14-.15-.14-.29-.14l.15.14zm0-3v-.29h-.15v.29zm0 40.75h.58a.66.66 0 0 0 0-.72v-.14a1.84 1.84 0 0 0-.58.77zm.15-45h.17v-.29h-.15zm.15 5.8h-.15v.29h.17zm0-3.77h.15c0-.15.15-.15.15-.29s-.17.1-.28.25zm.29 2.17h-.15v.29h.15zm0 2.46h-.15v.44h.15zm.15-7.83h.15v-.29h-.17zm0 2.32a.51.51 0 0 0 .29.14l-.29-.29zm.15 6.81h-.17v.29h.15zm-.17 36.37c0-.14.15-.14.29-.29-.15 0-.15 0-.15-.15a.53.53 0 0 0-.14.44zm.15.87h-.15v.29h.15zm.15-43.07l.15.14a.51.51 0 0 1 .15-.29c.15-.15.15-.15.29-.15a.45.45 0 0 0-.29-.14v.14zm.57 1.2h-.27v.15h.29zm0-5.94c0 .15.15.29.15.44h.15v-.58c-.15-.05-.15-.05-.3.08zm.29 2.32h-.15v.29h.15zm0 2.9h-.15v.29h.15zm0 42.2c.15 0 .15 0 .15.14a.45.45 0 0 0 .15-.29h.14a.14.14 0 0 1-.15-.14c0 .1-.14.1-.29.24zm.15-42.78h.15v-.29h-.15zm.15-1.45l.44.58a6.29 6.29 0 0 1-.15-.72.51.51 0 0 0-.3.1zm.29-1.45v-.29h-.15v.29zm-.15.58v.29h.15v-.29zm.15 4.21h-.15v.29h.15zm-.15 40.7a.14.14 0 0 0 .15-.14v-.15a.51.51 0 0 0-.15.29zm0 1.89v.14h.87l-.15-.14zm.15-1.89c.15 0 .15.15.29.29 0-.14 0-.14.15-.14a.45.45 0 0 0-.29-.15zm.15-50.61h.14v-.29h-.14zm0 1v.32c.14 0 .43-.15.58-.15v-.15zm0 1.31c0 .15.14.15.29.29v.29c.15 0 .29.15.58.29v-.58h-.58v-.15l-.16-.13zm.14 5.37a.14.14 0 0 0-.14.14h.14zm.73-.14c-.44-.44-.73-.87-.58-.15-.01.15.13.15.57.15zm.13-3.22l.15-.15-.29-.14-.16-.11h-.15l.29.29a.14.14 0 0 1 .16.11zm-.15 3.63h-.29a.87.87 0 0 0 .15.58h.15zm.15-10.44h.15v-.29h-.15zm.15 9.13h-.15v.29h.15zm.15-2.46c0-.14.15-.14.15-.29s-.15.15-.29.29zm0-4.64v.14c.15-.14.15-.14.15-.29zm.4 1.62v-.15h-.44v.31c.18 0 .32-.16.44-.16zm-.44 1.45v.29h.15v-.29zm.18 2.71h-.15v.29h.15zm0-6.52c.29-.15.44-.15.44-.29a.51.51 0 0 1-.15-.29 1.1 1.1 0 0 1-.29.62zm.15.58l.11-.06v-.15c-.12.15-.12.15-.12.25zm0 52.35h.44a1.1 1.1 0 0 1-.29-.58h-.15zm0 .58h.29v-.15h-.29zm.29-54.23c.15 0 .15-.15.29-.15l-.15-.15c0 .19-.15.19-.15.33zm0 1.74c0 .15 0 .15.15.15a.51.51 0 0 0 .15-.29c-.16.03-.16.17-.31.17zm.29-4.35a.14.14 0 0 1 .15.15c0-.15 0-.15.15-.44zm.29 4.06a.14.14 0 0 0-.15-.15c0 .15-.15.15-.15.29s.15-.1.29-.1zm0 .87h-.29c0 .15.15.29.15.44h.15zm0-5.65c0 .14 0 .29.15.29s.15-.29.29-.58c-.3.32-.45.32-.45.32zm0 4.21h.24v-.15h-.29zm.15-2.47v.44h.09v-.41zm.87-1.31l-.58-.29c.29.29.29.29.44.29h.15zm-.59 5.14h.15v-.29h-.15zm1.45-4.21c-.87-.15-.87-.15-1.31.87a6.81 6.81 0 0 1 1.31-.9zm-1 3l-.15.15v.15a.51.51 0 0 0 .14-.28zm0 1.45h-.15v.44h.15zm.44-1.74h-.15a.14.14 0 0 0-.15.15l-.15.15h.15c-.01-.13.14-.13.28-.28zm-.29 54.38v.12l.29-.29a.51.51 0 0 0-.31.19zm.29-58c0 .15 0 .29.15.29a.51.51 0 0 0 .15-.29zm.29 57.71a.14.14 0 0 0-.15-.15c0 .15-.15.15-.15.29s.14-.12.28-.12zm0-57.71c.44 0 .29-.29.29-.58v-.3l-.44-1c-.15.87-.15.87.15 1.31zm0-2.9c.15 0 .15.15.29.15a.51.51 0 0 0-.15-.29.14.14 0 0 0-.16.16zm0 4.93v.58h.29v-.58zm.29 1.31h-.29v.15h.29zm0-6.09c0 .29.15.44.15.73l.87-.44c0 .15 0 .15.15.29l.15-.15a.51.51 0 0 1-.29-.15c0-.29.15-.58-.29-.58-.18.45-.47.31-.76.31zm0 1.89v.29c.15 0 .15 0 .29-.15-.16.01-.16.01-.31-.16zm.29-2.32c.15 0 .29.15.44.15-.15-.15-.15-.29-.29-.29zm0 3v.15h.44v-.15zm.15.58l-.15.15c.15 0 .29.15.44.15zm-.15 56.41h.44v-.14h-.44zm0 .58h.44v-.14h-.44zm.29-58.87v-.4h-.15v.44zm0 4.35h-.15v.29h.15zm0 .58h-.15v.44h.15zm.15-3.77h.87v-.72zm.29 1h-.29v.29c.12-.09.12-.23.26-.23zm-.29 57.57v.15h.58c-.15-.15-.15-.15-.15-.29s-.31.2-.46.2zm.58-63.08l.15.15c0-.15.15-.15.15-.29s-.18.2-.33.2zm.26 4.95h-.15a.51.51 0 0 0-.15.29zm.29.73a.14.14 0 0 0-.15-.15c0 .15-.15.15-.15.29s-.15.15-.29.15a.14.14 0 0 0 .15.15c0-.15.15-.15.15-.29s.15-.12.29-.12zm0-6.09h-.15a.51.51 0 0 0-.15.29zm0 2.17h-.29v.19h.29zm.15.87c-.15-.15-.29-.15-.29-.29l-.15.15c.15 0 .15.15.29.15zm-.15-3.62a.14.14 0 0 1 .15.15h.44v-.29c-.11.03-.3.17-.59.17zm.29.87c0 .14.15.14.15.29s.44-.15.44-.29zm.44 2.32v-.25c0-.15.15-.29.29-.58a1.31 1.31 0 0 1-.73.15c0 .28 0 .43.44.71zm-.44.73v.15c.15 0 .15.15.29.15s-.1-.13-.29-.28zm.44-5.37c-.15 0-.15-.15-.29-.15s.14.18.29.18zm-.25 2.93v.15a.51.51 0 0 0 .29.15zm.15 4.06h-.15v.29h.15zm.15-3.77v.29c.15 0 .15-.15.15-.29zm.1 3.17h-.15v.29h.15zm0-5.95c.15.15.29.15.29.29v-.15a.14.14 0 0 0-.15-.15zm0 1a.14.14 0 0 1 .15.15h1.45l.15-.15c-.29 0-.44-.15-.73-.15s-.29-.15-.58-.29c.15.15.15.15.15.29s-.3.19-.59.19zm.6 3.81c-.29-.29-.29-.44-.29-.44h-.31zm-.15-3.19h-.15a.51.51 0 0 0-.15.29zm-.29 1.16c.15 0 .15 0 .15-.15v-.15c-.02.16-.17.16-.17.3zm.29-3.48h.29v-.15h-.29zm.29 3.77l-.29.29h.15l.15-.15zm.29-1.59h-.15v.47h.15zm0-2.9h.29v-.15h-.29zm0 1.31h1l-.43-.59c-.3.29-.44.29-.59.58zm.29 2.75v-.15l-.29.29h.15zm0-5.8l.29.58.58-.58zm.13 1.11c.15 0 .15-.15.29-.15v-.15c-.14.2-.29.2-.29.3zm.44 3.77v-.29a.53.53 0 0 1-.44.15v.15zm-.29 1.5h-.15v.29h.15zm.15-5.51h.15c0-.15 0-.15-.15-.15zm.85 2.75v-.15h-.58v.29c.29.01.44.01.58-.14zm-.29-3.77h.29v-.14h-.29zm.29 1.26l-.15-.15h-.15c.16.15.16.15.3.15zm-.29 1.89h.29v-.15h-.29zm.29-2.57a.14.14 0 0 1 .15.15c.15-.15.15-.15.15-.29a.51.51 0 0 1-.3.14zm.29 1c0-.15-.15-.15-.29-.15l.29.29zm.15-1.16l.15-.15v-.15c-.15.14-.15.14-.15.32zm.15.58c.73.29.73-.29 1-.44-.59-.3-.59.17-1.01.46zm.41-4.62h.15v-.29h-.15zm0 3.63h.58v-.15h-.58zm.6-2.75h-.44c0 .29.15.44.29.73a.14.14 0 0 1 .15-.15zm-.29 2v.15h.29v-.15zm.44 2.46h.15v-.29h-.15zm.25-4.18h.15v-.28h-.15zm0 1.6h.15v-.29h-.15zm0 1.31h.15v-.29h-.15zm.15 1.45h.44v-.15h-.44zm.44-5.51c-.15-.15-.15-.29-.29-.29s.03.16.32.28zm0 0v.15c.17-.02.32-.02.03-.16zm.29.73h-.29v.14H26zm0 .58h-.29v.15H26zm-.15.87h-.15v.29h.15zm0-2.18l.44.29a.45.45 0 0 1-.15-.29zm.15-1.45v.15a.58.58 0 0 0 .58-.29.87.87 0 0 0-.55.13zm.58 1a.51.51 0 0 1-.15-.29c0 .15 0 .15-.15.15.18.14.18.14.33.14zm0-1.16h1c-.15-.15-.15-.29-.29-.29l-.29-.29c0-.15.15-.15.15-.29s-.15.15-.29.15-.25.29-.25.72zm0 1.3a.51.51 0 0 1 .15.29l.15-.15c.02-.13-.13-.13-.27-.13zm.15 1.45v.44h.15v-.44zm.29 1.6a.87.87 0 0 1-.15-.58h-.15v.58zm-.15-5.08l.15.15a.14.14 0 0 1-.12-.14zm.15-.87v.29a.53.53 0 0 0 .43-.15v-.15zm.43 2.61h-.29c.14.15.14.29.14.58.15 0 .15 0 .15-.15zm0 .87h-.15v.29h.15zm.44-2.75c.15.15.15.15.29.15l-.15-.15zm0 2h.15a.51.51 0 0 0 .15-.29zm.29-4.21c.15 0 .15.15.29.15s-.15-.15-.15-.29a.14.14 0 0 1-.12.18zm0 2.76a6.28 6.28 0 0 1 .73-.15.14.14 0 0 0-.15-.15c-.15 0-.44-.15-.58 0s.17.33.02.33zm0 1.16h.29l-.29-.29zm.29-3.63c.15.15.15.15.29.15s-.12-.11-.27-.11zm.44 3.63h.21v-.26h-.15zm.29-1.31h.29v-.15h-.27zm.29-3.19a.45.45 0 0 1 .29.14.51.51 0 0 0-.15-.29c-.12.04-.12.04-.12.19zm.15.72h-.15v.29h.15zm.48-1.41a.53.53 0 0 0 .44.15c-.15 0-.15-.15-.29-.29-.04.14-.04.14-.15.14zm.44 2c-.15 0-.15-.15-.29-.15h-.15a.53.53 0 0 0 .4.18zm-.15-1.74c.15 0 .15.15.29.15s-.18-.12-.32-.12zm0 1.88c.15 0 .15.15.29.29v-.15c-.03-.1-.18-.1-.32-.1zm.29 1.31h-.29v.15h.29zm-.15-4.06l.15.15c.15.15.15.29.29.29h.13c-.15-.15-.29-.29-.44-.29v-.29a.14.14 0 0 0-.16.17zm.29-.15a.51.51 0 0 1 .28-.11.14.14 0 0 1-.15-.15l-.29.29zm.28 1.92v.58l1-.58zm.29-1h.15a.51.51 0 0 0 .15-.29zm.58-1.6c.14 0 .14 0 .14.15.15-.15.15-.15.15-.44-.02.14-.16.14-.31.28zm0 .58c0 .15 0 .15.14.15a2.09 2.09 0 0 1 .29-.44 1.78 1.78 0 0 0-.45.28zm.14.29v.15c.13-.16.13-.3-.01-.16zm.29-1c.15-.15.29-.15.58-.15v-.15c-.3-.01-.45-.01-.59.28zm.13 1.4c0 .15-.15.15-.15.29s.15-.12.15-.29zm.44-.15c-.15 0-.15 0-.15-.15a.45.45 0 0 0-.15.29.45.45 0 0 0 .3-.11zm-.15.87h-.15v.28h.15zm.15-1.89v.17h.58v-.15zm.29-1.74h.29v-.09h-.29zm.44 2.61h.15v-.29h-.15zm.29-2.18h.11v-.29h-.15zm.29-.87v.15h.58a.51.51 0 0 1-.15-.29.53.53 0 0 1-.44.18zm.58-1.3h.15v-.25h-.15zm.44 1.88h.15v-.23h-.15zm.44.15h.29v-.15h-.29zm.15-3h.29a1.1 1.1 0 0 1-.15-.58h-.15zm0 1.16a.51.51 0 0 0 .29.15c-.15-.15-.15-.29-.29-.29zm.15.15l.29.29a.14.14 0 0 1 .15-.15c-.18-.01-.32-.15-.47-.15zm1.16-1.6c.15-.29.73-.44.29-1-.17.41-.61.41-.32.99zm0-1.31h.15v-.29h-.15zm.15 2.9h-.15v.32h.15zm.44-.44h.29v-.14h-.29zm.29-2.47h.15v-.29h-.15zm.58.15v.15h.58v-.15zm.29-.87h.29v-.15h-.29zm.15-.43h.15v-.44h-.15zm2.75-.87a.14.14 0 0 0 .15.15.45.45 0 0 1 .1-.3c-.14 0-.14.15-.29.15zm.29-.58v.29l.44-.58a1.79 1.79 0 0 0-.48.29zm2.9-3.48a.51.51 0 0 0 .29.15l-.29-.29zm.73.72a.14.14 0 0 0 .14-.15c-.14 0-.14-.14-.29-.43h-.29l.29.29a.51.51 0 0 0 .11.29zm.14-.72a.14.14 0 0 0-.14-.15c0 .15-.15.15-.15.29s.11-.14.25-.14zm.44.72h.15v-.29h-.15zm.29-.58h.15v-.29h-.19zm.87-.73h.29v-.1h-.29zm1.31-.44c0 .15 0 .15.15.15s.15-.15.15-.29a.45.45 0 0 1-.35.15zm.58-.29l-.15-.15c0 .15-.15.15-.15.29s.11-.13.25-.13z"/>
  <path d="M79.53 85.26a3.27 3.27 0 0 0 2.18 2.61 20.85 20.85 0 0 0 6.09-6.24 10 10 0 0 1 2.32-3.18 19.7 19.7 0 0 0 3.92-5.22c.15-.43.58-.73.73-1 1-1.31 1.74-2.61 2.9-3.92a15.92 15.92 0 0 0 1.31-2h1.45c0 .29.29.58.29 1s-.58 1.16-.73 1.74c-1 2-2.18 3.92-3.33 5.94-1.45 2.47-2.61 4.93-3.92 7.25a3 3 0 0 1-.87 1.45c-.44.72-1.16 1.59-1.6 2.46s-1.46 1.72-2.15 2.74c0 .58-.58 1.16-.87 1.74s-.87.87-1.16 1.45-.73.87-1.16 1.16a1.85 1.85 0 0 0-.73 1 10.66 10.66 0 0 1-2.35 2.77 18.77 18.77 0 0 0-2.47 2.18l-.87.29c-.29.29-.58.15-.87 0-.73-.29-1.6-.43-2.61-.72-1.3-.87-2.17-2.75-3.19-4.21l-1-4.06a2.46 2.46 0 0 1-.15-1 4.93 4.93 0 0 0 0-2.9 2.82 2.82 0 0 1 .15-1.16 8.34 8.34 0 0 0 1.16-4.5 1.68 1.68 0 0 1 .29-1.45 32.88 32.88 0 0 1 .83-3.64c.73-1.6.87-3.34 1.59-4.93a12.55 12.55 0 0 1 1-2.46 12.94 12.94 0 0 0 .87-2.9l.44-1.16 1-2.32a2.51 2.51 0 0 0 .15-1.45h-1.4c-1.74 1.45-2.9 3.63-4.21 5.51-2 2.9-3.92 5.95-5.8 8.84a4.55 4.55 0 0 0-.73 1.45 21.89 21.89 0 0 1-1.45 2.46l-.73 1.45c-.29 1.45-1.31 2.61-1.89 3.77a15.82 15.82 0 0 0-.73 2.47c-.15 0-.15.14-.29.14a10 10 0 0 0-1.59 1.88c-.44.58-.44 1.45-.73 2a7.28 7.28 0 0 1-.73 1.89 54.83 54.83 0 0 1-2.47 5.07 17.28 17.28 0 0 1-1.3 2.18c-1-.87-2.32-.87-3.34-1.6-1.88-1.59-4.06-3.77-4.64-5.8a7.87 7.87 0 0 1-.29-4.5 38 38 0 0 0 .87-3.92 5.69 5.69 0 0 1 .58-2.61 9.62 9.62 0 0 1 .87-2.9v-.58a4.82 4.82 0 0 1 1-3c.87-1.59 1.16-3.48 1.88-5.22a25.1 25.1 0 0 1 1-3c.73-1.59 1.16-3.33 1.74-4.93.15-.29.15-.58.44-.72a14.13 14.13 0 0 0 1.16-3.19 18 18 0 0 1 1.45-2.9c.73-.73.73-1.89 1.31-2.76.29-.29.29-.87.44-1.45a3.57 3.57 0 0 1 .58-1.6 26.5 26.5 0 0 0 2-4.64.88.88 0 0 1 .44-.87 7.23 7.23 0 0 0 1.51-2.8 12.69 12.69 0 0 1 1.45-3.19 44.49 44.49 0 0 1 2.49-4.54.14.14 0 0 1 .15-.15c-.15-1.59.87-2.61 1.6-3.77l1.45-2a5.19 5.19 0 0 1 1.31-3 2.34 2.34 0 0 0 .55-1.08c1-1.88 2-3.77 2.9-5.65.44-.87.58-1.74 1-2.47a5.74 5.74 0 0 1 1.45-2.17c.15-.15.44-.29.44-.44 0-.87.58-1.31.87-2 .87-1.59 2-3 2.9-4.64a5.89 5.89 0 0 0 .73-1.3 5.52 5.52 0 0 1 1.3-1.89 2.46 2.46 0 0 0 .87-1.16c0-.29.44-.44.73-.58s.87-.44 1.31-.73l2.32.73.29-.29c1.45 1 3.19 1.74 4.5 3.48v1.9c-.73.87-1.45 2-2.17 3a16.45 16.45 0 0 0-2.18 3.33 16.31 16.31 0 0 0-1.74 2.61 11 11 0 0 1-1.74 2.76 25.22 25.22 0 0 1-1.6 2.61l-.73 1a20.21 20.21 0 0 1-1.3 2.46 16.17 16.17 0 0 0-1.89 3.48 7.86 7.86 0 0 1-2.17 3.19 3.82 3.82 0 0 1-1.31 3.33 3.68 3.68 0 0 0-1.31 1.89c0 .29-.44.58-.58.87a11.35 11.35 0 0 0-.73 2 40.42 40.42 0 0 1-2.16 4.44c-.58 1-.87 2.18-1.74 2.9l-.29 1a3.24 3.24 0 0 1-.87 1.89.8.8 0 0 0-.43.73 7.37 7.37 0 0 1-1.6 3.19 4.84 4.84 0 0 0-.73 1.74c-.15.72-.29 1.59-1 1.88a8.18 8.18 0 0 1-.58 1.74A26.78 26.78 0 0 1 63 62.05a13.75 13.75 0 0 0-1.45 2.46 7.58 7.58 0 0 0-.43 2.63 14.29 14.29 0 0 1-1.88 3.63 6.84 6.84 0 0 0-.58 2.47c0 .58-.44 1-.58 1.88a8.43 8.43 0 0 1-.73 3 8.91 8.91 0 0 0-.29 2.75h1.16c1.6-2.32 2.75-4.93 4.35-7.25a20.68 20.68 0 0 0 1.74-3 28.66 28.66 0 0 1 3.19-4.93 2.61 2.61 0 0 0 .87-1.3c.58-1.45 1.88-2.47 2.61-3.77l1-1.16a8.66 8.66 0 0 1 .87-1.59l1.74-2c.87-1.3 2.18-2.17 3-3.33 1.45-2 3.33-3.48 4.79-5.22 1.45 0 2-1.16 2.9-1.88h5.66l3.33 2.9v2c-1.83 2.59-3.43 5.67-5.15 8.38-.73 1.16-1.16 2.61-1.74 3.77a6.27 6.27 0 0 1-.73 1.74c-.29.43-.58.58-.44 1.16a.53.53 0 0 1-.15.44c-1.31 1.74-1.74 3.92-2.47 5.95l-.43 1A8.66 8.66 0 0 0 82 75.1a5.12 5.12 0 0 0-.58 2.47 4.24 4.24 0 0 1-.29 1.3c-.15.58-.58 1-.73 1.59a35 35 0 0 1-.44 3.63zM49.37 88.6h-.15v.29h.15zm.44-1a.51.51 0 0 1-.15-.29.14.14 0 0 1-.15.14v.87h.87c-.15-.29-.44-.43-.58-.58zm.58-3.19v-.14h-.58v.14zm-.44 1.45h-.15c.15.15.15.15.29.15zm.87 4.06h-.43v-.31h-.27v-.15l-.15-.15h-.15l.29.29a.31.31 0 0 1 .29.29 2.28 2.28 0 0 1-.15.58.45.45 0 0 1 .15-.29c.15-.15.29-.29.43-.29a.14.14 0 0 1 .15-.14.14.14 0 0 0-.15-.14v-.44l-.43.44h.43zm-.43-4.49h.15c-.15 0-.15-.15-.29-.29 0 .15 0 .15-.15.15a.45.45 0 0 0 .29.15v.57a.53.53 0 0 0 .43-.15zm-.15.87c.15 0 .15-.14.15-.29a.51.51 0 0 1-.29.14zm0 4.21c0 .15-.15.29-.15.44.29-.14.29-.29.29-.29zm0-8.12h.15v-.44h-.15zm.58 6.52c-.15-.15.15-.58-.43-.58.14.12-.15.56.43.56zm3-4.79h.44l-.44.43-.87-.43v.15a.14.14 0 0 0-.15.14h-.15l.29-.29c-.29-.58-.58-.15-1-.15v.58l1 .58c-.15 0-.15.15-.29.15.15 0 .15.15.29.15l-.44.87c-.15.15-.29 0-.58 0l.44-.43a1.3 1.3 0 0 1-.73-.15v1c.15 0 .15.14.29.14-.15.15-.15.15-.29.15v-.3h-.29a4.08 4.08 0 0 0-.15-1.16l-.37 1.16h.58v.3h.29v.58a.87.87 0 0 1-.58.15v.14a.87.87 0 0 0 .58-.14h.58a.75.75 0 0 1-.29.58h1l.44.87c.15 0 .15-.14.29-.29a.75.75 0 0 0 .58.29v.58c.29 0 .73.44.87-.14-.29-.15-.58.14-.58-.44h-.29v-1.18c-.29 0-.73-.29-.73.29.15 0 .29 0 .29.15v.14l-.29-.29h-.58v-.29c-.58-.14-.15-.72-.29-1 .15.15.58-.15.58.29l1-.29v.29l.29-.29h-.29c0-.29-.29-.58.29-.58v.58l.56-.3v1a1.44 1.44 0 0 1 .72-.58l-.72-.42v-.58l-.58.29c0-.43-.44-.29-.73-.43.29 0 .44-.29.73-.44V84.1c.58-.15.44-.72.44-1.16-.15 0-.29.14-.44.29a.76.76 0 0 0-.29-.58h-.53c-.15-.29-.15-.58-.29-.72-.44.14.15.87-.44 1l.87.87zm-3-.29h.15v-.29h-.15zm0 5.08v.29h.44l.29 1.16.29-.87c.15.29.29.43.29.73a1.1 1.1 0 0 1 .58-.29c0-.43-.15-.72-.73-.87l-.15.14a.14.14 0 0 1-.15-.14.51.51 0 0 0 .29-.15v-.6a.87.87 0 0 0-.58.15zm1.45-7l-.58-.29-.73.58a1.83 1.83 0 0 1 .87.15c.15 0 .29.14.44.14zm-.58 2.61c0-.14 0-.29-.15-.29a1.78 1.78 0 0 0-.29.43v-.15c-.15.15-.15.29 0 .15l-.29.58c.29-.29.44-.29.44-.29a.5.5 0 0 1-.15-.29l.15-.15.29.87h.58l-.29-.87zm.29 6.53l-.29-.29-.73.58c.44 0 .87.43 1-.29l.87-.43c-.58 0-1-.43-1.16.15zm-.58-11v-.15h-.28v.11zm-.15 7.25c0-.14.15-.14.15-.29a.51.51 0 0 0-.29.15c.01.13.01.13.14.13zm.44-6.82h-.29a1.1 1.1 0 0 0 .15.58.14.14 0 0 1 .15-.15zm-.29 1c.15 0 .15.15.29.15s-.15-.15-.15-.29zm.15 2.18h-.15a.14.14 0 0 0 .15.14zm.44 0v-.72c-.29 0-.44 0-.44.43zm-.15-4.21a.14.14 0 0 0-.15.14c.15 0 .29.14.44.14zm.44.58v-.15a.51.51 0 0 0-.29-.15c.13.17.13.28.28.28zm0 .72v.14h.44v-.14zm0 1.16h.15l.15-.14v-.15zm.29 1.3h-.15v.29h.15zm.13 3.8a.51.51 0 0 1-.29-.15v-.15zm0-4.21c.15 0 .15.15.29.15a.45.45 0 0 1-.15-.29c-.14-.01-.14-.01-.14.14zm0 9h.15v-.43h-.15zm.29-6.38v-.29h.29v.29h.29c0 .29-.15.58.29.58a3.14 3.14 0 0 1-1 .87l.44-1.45zm0 2.61c.44-.14.29-.43.29-.72-.43-.02-.29.42-.29.7zm0-9.71v.14h.29v-.14zm.44 2.32l-.44.72h.58v-.58c.15-.14.29-.14.29-.29a.51.51 0 0 0-.29.15zm-.15 9.57h-.29a.45.45 0 0 0 .15.29.5.5 0 0 1 .14-.31zm0-5.66v.58c.15.15.15.29.29.29h.55l-.29-.87zm.15 4.93a1.31 1.31 0 0 0-.15.73c.44 0 .58.58 1 .58-.16-.6-.56-.89-.85-1.32zm-.15 1.89h.29a1.09 1.09 0 0 0-.15-.58l-.15.14zm1.84-8.72a4.53 4.53 0 0 1 .43-2 1.8 1.8 0 0 0-.43.29v.44l-1-.44.44.58-.73.29c0 .14.15.29.29.43l.29-.29c0 .14 0 .14.15.14-.15.15-.29.15-.29.29v.29zm-1.26 1.16c.15 0 .15-.14.29-.29 0 .15 0 .29.15.29zm.44.29v-.29a.31.31 0 0 0 .29.29zm0 3.92h.29a.5.5 0 0 0-.15-.29.5.5 0 0 0-.14.28zm.73-8.7a.14.14 0 0 1-.15.15v-.15l-.29.29a.14.14 0 0 0 .15.14c0-.14.15-.14.15-.29a.14.14 0 0 0 .13-.14zm-.44.87v.14h.53v-.14zm.58 9v.44c.15-.15.15-.15.29-.15l-.34-1.17c-.15-.15-.15-.29-.29-.29h-.29c0 .29.15.44.15.87a.51.51 0 0 0-.15.29zm-.58 1.6h.15v-.29h-.15zm.53-5.09v-.14h-.29v.14zm0 2c-.15 0-.15.14-.29.29h.29zm.29-8.85h-.14a.5.5 0 0 0-.15.29zm-.29 2.35c.15-.15.15 0 .15.14a.14.14 0 0 1-.15-.14zm.72 2.9c-.15 0-.15-.15-.29-.15h-.15a.45.45 0 0 0 .29.15l-.58.73c.58.58.87.29 1.3-.15-.15-.15-.29-.29 0-1.3-.15.29-.29.29-.29.29v.43a.53.53 0 0 0-.44.15c.07-.15.07-.15.21-.15zm-.72 4.21c.15 0 .15-.15.29-.15-.14 0-.14-.14-.29-.14zm.29-5.94c.15.29.29.43 0 1.3.29-.15.29-.29.29-.29a.45.45 0 0 0-.15-.29l.15-.14c.29 0 .44-.15.73-.15-.15 0-.29-.29-.29-.43zm0 3.19c.15.14.29.14.29 0a.14.14 0 0 1-.15-.14c.05.13.05.13-.09.13zm.44.14c-.15 0-.15 0-.15-.14v.14zm.44 1l.44-.58a2.07 2.07 0 0 0-.87-.29zm.15-4.64c-.15 0-.15 0-.15-.14a.53.53 0 0 0-.15.44c.04-.14.19-.14.33-.29zm-.29 6.24h.15v-.29h-.15zm.58-3.48a.51.51 0 0 0 .29-.15.53.53 0 0 0-.15-.43h-.15zm.15.87h.15v-.28h-.15zm17.84 3.19h-.29v1h.29zm.44 1.31v.14a.51.51 0 0 0 .29.14zm.15.58l-.15.14v.14c.15 0 .15-.14.29-.29zm.15-1.89v1a3.06 3.06 0 0 1 .87-.58zm0 1.89l.29-.29h-.29zm.58-.29l.29.58c-.15.15-.15.15-.29.15.15.15.15.15.29.15l.29.29v-.29c.58.14 1.16 0 1.6.43v-.87l-2.18-.72c-.15.14-.29.14-.29.29zm.58-.58a.58.58 0 0 0-.58.29.87.87 0 0 0 .58-.15zm0 1.45h-.29v-.29zm-.29 2v.14h.29v-.14zm.58-1.45a.51.51 0 0 0-.29-.15c.15.15.15.15.15.29zm0-3h-.15v.29h.15zm1.74 3.77a1.1 1.1 0 0 1-.15-.58h-1.58zm-1.74.14v.14h.44v-.14zm.44-3.19v-.15c-.15.15-.29.15-.29.29s.15-.14.29-.14a.53.53 0 0 0 .44-.15.51.51 0 0 1-.15-.29c-.14.14-.29.29-.29.43zm-.29 4.06h.15v-.29h-.15zm.44-3.48h-.15v.29h.15zm0 3.77h-.15v.29h.15zm.73-7.54h-.29v.58h.29zm0 1.45v-.14h-.29v.14zm-.11 1.88h.15c-.15-.14-.15-.14-.29-.14zm.87 1h.87l-.58-.58c-.15-.15-.44-.15-.73-.44v1.3c.15.15.15.29.44.29zm-.15 2.17c0 .15-.15.15-.29.29h.15c.15 0 .15-.15.29-.15zm-.15-34.66h.15v-.26h-.15zm.15 33.21a.87.87 0 0 1 .15.58h.29a.75.75 0 0 0-.29-.58zm.15-34.37c0 .15 0 .15.15.15l-.19-.25zm.44-.73h-.15v.29h.15zm-.19 1.63c.15 0 .44-.14.58-.14-.15-.29-.29-.44-.58-.44zm.15 31.9c-.15.15-.15.15-.15.29a.51.51 0 0 1 .29-.15zm.15 2.61c-.15 0-.15 0-.15-.15-.15.15-.15.15-.15.29a.51.51 0 0 1 .29-.15zm.29-.73a.45.45 0 0 0-.29.15c.15 0 .29 0 .29.14s.15.14.15.29a.14.14 0 0 0 .15-.15c-.15 0-.15-.14-.29-.14zm.44-31.32c.15 0 .15 0 .29-.14-.44-.32-.6-.15-.31.14zm-.15-42.78a.14.14 0 0 1 .15.15c.15-.15.15-.15.15-.29a.51.51 0 0 1-.3.14zm.44 40l.29-.43c-.29 0-.44.14-.73.14 0 .29 0 .29.29.44zm-.44 3.79v.14h1v-.14zm0 30c.15-.14.29-.14.29-.29s-.15.15-.29.15zm.29 1.3h-.29c0 .14.15.29.15.44h.15zm0-38.28h-.15v.29h.15zm0-40v.15h.44v-.15zm1.31 40.89l-.29.43a2.51 2.51 0 0 0-.87-.87c0 .29-.15.44-.15.87h1c0 .44.44.15.58.29v.29c.15-.14.15-.14.29-.14-.15 0-.15-.14-.29-.14v-.72h-.29a.14.14 0 0 0-.15-.15.14.14 0 0 1-.15.15zm-.87 3.48c-.15-.15-.15-.43-.44-.73a6.27 6.27 0 0 0 .15.73zm-.29-43.21c.29 0 .44 0 .58-.15-.29-.15-.44-.29-.58-.29zm.15 1.74v-.15c-.15.15-.15.15-.15.29zM81 60.47c-.29 0-.29.14-.44.14a1.11 1.11 0 0 0 .73.29c-.31-.29-.31-.43-.31-.43zm.73-6.23c-.15-.44-.29-.87-1-.58zm-.87 8.41h.15v-.58h-.15zm.44-4.06l-.29.29a3.62 3.62 0 0 0 .58 1c.15-.14.15-.29.15-.58zm.15-44.52c-.15 0-.15 0-.29.15.15 0 .15.15.29.15zm-.33 42.63h.15v-.29h-.15zm0 .43v.15h.29v-.15zm.44-43.36c0 .15-.15.15-.15.29s.15-.15.29-.15zm-.15.58a.51.51 0 0 0 .15.29h.15zm.87 46.84h-.29v-.43c0 .15-.15.29-.29.43v-.18l-.29.29h.15l.15-.15H82a.14.14 0 0 1 .15.15zm.44-6.67v-.29h-1l.29.58v.58a5.12 5.12 0 0 1 1.3.58.72.72 0 0 1-.14.43l-.45-.39v1c.44.15.72-.14 1-.58l-.44-1.59zm-.87 2.18c.15-.15.15-.15.15-.29a.51.51 0 0 1-.29.15.14.14 0 0 1 .14.14zm0-43.21H82v-.29h-.15zM82 57.01h-.15v.73H82zm.12 1.86l.44.87c0-.44 0-.58.15-.72s.15-.44.15-.58a.53.53 0 0 1-.14-.43c-.29.29-.73.44-.73.87zm.15 1.74c-.15 0-.15.15-.29.15h.29zm-.29 2.18v.14h.29v-.14zm.14-48.15h.15v-.58h-.15zm.15 38.57c.15.14.15.14.15.29l.29-.29h-.29l-.3-.28v.15zm-.15 7h.15v-.29h-.15zm.15 1h.29l-.29-.43zm.29-45.82h-.15v.29h.15zm-.15 39.3v.15l.29-.29a.51.51 0 0 0-.27.12zm.29 2.61v.71c0-.14.15-.14.29-.29-.15-.15-.29-.29-.29-.43v-.28a.45.45 0 0 1-.29.15c.02.12.17.12.31.12zm0-4.06c.15 0 .58.14.58-.29-.27-.02-.56-.17-.56.27zm.29 8.12a.45.45 0 0 0-.29-.15.14.14 0 0 0 .15.15zm-.29.58a.51.51 0 0 0 .29.15c0-.15-.15-.15-.29-.29zm0 .87v.14h.29v-.14zm.31-10.8v.15h.29v-.15zm0 1.88l.29-.29h-.18l-.15.14zm0 8.12c0 .14 0 .14.15.29 0-.14.14-.14.14-.29zm.43-48l-.15.15c.15 0 .15.15.29.15s-.14-.1-.14-.25zm0 38.57c0 .15-.15.15-.15.29s.15-.15.29-.15a.14.14 0 0 0-.14-.08zm.87.58v.58h-.29c-.29-.29-.73.58-.73 1a3.68 3.68 0 0 0 1-.29v.44a1 1 0 0 0-.29 1.16c.44 0 .73-.15 1.16-.15v-.15c-.29 0-.58-.14-.87-.14v-.58l.73.44a2.24 2.24 0 0 1-.44-.87c0-.29-.29-.73.29-.87a.75.75 0 0 1-.29-.58h-.29v-.29c-.15.15-.29.15-.29.29zm-.29 3.85l-.73.44a6.5 6.5 0 0 0 1.31.87 3.68 3.68 0 0 1 .29-1l.87-.87H84.6c.15.44.15.73.29.87a.75.75 0 0 1-.58-.29c-.15.15-.15.29-.29.29zm-.44 4.93l-.15-.15c0 .15-.15.15-.15.29s.16-.16.31-.16zm.44-52.64v-.14h-.44v.14zm-.15 2h-.29c0 .15.15.44.15.58l.15-.15zm-.29 1.6v.11h.73v-.15zm0 1.59c.15.15.15.15.29.15s-.14-.14-.28-.14zm.29 46h-.15v.29h.15zm.15-50.17v.29a1.1 1.1 0 0 0 .58-.15l-.15-.15zm.29 1.89h-.19l-.15.15v.15zm-.19 39.41h-.1v.29h.1zm.19 5.39c-.15 0-.15-.14-.15-.29a.45.45 0 0 0-.15.29zm0-47.71h.15v-.29h-.15zm0 2c0 .15.15.15.29.29a.51.51 0 0 0-.15-.29zm.87 40.89l.29.29h-.15l-.15-.15c-.29 0-.58-.29-.58.29l.29.29h-.29v-.29a.31.31 0 0 0-.29.29h.29v.29c0-.14.15-.14.29-.29h.87a2.6 2.6 0 0 1 1 .73c.44.29.44.29.87 0a1.83 1.83 0 0 1-.87-.15l.44-1-1.45.44c.15-.29.29-.44.29-.73a3 3 0 0 1-.87-.58zm-.73 9.28h-.15v.29h.15zm.73-54.09v-.29c-.29 0-.44.15-.58.15v.15zm-.58 4.21v.29a.51.51 0 0 1 .29-.15.51.51 0 0 1-.29-.13zm0 48v.14h.29v-.14zm.15 1.16h-.15v.43h.15zm.44-6.82l.29-.29h-.15l-.15.14h-.29c.29.44.29.58.44.58a.14.14 0 0 1-.15-.14zm-.15 4.35a.14.14 0 0 0-.15.15c.15 0 .29.14.44.14zm.73-2.9a2.07 2.07 0 0 0 .29-.87h-.58l-.29.87h.58v.43a.45.45 0 0 1 .29-.14c0-.13-.15-.13-.29-.28zm-.15-4.93c0 .15.15.15.29.15-.14.01-.14-.14-.29-.14zm.15 5.36h-.15c0 .15.15.15.15.29zm.29-4.93c0-.14-.15-.14-.29-.14.15 0 .15.14.29.29zm-.29 2.76v.14h.44v-.14zm0 2.75a.51.51 0 0 0 .29-.14.51.51 0 0 0-.29-.14zm1-49.3c0-.15 0-.15-.15-.29s-.29.15-.44.15v.15zm-.29 45h-.15a.51.51 0 0 0-.15.29zm-.15 2.18a.5.5 0 0 0-.15.29c.15 0 .15-.14.29-.29zm.29-45.53a.14.14 0 0 0-.15.15c.15 0 .15.15.29.15s-.12-.2-.12-.34zm.29 43.65a.51.51 0 0 1 .29-.15c-.15 0-.29-.15-.58-.29.31.25.31.39.31.39zm-.13-43.38a.5.5 0 0 0 .15.29h.19zm0 42.2a.14.14 0 0 1 .15.15c0-.15.15-.15.15-.29s-.15.11-.3.11zm.34 3.31h-.29c0 .29.15.44.15.58h.14zm.29-3.62c0-.14 0-.14-.15-.14a.5.5 0 0 0-.14.25.51.51 0 0 0 .24-.12zm0 5.08v-.15h-.29v.18zm.29-3.33a.45.45 0 0 0 .14.29h-.14l.72.29v-.58h-.72l-.44-.44a.14.14 0 0 0 .15.15.31.31 0 0 1 .24.28zm-.15.44v.14c.15-.14.15-.14.15-.29zm.15 1.45h.14c-.14-.14-.14-.29-.29-.29a.5.5 0 0 0 .15.29c0 .15 0 .15.14.29a.14.14 0 0 0 .15-.15.51.51 0 0 0-.34-.16zm-.15.44v.14c.15-.14.15-.14.15-.29zm.72-3.63h-.15v.29h.15zm.15.87v-.21h-.3v.15zm-.3 1.58h.15v-.29h-.15z"/>
  <path d="M99.25 62.5a7.51 7.51 0 0 0 1.87-3.49 18 18 0 0 1 1.45-3.92c.58-1.45 1.31-2.75 1.74-4.21a12.29 12.29 0 0 1 1.31-2.17c-.44-1.6 1.3-2.46 1.88-3.77h2.62c1.59 1.59 3.63 2.46 4.35 4.93a24.17 24.17 0 0 1-1.16 2.9 11.82 11.82 0 0 0-1.31 3.62c0 .15-.29.44-.44.73l-.87 2a20.07 20.07 0 0 0-2 3.92 16.41 16.41 0 0 0-1.89 4.64 2.11 2.11 0 0 1-.73 1.74 2.77 2.77 0 0 0-1 2 36.87 36.87 0 0 1-2.34 5.59 4.13 4.13 0 0 0-.29 2.32l.87.43a.45.45 0 0 1 .29-.14 4 4 0 0 0 1.45-2.32c.29-1.45 1.3-2.61 2-3.91l.44-1a8.23 8.23 0 0 1 1.16-1.88 45.5 45.5 0 0 1 2.9-4.35 15.7 15.7 0 0 0 1.16-2.75c1.45-1.16 2.32-3 3.48-4.64a31.84 31.84 0 0 0 2-2.61l1.31-1.6v-.58l1.74-1.74 3-3.19a1.27 1.27 0 0 0 .87-1c.15-.29.58-.58.87-.87 1.31-.73 2.9-1.16 4.06-2.17.15-.15.44 0 .58 0a.31.31 0 0 0 .29-.29c1.45.58 2.9.58 4.35 1.16s2 2.17 2.9 3.48a18 18 0 0 1-1.21 1.65 10.39 10.39 0 0 0-1.6 2.18c-.15.14-.29.44-.44.44a26.55 26.55 0 0 0-2.46 3.19c-1 1.3-1.74 2.9-2.61 4.21-1 1.6-1.88 3.34-3 4.93l-.72 1.32-.87 1.89a10.34 10.34 0 0 0-1.16 2.17 1.28 1.28 0 0 0-.15 1c.58 1 .29 2 .29 3-.15.29-.44.44-.87.72-.15-.14-.58-.14-.87-.29a5.13 5.13 0 0 1-1.37-3.99c0-.44.15-1-.29-1.45-.29-.15 0-.73 0-1a9.47 9.47 0 0 0 .87-3.48 7.74 7.74 0 0 1 1-2.9c.44-.58.15-1.3.44-2a10.43 10.43 0 0 0 .58-3.19h-1.31l-1.31 2c-.44.43-.73 1-1.31 1.3a2.56 2.56 0 0 0-1.16 1.3 21 21 0 0 1-2.47 3.77c-.15.15-.44.29-.44.58-.58 1.59-1.88 2.75-2.75 4.21s-1.6 3-2.32 4.5-1.45 2.46-2.17 3.77a45.58 45.58 0 0 0-2.18 4.64c-.72 1.88-1.74 3.63-2.61 5.51-.44.87-1.16 1.74-1 2.9 0 .29-.29.44-.44.72a35.3 35.3 0 0 0-1.45 3.48 5 5 0 0 1-2 2.76c-.44 0-.73-.15-1.16-.15a2.55 2.55 0 0 1-1.88-.87c-1-1.16-2.18-2.17-3.34-3.33l-1-1.45a27.81 27.81 0 0 0-.58-3 2.83 2.83 0 0 1-.15-1.16l.43-1.66c0-.43-.29-1 .29-1.45v-.44a5.69 5.69 0 0 1 .58-2.61 17 17 0 0 0 1-2.9 11.76 11.76 0 0 1 1.33-4.17 9.72 9.72 0 0 0 .87-2.17 9.42 9.42 0 0 1 1.3-3.33 6.05 6.05 0 0 0 .87-3.34c.87-1.63 2.03-2.93 1.89-4.67zm-4.5 25.81c.29.29.44.43.58.43.15-.43.15-.43-.58-.43zm.44-1.59c-.15 0-.29 0-.29.14l.15.15c-.01-.15-.01-.15.14-.3zm-.29 3.29h.29v-.15h-.29zm.29-3.77v.15a.53.53 0 0 0 .15-.43c-.01.17-.15.17-.15.32zm0 .29a.14.14 0 0 1 .15.14c-.01-.25-.01-.25-.15-.1zm.58 3.19l-.29.29h.15a.51.51 0 0 0 .14-.25zm.15 0h.58v.44h.87c0 .29.15.58.15.87l.87-1.3h-.73v-1.42h.29a.31.31 0 0 1 .29.29c.15-.14.29-.29.44-.29h-.73l.44-.72h-1a4.48 4.48 0 0 1-.29-1.16 2.54 2.54 0 0 1-.87.15c-.15-.15-.15-.15-.29-.15s.15.15.15.29a5.41 5.41 0 0 1-.29 1c.29-.15.29-.29.29-.29v-.42a.77.77 0 0 1 1 .58 1 1 0 0 0-.58.72l1 1.16h-.73l-.29.29v-.29c-.29.14-.58 0-.58.29zm.15-8.85h.43v-.14h-.43zm.58 4.5a1.13 1.13 0 0 0-.58.58h1zm-.43 1.16a.14.14 0 0 0-.15.14h.15zm.15 1.88l-.29.58c.29-.29.43-.29.43-.29a.45.45 0 0 1-.16-.25zm-.29 3.48h.72v-.15h-.72zm.43-7.54a.87.87 0 0 1-.14-.58h-.15v.58zm-.29.72h.9c.15 0 .15.15.29.29-.15-.15-.15-.29-.29-.29v-.72c-.34.19-.48.48-.92.77zm.29 5.08l-.14-.15c0 .15-.15.15-.15.29v.14c.13-.09.13-.24.27-.24zm-.14-1.74v-.1c-.17.14-.17.14-.02.14zm.14-5.95h.44l-.44-.44zm.15.72v-.29h-.15v.29zm.15 6.24c-.15 0-.15-.15-.15-.29a.51.51 0 0 1-.15.29zm0-8.84v.29h.15v-.29zm0 1c.29 0 .44-.15.58-.15v-.14h-.58zm.58 2.75a.14.14 0 0 0-.15-.14.14.14 0 0 1-.15.14zm-.27 3.25h.29l.15.43-.15-.14c-.19 0-.19-.14-.29-.29zm.29-7.54v-.58h-.15v.55zm.29 2.46c0 .14-.15.14-.29.29.15.15.29.29.29.43zm-.29 1.3h1v-.58h-.73c-.03.16-.17.3-.32.59zm1.6 4.06h.29a.18.18 0 1 0 .29 0h-.29v-.29h-.29c0-.29-.15-.58.44-.58l.15-.29c-.15-.14-.29-.29-.44-.29s-.15.15-.29.29l-.29-.58a2.16 2.16 0 0 0 1-.14v.72c.44 0 .29-.44.44-.58s.15-.44.15-.72c-.44-.15-1 .72-1.45.14l.58-.29-.58-.43.58-.44.44.58c.15.14.44.14.44-.14-.29-.15-.15-.44-.15-.58l-.44-.44v-.29h-.58c0 .43.44.29.58.29 0 .29.15.58-.29.58 0-.44-.29-.14-.58-.29l-.73 1c0 .44-.29.29-.58.29 0 .14.15.43.15.58.15-.15.29-.15.29-.29a5.17 5.17 0 0 1 .58 1.31c-.29 0-.44 0-.58.15v.14h.58v.29h.58zm-.89-6.51l.29.87c-.29.15-.58-.15-.73.29.29 0 .73.14.73-.29h.58l-.29.73c.29-.15.58.14.58-.44 0-.14.29-.14.29-.29s-.15-.15-.15-.29l-.44-.29c-.15-.15-.15-.29-.29-.29zm-.29-2.61v.27h.15v-.29zm.44 1v-.29h-.15v.29zm0 12.91v-.29h-.15v.29zm.58-12.18l-.44-.58v.73a.53.53 0 0 0 .4-.14zm-.44 2.75h.29c.15 0 .15.15.29.29-.15-.14-.15-.29-.29-.29v-.29a.31.31 0 0 0-.32.3zm0 3.77l.15.15a.14.14 0 0 1-.15.14zm0 2.75a1.1 1.1 0 0 0 .58.29v-.87c-.29 0-.44 0-.58.14zm0 1.88v.44h.15v-.44zm1.13-12.61c-.29 0-.58.14-.87.14v.15h.87zm-.58 2.18v.43c.15 0 .15-.15.29-.15-.15 0-.15-.14-.29-.29a.14.14 0 0 0-.15-.15.51.51 0 0 0-.15.29c.15-.12.15-.12.3-.12zm.58-1.16l-.58-.58v.87zm-.42 8.57a.14.14 0 0 0-.15.14c.15 0 .15.15.29.15a.5.5 0 0 0-.14-.29zm-.15 1.6a.5.5 0 0 1 .15.29l.15-.14c-.15-.16-.15-.16-.31-.16zm.58-2.61v.29h.57v-.29h-.58v-.29c-.15.14-.15.29-.29.29zm0-6.67v-.29h-.15v.29zm.44-.87h-.44c.15 0 .15.14.15.29.13-.15.13-.33.27-.33zm0 2.9c-.15-.29.15-.73-.44-.73.13.29-.16.58.42.72zm-.44 6.23l.29.29v-.15a.51.51 0 0 0-.3-.14zm1-9.13c-.15-.15-.15-.29-.29-.29s-.15.15-.29.29zm-.29.87h-.14c0 .15-.15.15-.15.29h.15a.45.45 0 0 1 .14-.3zm.58 2c.15 0 .43.14.58.14v-.55l-.58-.29c-.44 0-.29-.29-.29-.58h-.58l.44.87h.44zm0 0h-.87v.29c.29-.12.73.31.87-.27zm-.87 4.09v.29h.15v-.29zm.58-6.09l-.15-.14-.15.14zm-.29 2.61v.29h.15v-.29zm0 1.31c0-.15.15-.15.29-.29h-.15c-.14-.01-.14.13-.14.28zm0 3.91h.86v-.14h-.87zm0 .73h.29v-.15h-.29zm1.16-9.14a1.54 1.54 0 0 0 .44-.72l-1.3.44c.15.58.58.14.87.29l.29.29c.15 0 .29-.15.44-.29zm-.87 1.31l.29-.29-.29-.44zm1.16 3.63a2.45 2.45 0 0 0-.29.73h-.43c0-.29.15-.58.15-1l-.58.58v.72h1.16zm-.87-3c.15 0 .15-.15.29-.15a.14.14 0 0 0-.15-.14c.01.08-.14.08-.14.23zm.15 4.79v.29h.13v-.35zm.58-3.19l-.29-.29v.15a.51.51 0 0 0 .29.07zm.15.29v-.15a.51.51 0 0 0-.29-.14zm.15-1.59v.44h.15v-.51zm.58-2.32a.14.14 0 0 0-.15-.14c0 .14-.15.14-.15.29s.14-.22.29-.22zm0 1.16h-.33v.14h.29zm22.48-24.65v.24h.15v-.29zm.44-2.61h.44v-.29h-.58c-.03.07-.03.22.12.22zm.73 1.59c-.15 0-.29.14-.58.14v.12c.26 0 .41 0 .6-.33zm0-.87v-.44h-.15v.44zm0 .87h.15l.15-.14v-.14c-.18-.08-.18.07-.28.21zm1.6-2.17l-.44-.29c-.15 0-.15.14-.29.29-.15-.15-.29-.29-.44-.29V53h-.29c0 .15.15.15.29.29a.61.61 0 0 0 .44.87zm-1.45 2.9v.29h.15v-.29zm2.18-3.48h-.31v-.73h-.44a1.71 1.71 0 0 1-.73.73h1.17v.29h.29zm-1-1c0-.15-.15-.15-.15-.29l-.15.15c.1-.1.1.05.25.05zm0 3.19c0-.14-.15-.14-.15-.29a.14.14 0 0 0-.15.14c.1-.08.1.06.25.06zm.44-.72c-.15 0-.15-.14-.29-.14h-.15a.45.45 0 0 0 .29.14v.14zm-.44.72l.44.58c.15-.43.58-.87-.15-1.16-.05.2-.05.49-.34.49zm.15-4.49v.31h.15v-.4zm0 6.38c.15 0 .29-.14.44-.14v-.14h-.44zm.58-5.51v.15l.58-.58h-.15c-.15 0-.15.15-.15.29s-.32-.1-.32.04zm.58.73v-.39c-.29 0-.58-.15-.58.29h.58v.29h.29l-.29.44v-.44c-.15.15-.29.29-.29.44h.29v.29h.87l-.58-.73v-.29zm-.29 1.89h.29v-.87h-.29zm.29 2h-.29v.14h.29zm.29-4.5l-.29.29h.29zm0 0h.58l-.58-.87zm.29.58c-.15-.15-.15-.29-.29-.29v.29zm.29-.58c.29.58.87.44 1.31.73 0-.58-.15-.87-.58-1-.22.34-.5.2-.79.2zm.15 1.31a.53.53 0 0 1 .44-.15v-.15h-.44zm.58-1.6a.45.45 0 0 1-.22-.39h-.15a.31.31 0 0 0 .31.32zm.29 3h.29v-.14h-.29zm26.04 13.75a6.28 6.28 0 0 0-.73 1.74 2.1 2.1 0 0 0 .29.43 12.36 12.36 0 0 0-2.61 4.69 12.72 12.72 0 0 1-1.74 3 15.73 15.73 0 0 0-2.17 4.06 3.31 3.31 0 0 1-1 1.45 5.56 5.56 0 0 1-1.31 1.31 5.9 5.9 0 0 1-1.16 2.75c-1.45 1.16-2.17 2.9-3.33 4.35-.29.29-.29.58-.58.72-1 1.16-1.88 2.32-2.75 3.48a11.32 11.32 0 0 1-4.35 3 8.36 8.36 0 0 1-2.76.14 10.1 10.1 0 0 1-4.08-5.26 7.79 7.79 0 0 1-.73-1.59 21.63 21.63 0 0 1-.29-3 10.33 10.33 0 0 1 .58-3 1.71 1.71 0 0 0-.15-1.45 2 2 0 0 1 0-1.31c.44-1.45.58-3 .87-4.35a9.44 9.44 0 0 0 1.16-2.46 13.75 13.75 0 0 0 .73-3.33 11 11 0 0 1 1.16-3.48 11.73 11.73 0 0 0 1-3.19 11 11 0 0 1 1.31-2.61l.87-1.59a4.42 4.42 0 0 1 .44-2.32c1.3-2.9 2.61-5.8 4.06-8.56a44.58 44.58 0 0 1 2.46-4.5 6.32 6.32 0 0 1 2-1.88c.29 0 .44-.29.58-.58h1.68a8.8 8.8 0 0 0 1.45 1 13.26 13.26 0 0 1 2.47 1.3 2.21 2.21 0 0 1 1 1.74 3.41 3.41 0 0 1 .29 1.16 9.11 9.11 0 0 1-1.74 2.61 10.82 10.82 0 0 0-1.31 2.18 15.12 15.12 0 0 1-1.45 2.61 6 6 0 0 0-1.33 2.6 5.13 5.13 0 0 1-1.3 2.32 13.67 13.67 0 0 0-1.74 3.19c0 .29-.29.73-.29 1.16s-.44.58-.58.87a12.56 12.56 0 0 1-1 2.46c0 .29-.15.44-.29.72-.15.58-.73 1.16-.73 1.89a4.72 4.72 0 0 1-.58 1.88 9.49 9.49 0 0 1-1.17 2.51c.29 1.16.15 1.74-.58 3.19a8.87 8.87 0 0 0-.73 1.74l-.39 3.9a15.41 15.41 0 0 1 1.45 1.74h1.74l2.57-2.57a14.71 14.71 0 0 0 1.31-1.88 5 5 0 0 1 1.45-1.6 2.28 2.28 0 0 0 1.45-2 1.1 1.1 0 0 1 .29-.58c1.45-1.3 2-3.19 3.48-4.35a3.43 3.43 0 0 0 .87-1.3 12 12 0 0 1 2.31-3.29l1.31-1.59a7.29 7.29 0 0 0 1.16-1.74c.29-.58.87-.87 1.31-1.45a3.29 3.29 0 0 1-.15 2.92zm-24.94 20.16l-.61 1.16h.58zm-.14 4.06h.14v-.29h-.14zm.53-4.06v.29a.58.58 0 0 0 .58-.29zm.29 2.75h.15v-.29h-.15zm.15 1.6h-.15v.43h.15zm.29-4.64a.5.5 0 0 0-.15.29c.15 0 .15-.15.29-.15a.14.14 0 0 0-.1-.15zm-.15 3.92c.15 0 .15.14.29.14s-.15-.14-.15-.29zm.58.43c0-.15-.15-.15-.29-.29.19.14.33.14.33.29zm-.29.58h.15c.15 0 .15-.14.15-.29.03.14-.11.14-.26.29zm.58-.43c-.15 0-.15 0-.29-.15 0 .15 0 .15.15.29zm-.1-5.51v.15a.51.51 0 0 0 .29.14zm.87 1.59h-.87a3 3 0 0 0 .87.58zm-.73 1h-.15v.29h.15zm-.15 2.17h.15v-.43h-.15zm.58-4.21l-.44-.29c.15.14.15.29.29.29zm-.29 2.61a.58.58 0 0 0 .29.58c0-.15-.15-.44-.15-.58zm.58 2.32l-.58.58a4.46 4.46 0 0 1 1.31-.15 5.12 5.12 0 0 1-.58-1.3l-.58.29zm.29-2.76a.53.53 0 0 0-.15-.44c-.15.29-.29.29-.58.58a6.3 6.3 0 0 0 .74-.11zm-.29 1.6a2.07 2.07 0 0 0-.29-.44v.44zm.15-3a.51.51 0 0 0-.15.29c.15 0 .15-.14.29-.14a.14.14 0 0 0-.14-.17zm.15 5.08h-.29a.87.87 0 0 0 .15.58h.15zm.87.87v-.27a1.1 1.1 0 0 0-.58.14.14.14 0 0 0 .15.15zm-.29-5.08h-.15v.44h.15zm0 1.16l.15.14a1.31 1.31 0 0 0 .73-.14l-.15-.29zm.58.44a1.3 1.3 0 0 1 .15.72c.28-.6.18-.75-.15-.75zm.43-2.47h-.29v.58h.29zm-.29 3.77h.19v-.29h-.15zm0 1.3h.19v-.29h-.15zm0 .58h.19v-.29h-.15zm.43-4.06c0 .15-.15.15-.15.29s.15-.15.29-.15.01-.16-.13-.16zm.44 1.6v.14h.32v-.14zm.29-1.3h-.15v.58h.18zm29-71.34c-.72 1-1.88 1.74-2.32 2.9l-.43.73a19.18 19.18 0 0 1-1.74 2.9c-.87.73-1.16 2-1.89 2.9a5.13 5.13 0 0 1-2.32 2.32l-.44.44c-1.31-.58-3-.73-3.92-1.89-.15-.58-.44-1-.29-1.45a4.47 4.47 0 0 1 .44-1.89 7.58 7.58 0 0 0 .44-2.61 1.48 1.48 0 0 1 .29-1.3 12.39 12.39 0 0 0 1.3-3.48 10.5 10.5 0 0 1 1.74-3.34l.73-1.45 2.61-4.65a3.21 3.21 0 0 1 2.76-1.89c.14 0 .29-.15.44-.29.72.58 1.45.15 2.17.29l1.89.58a10.16 10.16 0 0 0 2 .44l1.3 1.74c-.58.73-.14 1.6-.29 2.61zm-4.97-2.93v-.15h-.29v.15zm.14-.58h.14v-.29h-.14zm0 3.48h.14v-.29h-.14zm.44-2.32v-.15h-.29v.15zm.87-3c-.14 0-.14 0-.14.15a.5.5 0 0 0 .29.14.51.51 0 0 0-.11-.34zm.15.43c.15 0 .29.15.15 0zm.43-.15c-.14 0-.29 0-.29.15s.29.15.58.15zm.58.87h.29c0-.15-.14-.44-.14-.58h-.15z"/>
  <path d="M172.18 44.22a4.88 4.88 0 0 1 2.32 1.45c.72.87 1.74 1.45 2.32 2.61l-.87 1.45a6.62 6.62 0 0 1-2.32 2.17 2.46 2.46 0 0 0-.87.87 34 34 0 0 1-2.76 3.62c-.58.58-.87 1.45-1.45 2l-1.43 2.51a5.57 5.57 0 0 0-.72 2.75 2.9 2.9 0 0 1-.29 1.88 2 2 0 0 1 0 2.32 36.43 36.43 0 0 0 1 3.77c.15 1.3.73 2.46.58 3.63l1.6 2.46h2l1.88-1.88 1-.58c.58-.44 1.16-.58 1.45-1.3s.72-.87 1.16-1.16a4.57 4.57 0 0 0 1.89-2.47 3.32 3.32 0 0 1 1-1.45 17.94 17.94 0 0 0 2.61-3.19c0-.29.29-.29.72-.44l1 .72c-.29 1.31-1 2.47-1.31 3.77-1.31 1.74-1.89 3.92-3.48 5.51a11.5 11.5 0 0 0-2 2.61 7.9 7.9 0 0 1-1 1.3l-4.79 4.79a9.39 9.39 0 0 0-1.3 2.32v.44c.87 1.16.29 2.32 0 3.19a30.13 30.13 0 0 1-.73 3 8.16 8.16 0 0 0-1.45 2 10.55 10.55 0 0 1-4.64 4.06 7.3 7.3 0 0 1-3.48.87c-.14-.14-.29-.44-.43-.44l-3-.87a3.54 3.54 0 0 0-1.74-.58 1.85 1.85 0 0 1-1-.58 23.86 23.86 0 0 0-3.53-3.1 5.89 5.89 0 0 1-2.17-3.33c0-.14-.29-.44-.58-.72.58-.58-.15-1.16.15-1.89a8.15 8.15 0 0 0 .58-1.74c.87-1.6 2.46-1.45 3.77-2.18a6.61 6.61 0 0 1 2.9-.29 7.7 7.7 0 0 0 4.79-.87c.29-.14.43 0 .72 0a3.39 3.39 0 0 1 1-1c0-.29.14-.58.14-.87a2.7 2.7 0 0 0 .14-1.45 35.65 35.65 0 0 1-1.16-4.21 20.57 20.57 0 0 1-1-3.19 14.25 14.25 0 0 0-1.16-2.61c-.29-.58.15-1.3-.44-1.74-.15-1.88-.72-3.62 0-5.51.15-.15 0-.44 0-.58a15.48 15.48 0 0 1 2.47-7.4 23.18 23.18 0 0 1 3.19-4.5v-.73l2.47-1.89a3.09 3.09 0 0 0 1.47-1.54 2.27 2.27 0 0 1 1.72-1.5c.29 0 .58-.29 1-.44a5 5 0 0 1 2.06.15zm-17.11 47h-.44v.15h.44zm.58.29h-.29v.14h.29zm5.94 0v-1.6l-1-.72a14.14 14.14 0 0 0-4.21 2l2.74 1.47c.88-.44 1.89-.44 2.47-1.16zm-.14-4.5a.14.14 0 0 1-.14.15.45.45 0 0 1 .29.14c-.01-.15-.01-.15-.15-.29zm.44.43c.14 0 .29.15.58.29-.29-.29-.29-.44-.43-.44s-.29.14-.44.14zm-.15-1.16v.44h.15v-.44zm.29-.29h.29v-.15h-.29zm0 2.17h.29v-.15h-.29zm.43-3.19v-.14h-.15c.01.18.01.18.15.18zm-.15 5.22a.87.87 0 0 1 .58-.15v-.15h-.58zm0 .29v.29h.15v-.29zm.29.73h-.29v.15h.29zm.14-5.8l.14-.15c-.14 0-.14-.15-.29-.15s.16.15.16.3zm.14.87l-.14-.14h-.14c.15.14.15.14.3.14zm-.29.58a.14.14 0 0 1 .14.15.5.5 0 0 1 .14-.29c-.12-.01-.12-.01-.26.14zm.58 1c-.29 0-.44.14-.58.14v.14h.58zm0-1.3c-.15-.15-.15-.15-.29-.15v.29c.16.01.16-.13.31-.13zm-.29 4.35l.15.14c0-.14.15-.14.15-.29s-.14.16-.28.16zm.44-.14l.14-.15c0-.15 0-.15-.14-.15zm.44-8.27h.14c-.14 0-.14-.14-.29-.29v.15a.14.14 0 0 0 .16.15zm.29 4.06c0-.15-.14-.15-.14-.29a.5.5 0 0 1-.14-.29.14.14 0 0 1-.15.14.51.51 0 0 0 .29.14v.44zm-.29.14a.14.14 0 0 0-.15.14v.17c.15-.15.15-.29.29-.29zm-.14 2.31a.45.45 0 0 1 .29.14h-.14c.14.14.29.14.29.29l.15-.15c-.15 0-.15-.14-.29-.14s0-.14-.14-.29-.16.03-.16.15zm.15 2.32c0 .14-.15.14-.15.29a.5.5 0 0 0 .15-.27zm0-8.85l.29.29h.15zm0 3.19l.29.44a1.08 1.08 0 0 1 .15-.72c-.3.02-.44.02-.44.31zm.58-2.46h-.44v.29h.58c.01-.12.01-.27-.14-.27zm-.29 1v-.15l-.14.15zm.15 3.91c0-.29-.15-.58-.15-.87h-.14v.87zm-.29.73c.14 0 .14-.15.29-.15l-.15-.14a.5.5 0 0 0-.15.33zm0 2.61c.14-.14.29-.14.58-.14v-.29c-.3.03-.44.03-.59.47zm.14-6.82a1.08 1.08 0 0 1 .73.15c0-.29 0-.44-.58-.29-.15.04-.15.04-.15.18zm.44 5.37l-.29.29.15.14a.5.5 0 0 1 .14-.29zm.87-3.77c-.15-.14-.15-.14-.15-.29s-.14-.29-.14-.58h-.58v.64h.62v.29zm-.87 1l1.3.58v-.58zm.29 2.46h.33l-.29-.87c-.15.15-.15.15-.29.15l.29.43zm0-.87h.33l.29.29v-.11a.51.51 0 0 0-.29-.15v-.55h-.29zm.29-7.25v-.43h-.14v.43zm-.14 4.79a.14.14 0 0 0 .14.15v-.29a.14.14 0 0 1-.15.19zm.14-2.32c.14.15.29.15.29.29a.75.75 0 0 1-.25.67l1 .58c-.15-.44-.29-.58-.29-.72h.58c-.14-.73-.58-.29-1-.44v-.62c-.04.15-.19.15-.29.29zm.14 2.61h-.1c.14 0 .14.14.29.29v-.15a.14.14 0 0 0-.19-.09zm.29-2.9a.5.5 0 0 1 .29-.14.14.14 0 0 1-.14-.15l-.29.29zm0-2.61c.14 0 .14-.15.29-.29-.14.15-.29.15-.29.34zm.29-.15c0-.15.15-.15.29-.29-.15 0-.15 0-.15-.14a.53.53 0 0 0-.14.44zm.29 1l.14.15c0-.15.14-.15.14-.29s-.13.21-.25.21zm.58.73a1.1 1.1 0 0 1-.58.15v.14h.58zm-.29 3h-.26v.28h.29zm.29.43a.87.87 0 0 1-.58.15v.29c.29-.03.44-.03.58-.32zm0-4.49a.14.14 0 0 0-.15-.15c0 .15-.15.15-.15.29s.16-.03.3-.03zm-.14 3.34v-.14h-.15a.14.14 0 0 0 .15.14zm.15-.14c.29 0 .43-.15.72-.15-.15-.15-.15-.15-.15-.29zm0 1.59c.14-.15.29-.15.29-.29s-.15-.04-.3.25zm.14-5.8v.58h.14v-.58zm.43 3.19a.51.51 0 0 1-.29.14l.14.15c.15-.18.15-.18.15-.33zm.15-1.16l.14-.14v-.58h-.42c.13.25.28.39.28.68zm.14 1v-.15c-.14.15-.14.15-.14.29zm.14 1h.29v-.15h-.29zm.29-3.19h.29v-.14h-.29zm17.98 19.42c-3.19 0-6.09-1.89-6.09-6.24s3.19-9.13 6.82-9.13 7.39 3 7.39 6.67c.05 5.51-3.48 8.7-8.12 8.7zm40.17-32.77a6.3 6.3 0 0 0-.73 1.74 2.12 2.12 0 0 0 .29.43 12.37 12.37 0 0 0-2.56 4.69 12.72 12.72 0 0 1-1.74 3 15.72 15.72 0 0 0-2.26 4.06 3.31 3.31 0 0 1-1 1.45 5.58 5.58 0 0 1-1.3 1.31 5.91 5.91 0 0 1-1.16 2.75c-1.45 1.16-2.18 2.9-3.34 4.35-.29.29-.29.58-.58.72-1 1.16-1.88 2.32-2.75 3.48a11.32 11.32 0 0 1-4.35 3 8.36 8.36 0 0 1-2.75.14 10.1 10.1 0 0 1-4.05-5.26 7.76 7.76 0 0 1-.72-1.59 21.56 21.56 0 0 1-.29-3 10.36 10.36 0 0 1 .58-3 1.71 1.71 0 0 0-.14-1.45 2 2 0 0 1 0-1.31c.44-1.45.58-3 .87-4.35a9.47 9.47 0 0 0 1.16-2.46 13.75 13.75 0 0 0 .73-3.33 11 11 0 0 1 1.16-3.48 11.73 11.73 0 0 0 1-3.19 11 11 0 0 1 1.31-2.61l.87-1.59a4.42 4.42 0 0 1 .44-2.32c1.3-2.9 2.61-5.8 4.06-8.56a44.68 44.68 0 0 1 2.46-4.5 6.32 6.32 0 0 1 2-1.88c.29 0 .44-.29.58-.58h1.59a8.76 8.76 0 0 0 1.45 1 13.24 13.24 0 0 1 2.46 1.3 2.21 2.21 0 0 1 1 1.74 3.42 3.42 0 0 1 .29 1.16 9.11 9.11 0 0 1-1.74 2.61 10.84 10.84 0 0 0-1.31 2.18 15.09 15.09 0 0 1-1.45 2.61 6 6 0 0 0-1.25 2.6 5.13 5.13 0 0 1-1.3 2.32 13.67 13.67 0 0 0-1.74 3.19c0 .29-.29.73-.29 1.16s-.44.58-.58.87a12.56 12.56 0 0 1-1 2.46c0 .29-.15.44-.29.72-.14.58-.72 1.16-.72 1.89a4.73 4.73 0 0 1-.58 1.88 9.52 9.52 0 0 1-1.18 2.51c.29 1.16.14 1.74-.58 3.19a8.84 8.84 0 0 0-.73 1.74l-.43 3.92a15.3 15.3 0 0 1 1.45 1.74h1.74l2.61-2.59a14.76 14.76 0 0 0 1.31-1.88 5 5 0 0 1 1.45-1.6 2.28 2.28 0 0 0 1.45-2 1.1 1.1 0 0 1 .29-.58c1.45-1.3 2-3.19 3.48-4.35a3.43 3.43 0 0 0 .87-1.3 12 12 0 0 1 2.31-3.29l1.31-1.59a7.29 7.29 0 0 0 1.16-1.74c.29-.58.87-.87 1.3-1.45a3.29 3.29 0 0 1-.14 2.92zm-24.94 20.16l-.58 1.16h.58zm-.14 4.06h.14v-.29h-.14zm.58-4.06v.29a.58.58 0 0 0 .58-.29zm.29 2.75h.14v-.29h-.14zm.14 1.6h-.14v.43h.14zm.29-4.64a.5.5 0 0 0-.15.29c.15 0 .15-.15.29-.15a.14.14 0 0 0-.14-.15zm-.15 3.92c.15 0 .15.14.29.14s-.15-.14-.15-.29zm.58.43c0-.15-.14-.15-.29-.29.15.14.29.14.29.29zm-.29.58h.14c.14 0 .14-.14.14-.29.01.14-.13.14-.28.29zm.58-.43c-.15 0-.15 0-.29-.15 0 .15 0 .15.15.29zm-.14-5.51v.15a.51.51 0 0 0 .29.14zm.87 1.59h-.87a3 3 0 0 0 .87.58zm-.72 1h-.15v.29h.15zm-.15 2.17h.15v-.43h-.15zm.58-4.21l-.43-.29c.14.14.14.29.29.29zm-.29 2.61a.58.58 0 0 0 .29.58c0-.15-.15-.44-.15-.58zm.58 2.32l-.58.58a4.46 4.46 0 0 1 1.3-.15 5.17 5.17 0 0 1-.58-1.3l-.58.29zm.29-2.76a.53.53 0 0 0-.15-.44c-.14.29-.29.29-.58.58a6.29 6.29 0 0 0 .77-.11zm-.29 1.6a2.05 2.05 0 0 0-.29-.44v.44zm.14-3a.51.51 0 0 0-.14.29c.14 0 .14-.14.29-.14a.14.14 0 0 0-.15-.17zm.15 5.08h-.29a.87.87 0 0 0 .14.58h.19zm.87.87v-.27a1.1 1.1 0 0 0-.58.14.14.14 0 0 0 .14.15zm-.29-5.08h-.15v.44h.15zm0 1.16l.15.14a1.31 1.31 0 0 0 .72-.14l-.14-.29zm.58.44a1.3 1.3 0 0 1 .15.72c.28-.6.14-.75-.15-.75zm.43-2.47h-.29v.58h.29zm-.29 3.77h.14v-.29h-.14zm0 1.3h.14v-.29h-.14zm0 .58h.14v-.29h-.14zm.43-4.06c0 .15-.14.15-.14.29s.14-.15.29-.15 0-.16-.14-.16zm.44 1.6v.14h.29v-.14zm.29-1.3h-.15v.58h.15zm29-71.34c-.72 1-1.88 1.74-2.32 2.9l-.43.73a19.26 19.26 0 0 1-1.74 2.9c-.87.73-1.16 2-1.88 2.9a5.13 5.13 0 0 1-2.32 2.32l-.43.44c-1.31-.58-3-.73-3.92-1.89-.14-.58-.43-1-.29-1.45a4.47 4.47 0 0 1 .44-1.89 7.58 7.58 0 0 0 .43-2.61 1.48 1.48 0 0 1 .29-1.3 12.39 12.39 0 0 0 1.31-3.48 10.49 10.49 0 0 1 1.74-3.34l.72-1.45 2.6-4.65a3.21 3.21 0 0 1 2.75-1.89c.14 0 .29-.15.43-.29.73.58 1.45.15 2.18.29l1.88.58a10.15 10.15 0 0 0 2 .44l1.3 1.74c-.58.73-.14 1.6-.29 2.61zm-4.93-2.9v-.15h-.29v.15zm.14-.58h.15v-.29h-.15zm0 3.48h.15v-.29h-.15zm.44-2.32v-.15h-.29v.15zm.87-3c-.14 0-.14 0-.14.15a.5.5 0 0 0 .29.14.51.51 0 0 0-.15-.37zm.15.43c.14 0 .29.15.14 0zm.43-.15c-.14 0-.29 0-.29.15s.29.15.58.15zm.58.87h.29c0-.15-.14-.44-.14-.58h-.15z"/>
  <path d="M270.92 66.01c0 .15.14.29 0 .44-.87 1.88-1 4.06-2.47 5.66a.76.76 0 0 0-.29.58 23.45 23.45 0 0 1-3.92 7.25 12.83 12.83 0 0 0-1.74 2.75c-.29.29-.29.87-.43 1.6a4.71 4.71 0 0 0-1.74 2.32 22.34 22.34 0 0 1-4.35 6.09 8.77 8.77 0 0 0-1 1.45c-.72 1.31-2 2.18-2.75 3l-4.64 2.32c-1.74-1.16-3.48-2.32-4.5-4.21a18.9 18.9 0 0 1-1.74-3.91c-.15-.44-.29-1 0-1.31.43-.58 0-1.16.29-1.74a3.67 3.67 0 0 0 .29-1.74c0-.44.14-.87-.29-1.16a1.22 1.22 0 0 1 0-1 22.17 22.17 0 0 1 1-4.21c.58-1.45.72-3 1.3-4.64s.44-3.19 1.74-4.49a13.15 13.15 0 0 1 1.32-5.05l.87-2.17a18.94 18.94 0 0 1 .73-2.18 4 4 0 0 0 0-1.3h-1.16c-1.59 1-2.17 2.9-3.33 4.35a19.66 19.66 0 0 1-1.59 2 20 20 0 0 0-1.89 2.9 5.22 5.22 0 0 1-1.51 2.17 1.19 1.19 0 0 0-.58.87c-.15 1.16-1 1.88-1.45 2.75a6.81 6.81 0 0 0-.87 1.3 4.67 4.67 0 0 1-1.16 2 16.4 16.4 0 0 1-1.59 3.19 22 22 0 0 0-1.31 2.61l-1 2.61a2.52 2.52 0 0 1-.87 1.59c-.58.44-.73 1.31-1 2-1.16 2.32-1.74 5.07-3.48 7.25 0 .72-.87.72-1.3 1a2.05 2.05 0 0 1-.87.29 20.74 20.74 0 0 1-4.5-3.48 19.81 19.81 0 0 1-2.17-3c-.58-1.16-1.16-2.46-.29-3.77-.14-.87.44-1.74.29-2.61s.29-1.31.43-1.89a18.75 18.75 0 0 0 1.16-3.77 5.77 5.77 0 0 1 1.31-3 7.92 7.92 0 0 0 .87-2.61 1.1 1.1 0 0 0-.29-.58 13.77 13.77 0 0 0 1.88-4.79 3.42 3.42 0 0 1 .29-1.16l1.31-2.32c-.29-.87.29-1.6.72-2.46a17.38 17.38 0 0 0 1.16-2.9l.58-1.3a48.94 48.94 0 0 0 3.21-7.59l1-1.88 2.52-4.89c0-.15 0-.58.15-.73.43 0 .72.29 1.16.29 1.89-.15 3.19 1 4.35 2.32 0 .58.58.73 1 1.31 0 .58-.29 1.31.29 2a6.74 6.74 0 0 1-.87 2.9 6.68 6.68 0 0 0-1 2 2.45 2.45 0 0 0-.29.72c-.14.72-1 1.16-1 2a5.37 5.37 0 0 1-.58 2 9.73 9.73 0 0 1-1.31 2 19.48 19.48 0 0 0-1.9 4.07l-.29.87a18.15 18.15 0 0 0-2.17 5.22l-1 2.46a11.64 11.64 0 0 0-1.3 4.35.14.14 0 0 1-.14.14l.72 1a4.69 4.69 0 0 0 1.74-2 14.55 14.55 0 0 0 1.45-3 17.46 17.46 0 0 1 2.17-3.48l2.32-4.21c.29-.58.58-1.31 1.3-1.45l.58-.43 1-2a24.24 24.24 0 0 1 3.77-5.07c-.14-.73.58-1.31 1-1.89 1.31-1.59 2.9-3 4.35-4.64l.58-1a12.69 12.69 0 0 1 3.19-3 7.06 7.06 0 0 0 2-1.59 6.21 6.21 0 0 1 4.64-1.74c2 1.16 4.5 1.16 5.95 3.33v2.02l-2.86 4.51-1 1.6-.29.87-.87.73c0 .43.14.58 0 .73l-2.47 5.22c-.58.87-.87 1.88-1.45 2.9a17.55 17.55 0 0 1-.73 2 8.73 8.73 0 0 0-1.3 3.19l-1.31 2.61a6.81 6.81 0 0 1-1.16 3.77c-.29.58.14 1.16-.44 1.45a4.94 4.94 0 0 1-.29 2.18c-.29.72-.29 1.59-.58 2.32-.14.29.29.87.44 1.74l.58 1.16h2l4.79-4.79a8.39 8.39 0 0 0 2.18-3.62 2.12 2.12 0 0 1 .72-.87 3.4 3.4 0 0 0 1.72-1.7l5.22-7.69c.58-.87 1.31-1.59 1.89-2.32zm-50.46 22.73l.29.29v.29h1.3c-.14.29-.29.44-.29.58s.15.15.29.29h-.29v-.29a.18.18 0 1 0 0 .29v.29c.15 0 .15-.14.29-.29.44.14.58.43.58 1a.51.51 0 0 1 .15.29l.43-.72-.29-.58-.58-.73-.43-1c-.29.72-.73.43-1.16.58v-.15l-.15-.15zm0 .73a.14.14 0 0 1 .14.15c0-.15.15-.15.15-.29s-.14-.01-.29.14zm.29-5.37l.29.43c0 .15.14.15.14.29s.15 0 .15-.15-.15-.15-.29-.15v-.58c-.14.02-.14.16-.29.16zm0 3a.88.88 0 0 0 .14.58.14.14 0 0 1 .15-.15v-.43zm.58-3.48h-.15a.5.5 0 0 0-.14.29c.15.05.15-.1.29-.24zm-.29 4.93h.29v-.14h-.29zm1 3.19a1.3 1.3 0 0 0-.72.15.14.14 0 0 0 .14.14c.16.05.31.05.6-.24zm-.29-6.09h.29v-.14h-.29zm.15 1l-.15.14c0 .15 0 .29.29.58.02-.22-.13-.36-.13-.66zm.14.72c0 .29-.29.72.29.87-.13-.23.16-.66-.27-.8zm0-1.16c0 .15 0 .15.15.15s.14-.15.14-.29a.51.51 0 0 0-.27.21zm.29 5.51a.51.51 0 0 1-.14-.29c0 .14-.15.14-.15.29zm0-10.88a.53.53 0 0 0 .15.44l.29-.29a8.12 8.12 0 0 0 .72 1.16v-1c-.37-.38-.37-.38-1.14-.24zm.58 1.31V82h-.58v.15zm-.43 2.32l-.15.15c.15 0 .15.15.29.15s-.13-.09-.13-.23zm.43 1v-.72h-.29a2.15 2.15 0 0 0-.29 1.3h.29l.29.29a6.36 6.36 0 0 1-.29 1.45c.15.14.15.29.44.43h-.73l.87.87.44-1.74c.29-.14.72 0 .87-.29l-.29-.29h.14l.15.15h.29l.44 1.3.43-.29.29.58c.15 0 .29-.14.44-.29l-.29-.58h-.58c0-.29.14-.44.29-.73h-1c.29-.43 1-.15 1.31-.58a1.52 1.52 0 0 0 1.74.15 3.19 3.19 0 0 0-1.16-.15v-.58h-.29v-.29a4.46 4.46 0 0 0-1.16.29c0-.29 0-.43-.15-.58s-.29.15-.43.15l-.72-.58h-.29v.72h.58v.14l-.58.29a.53.53 0 0 0-.15-.44zm.15 6.53c-.15-.14-.15-.14-.15-.29h-.58v.43c.31.08.45-.06.79-.06zm-.44-12.76c.15 0 .15.15.29.15l.29.29v-.29h-.08c-.15-.15-.29-.15-.29-.29zm1 3.92c-.29 0-.44-.14-.73-.29h.23c-.15-.15-.29-.15-.29-.29l-.15.15c.15 0 .15.15.29.15a.75.75 0 0 1-.29.58.75.75 0 0 1 .58.29v.44h.73v.58c.29-.15.72.29.87-.29-.29 0-.58.15-.58-.43 0-.15-.29-.29-.29-.58a.31.31 0 0 1-.34-.24zm-.73 1v.58h.73l-.44-.58h-.06c-.15-.15-.29-.15-.29-.29l-.15.15c.1.08.1.23.25.23zm0 1.88c.15.14.29.14.29.29h-.29v-.29h-.29l.29-.29zm.73 4.06l-.73-.87v.87zm-.44-10.73h.73l-.29-.29zm0 .43c.15 0 .15.15.29.15s-.11-.05-.25-.05zm0 6.53h.58a1.09 1.09 0 0 1 .15.58h-.58c.03-.05-.11-.34-.11-.49zm.73 3c0-.15-.15-.15-.15-.29 0 .14-.14.29-.29.58.33-.15.47-.15.47-.15zm1.59-6.52v-.29c-.73-.43-.73-1-.58-1.74a.14.14 0 0 1 .14-.14 1.12 1.12 0 0 1 .15.44l.58-.29-.15-.14h-.52v-.58c-.14 0-.29.14-.58.29l-.29 1.31.29.58a1.84 1.84 0 0 0-.87.14l.29.44-.29.29h.29v.29c.14 0 .58.29.58-.29h-.58v-.29h.58v.29h.29v1.3c.58 0 .29.44.29.73h.58c0-.43-.14-.73-.14-1s-.15-.15-.29-.15a.14.14 0 0 1 .14-.15c.15-.14.15-.29.29-.29h.15l-.29.29v.29l.56.87c.14 0 .14.14.29.29v.29h.29a.31.31 0 0 0-.29-.29c0-.43-.15-.87-.15-1.45l.87.44v-.58h-.14c0-.15-.15-.15-.15-.29s.15.14.29.14.29-.14.15-.43a.71.71 0 0 0-.87-.44v-.29h-.29v.29h.29v1.12l-.58-.87zm-1.74 7.25h-.14v.29c.18.13.18-.01.18-.16zm.36-10.31h.15l-.29-.29a.5.5 0 0 0 .14.29zm0 10.26v-.15c0 .15-.14.15-.14.29a.14.14 0 0 0 .14-.14zm.15.73l-.29.29.14.15c0-.12.11-.26.11-.41zm0 1.16h-.29v.14h.29zm.29-3a.76.76 0 0 0 .29-.58c-.14 0-.43 0-.72.58.15.29.15.58.29.73a.71.71 0 0 0 .43-.15 1.1 1.1 0 0 1-.33-.59zm-.29-8.56c.14 0 .14.15.29.15a.5.5 0 0 0-.15-.29.14.14 0 0 0-.18.13zm.14 6.09a.14.14 0 0 1-.14-.15c.14 0 .14-.14.29-.14s-.18.14-.18.28zm.15 4.21h-.15a.51.51 0 0 0-.14.29zm.29-7.68h.73c-.15.58-.44.29-.73.29v-.29h-.29v-.58c.4-.02.25.42.25.56zm-.14 2.9c.14 0 .14 0 .14.15a.17.17 0 1 1-.14-.15zm.58-5.66c0-.14.14-.14.14-.29s-.14.15-.29.29zm0 5.95h.14v.29h-.14zm.43 4.64v-.29a.53.53 0 0 1-.43.15v.15zm-.18-11.78v.14c.14-.14.29-.14.29-.29a.5.5 0 0 0-.29.15zm.58 3.63h-.29l.29-.29-.58-.58v.87h.29v.29zm0-3.92l-.15-.14c0 .14-.14.14-.14.29s.14-.13.29-.13zm0 1.29l-.15-.15h-.14l.29.29zm-.29 1.45v.15a.58.58 0 0 0 .58-.29c-.15.03-.44.17-.58.17zm.43 4.64l-.14-.09c.14-.15.14-.15.29-.15a.51.51 0 0 0-.15.27zm0 1.3c0 .15-.14.15-.14.29.14-.15.14-.15.29-.15s0-.1-.15-.1zm.44-6.67v-.14c0-.15-.15-.15-.29-.15.14.04.14.18.29.33zm.29 1.3c-.15 0-.29 0-.58.29.29 0 .43-.15.72-.15a.14.14 0 0 1-.14-.1zm-.58 6.24c.14.15.14.29.29.29a.31.31 0 0 0-.29-.25zm.29-7.1v-.16c-.15.15-.15.15-.15.43a.5.5 0 0 1 .15-.24zm0 4.35v.29a.18.18 0 1 0 0-.29zm.43-4.21h.29v-.14h-.3zm-.01 3.7v.14h.29v-.14zm1.45 0h-.29v.14h.29zm16.68 5.37l-.15.14h.15s.15-.18.01-.18zm1.16-.58a1.13 1.13 0 0 1-.58-.58 1.93 1.93 0 0 0-.44 1zm-.15 1.74a.45.45 0 0 0-.29.14c0 .15.15.29.15.44h.14zm0-.87v-.43h-.14v.43zm.29-2.61h-.14v.29h.14zm.15-.29h.14v-.76h-.14zm1 1.3a2.34 2.34 0 0 0 .43-1.3 3.67 3.67 0 0 0-1.45 1.16c.61-.04.9-.04 1.04.08zm-.72 2.9h-.29v.14h.29zm0 .58h-.29v.14h.29zm.14-2.9v-.29h-.14v.29zm.15.72h-.29v.14h.29zm.29.87h-.15v.29h.15zm.29-1v-.63h-.29a.58.58 0 0 0 .31.58zm0 1.88c0 .14-.14.14-.29.29h.14c.17-.04.17-.19.17-.33zm.73-.87v.29h.29l.87-.87c.72-.29.29-.73.29-1l-.73.43-.29-1h-.14v1.74a2.25 2.25 0 0 1-.44-.87l-.58.29a1.09 1.09 0 0 1 .29.58 1.8 1.8 0 0 0-.29.43zm-.46-3.52h.15c0-.15.14-.15.29-.15l-.15-.15c-.14.15-.14.15 0 .15-.11 0-.29 0-.29.15zm0 1c.15.15.15.29.15.58a.14.14 0 0 0 .14-.14v-.44zm.44-1.74h.14a.51.51 0 0 0 .15-.29zm.29 4.06c-.15 0-.15.15-.29.15a.5.5 0 0 1 .14-.29zm0 1.31l-.15-.15h-.14c.18.16.18.16.32.16zm0-33.5h.29v-.15h-.29zm0 28l.29-.29-.15-.15c.04.15-.11.15-.11.44zm.29 5.8c-.15-.14-.15-.14-.29-.14a.5.5 0 0 1 .14.29.14.14 0 0 1 .18-.15zm-.15-2.46a2 2 0 0 0 .73.14.45.45 0 0 1-.29.14c-.11.15-.11 0-.4-.29zm.15-32a.45.45 0 0 0 .29.15.31.31 0 0 0 .29.29c0-.14-.15-.14-.29-.29a.45.45 0 0 0-.15-.29c.04.08.04.08-.11.08zm.29 34.95h-.15v.29h.15zm.29-4.79c.14.15.14.29.29.29a.31.31 0 0 0-.29-.29h.14c-.14 0-.14-.15-.29-.29 0 .14 0 .14-.14.14a.5.5 0 0 0 .32.1zm-.15-31.61h.15v-.29h-.15zm0 32.34v.29h.15v-.37zm.15 3h-.15v.44h.15zm2.4-34.96v-.73h-.73c.15-.14.29-.29.29-.43h-1.88l1 .29v.44a1.09 1.09 0 0 0 .58-.29c.15.58-.14.73-.58 1.16v-.87c-.14 0-.14 0-.29.14v.87l.58.29.44.58a.75.75 0 0 0 .58-.29c-.15-.58-.73-.15-1-.29l.73-.58v.29c.14-.15.14-.29.29-.29h-.29a.31.31 0 0 1 .29-.29v.29a.5.5 0 0 1 .29-.14.5.5 0 0 1-.3-.15zm-1.6 35.53a1.31 1.31 0 0 1-.72.14l.72.44zm0-34.95c-.29 0-.43 0-.58.15v.15c.1 0 .25 0 .54-.3zm-.43 1.89v-.29h-.15v.29zm.43-2.9a.5.5 0 0 0-.29-.15c-.04.15.1.15.25.15zm-.14 1.59h-.15v.43h.15zm.14 31a.31.31 0 0 0-.29-.29.31.31 0 0 0 .25.32zm0 2.76c0-.29-.14-.44-.14-.58h-.15v.58zm0-37.27h.29v-.15h-.29zm1.31 4.35l-.15-.14h-.58c0-.15 0-.15-.14-.29 0 .15 0 .15-.15.29v-.15l-.29.29a.14.14 0 0 1 .15.14.5.5 0 0 1 .14-.29h.29a1.46 1.46 0 0 0 .15.43zm-1.31 30.16c0 .15 0 .15.15.15l.14-.15zm.29-35.24v.15c.29 0 .44 0 .58-.29a.87.87 0 0 0-.62.18zm.44 7l-.44.72h.58v-.58a.14.14 0 0 0-.19-.18zm-.15 28h-.14a.5.5 0 0 0-.15.29c.1-.02.1-.16.25-.33zm.29-33.93l-.29.29h.15l.14-.15zm0 5.08h.15a.5.5 0 0 1-.29-.14h-.15c.1.12.1.12.25.12zm0 32.63h-.14v.29h.14zm.58-31.9h.15c-.15-.15-.29-.29-.29-.44a.53.53 0 0 0-.44-.14v.87h.73a.14.14 0 0 0-.15.15l.72.43v-.58h-.57c0-.21 0-.32-.19-.32zm-.14 30.31h-.44v.15h.44zm2.46-35.67a.75.75 0 0 1 .58-.29v.58a1.52 1.52 0 0 0 .72-1.3h.29v.73h.58v.15h-.14l-.44.72h.58v-.58h.29c-.14-.14-.14-.29-.29-.29v-.48a1.1 1.1 0 0 1-.58-.29l.29-.58h-.58v-.58c.15-.14.15-.29.44-.43l-.87-.73-.58.73c.29.15.87-.29 1 .43a1.45 1.45 0 0 0-.72.58l.72.58-.87.29c-.14-.58-.58-.73-1.16-.87v-.58c-.43-.14-.72.15-.87.58a.5.5 0 0 1 .29.15.14.14 0 0 1-.14.15c0-.15-.15-.15-.15-.29h-.87l.58.44-.58.44c0 .14.14.14.14.29a.14.14 0 0 0-.14.15v-.46c-.15.14-.29.29-.29.43h.29a1.56 1.56 0 0 1 .29 1.16 1.1 1.1 0 0 0 .58-.29v-.29c-.43 0-.29-.58-.29-.72a.79.79 0 0 1 .87-.58 1.11 1.11 0 0 0-.29.58l-.29.72a3.06 3.06 0 0 1 .87-.58 1.06 1.06 0 0 1-.58 1.16c.15.73-.43 1-.43 1.6a1.58 1.58 0 0 1 .72.14.14.14 0 0 1-.14.15h-1l.87.87-.29.44h.58c.29-.29-.29-.87.29-.87.15.15.15.29.15.58h.29v-.58l1.16-.43a.76.76 0 0 0-.29-.58c.72-.29.14-.58.14-.87.15 0 .29-.14.44-.14v-.58h-.58v-.29c0 .15-.15.15-.29.29h.29c0 .14-.15.14-.15.29 0-.14-.14-.14-.14-.29h-.58l.29-.58a1.11 1.11 0 0 0-.73-.29v-.73h-.29c.15-.14-.14-.58.29-.58v.58h.73zm-2.46-1.6c-.15-.14-.15-.14-.15-.29s-.14.14-.14.29zm1.45 6.24c-.14-.58-.58-.14-.87-.29a2.82 2.82 0 0 0-.15-1l-.43 1h.58l.43.87zm-1.16.73c.14-.15.14-.15.29-.15a.14.14 0 0 0-.15-.15c-.04.12-.14.12-.14.26zm1.45 1.88h-.87l-.43.87zm-1-.29h-.14c.14.15.14.29.29.29a.51.51 0 0 0-.21-.32zm1-2.32h-.29l.29.29zm.44 2h-.73v.14h.73zm.43-5.37l.44.87-.73.43-.77-1.13a3 3 0 0 1 .58-.87v1c.16-.13.29-.3.43-.3zm-.87-3.48h.44a.5.5 0 0 0-.15-.29zm.29 5.08a.5.5 0 0 1 .15.29h-.44zm.15 1.59h-.15c-.14 0-.14.14-.29.14a.14.14 0 0 1 .15.15c-.05-.14.09-.14.24-.31zm-.44.58c.15 0 .15.15.29.29 0-.15 0-.15.15-.15a.53.53 0 0 0-.49-.14zm.15-9v.15c.14-.15.14-.15.14-.44-.05.15-.19.15-.19.3zm.29-.29c.29.15.29.29.58.58v-.89c-.34 0-.47 0-.63.32zm0 2c.14 0 .29.15.58.44v-.87zm1.11 6.86v-.29c-.29 0-.58.15-.87.15v.14zm-.44-9.71h.15v-.29h-.15zm.15 10.44h-.15v.29h.15zm.14-9.86h.15v-.29h-.15zm.15 8v-.29h-.15v.25zm0-7.54c0 .15.14.29.14.58.15 0 .15 0 .15-.15v-.44zm.43 6.24a.78.78 0 0 0 .58.43v-.47zm.29-8.41v.15h.58v-.29c-.3-.04-.43.1-.58.1zm0 1h.28v-.15h-.29zm.15.72a.14.14 0 0 1-.15.15c.15.15.15.15.29.15a.51.51 0 0 1-.14-.35zm.43 7.83v-.29a1.1 1.1 0 0 1-.58.14v.15zm0-7.54a.45.45 0 0 0-.29.15.14.14 0 0 0 .15.15.51.51 0 0 0 .14-.32zm-.3 2.59c.58.15.15.58.29.87a2.61 2.61 0 0 0 .73-1l-.58-.58zm.44 2.76a.5.5 0 0 1-.29-.15h-.15c.15.15.15.15.29.15zm-.28-4.69v.29h.14v-.29zm.58-1.59l-.29-.29-.15.15c.15 0 .15.15.29.15a2.05 2.05 0 0 1-.29.87c.15 0 .29-.15.58-.29 0 .15.15.29.43.44v-.72l-.72-.29zm-.15 6.24c-.14 0-.14 0-.29.14a.14.14 0 0 1 .15.14.5.5 0 0 0 .14-.24zm.15-4.35c.14 0 .29 0 .43-.29h-.58c0 .18.15.18.15.32zm.14 3.33a.5.5 0 0 0-.29-.14l.29.29zm0 .87c-.14 0-.14.15-.29.15s0 .14.15.14.14-.1.14-.25zm-.14-3.77c0 .15.14.15.29.15-.15 0-.15-.15-.29-.29zm.14 4.93h-.14v.34h.14zm.72-4.06c0-.15 0-.15.15-.15l-.15-.15v-.72c-.29.15-.43.29-.58.29 0 .58.29.29.58.43a.45.45 0 0 1-.14.29v.14a.14.14 0 0 1 .15-.09zm-.14.14c0 .14-.15.29-.29.58.29-.29.43-.29.43-.29s.01-.24-.14-.24zm-.15-3h.58v-.58h-.58zm.29 1h-.14a.51.51 0 0 0-.15.29zm-.14 2.75h-.15v1.3h.15zm.43-2l-.14-.15c0 .15-.15.15-.15.29s.15-.15.3-.15zm.44-.44h.14v-.73h-.14z"/>
  <path d="M280.63 58.29a2.61 2.61 0 0 1-.58 1.31 5.7 5.7 0 0 0-.72 2c-.58 1.88-1.3 3.63-2 5.37l-.87 2.46 1.45 1.88c.44-.14.72-.14.87-.43a23 23 0 0 0 1.74-2.17 6.3 6.3 0 0 0 1.16-2.18c.14-.58.87-1.16 1.3-1.88a19.29 19.29 0 0 1 .87-1.74c1.16-1.74 1.88-3.77 3.33-5.37a27.3 27.3 0 0 0 2.32-3.33 51.36 51.36 0 0 1 5.51-6.82 29.44 29.44 0 0 1 3.33-2.61l1.6-.44c.14.15.43.29.58.58a5.09 5.09 0 0 1 2.61.87c1.74 1.45 3.48 2.61 4.06 5.07a14.61 14.61 0 0 0 1 2.18l.58 2.75c0 1.16.15 2.18.15 3.19l-.87 2.46-.87 2.61-1 2.46-2 2.76a10.16 10.16 0 0 1-3 3c-.73.44-1 1.3-1.89 1.6-.29 0-.43.14-.87.14a5 5 0 0 1-2.3 1.68 5.69 5.69 0 0 0-2 1.16 11.43 11.43 0 0 1-2 .73 14.66 14.66 0 0 0-4.35 1c-.58 0-1 .58-1.59.87 0 1.3.87 2 1.45 2.75a55.39 55.39 0 0 0 4.21 4.06 3.85 3.85 0 0 0 3 1.45.53.53 0 0 1 .43.14 12 12 0 0 0 5.08-3.92l1.45-2.17a2.47 2.47 0 0 1 .87-.87 3.68 3.68 0 0 0 1.88-2l1.88-2.18a2.06 2.06 0 0 1 .29-.87 12.47 12.47 0 0 0 2.9-3.77l.58-.73a28.71 28.71 0 0 0 3.77-4.79l.72-1h1.16c0 .15.14.15.14.29.15 1.88-.87 3.48-1.88 4.93a10.14 10.14 0 0 0-2 3.92c0 .14-.14.29-.14.43a36.18 36.18 0 0 1-3.62 5.51l-1.16 1.45a25.29 25.29 0 0 0-1.45 2.76 8 8 0 0 1-1 1.3 15.34 15.34 0 0 0-2.32 3 26.78 26.78 0 0 1-2.75 3.92c-1.31 1.59-2.75 2.75-3.92 4.35h-.73l-1.59 1.74v-.14c-.58 0-.87.15-1.59.15a16.58 16.58 0 0 1-2-.29 6.39 6.39 0 0 1-2.32-2.46 38.54 38.54 0 0 0-3.19-5.22 12.81 12.81 0 0 1-1.21-2.45 33 33 0 0 1-1.45-3.33 5.15 5.15 0 0 0-1.89-2.46c-.43 0-.87-.15-1.3.29 0 .15-.14.15-.14.29.14 1.16-.58 2-1.16 2.9a7.8 7.8 0 0 0-.73 1.59c-.29.58-.29 1.3-.87 1.74-.87 1.88-1.88 3.63-2.61 5.51a11.17 11.17 0 0 1-1.16 2.76c-.29.43-1 .43-1.16.87l-1.88.29c-1.16-.29-2-1.31-3-2.18-.29-.29-.43-.87-1-.87-.29 0-.43-.44-.58-.73l-1.3-2.32-.58-1v-3.08a4.61 4.61 0 0 1 .29-1.88c.29-.58-.29-1.31.29-1.89.14 0 0-.15 0-.15-.15-1.88.87-3.48 1-5.22a.76.76 0 0 1 .29-.58 16 16 0 0 0 1.3-4.5 17.58 17.58 0 0 1 .64-2.58c.29-.58.29-1.45.72-2a6 6 0 0 0 1-1.88c.14-1.88 1.16-3.19 1.88-5.07-.15-.87.43-1.74.87-2.76a6.45 6.45 0 0 0 1.16-2.9 1.79 1.79 0 0 1 .58-1.16c1-1.45 1.16-3.19 2.17-4.49-.15-1 .58-1.59.87-2.32a14.79 14.79 0 0 0 1.3-3.19 17.59 17.59 0 0 1 1.31-2.9 14.33 14.33 0 0 0 2.46-4.64 10.5 10.5 0 0 1 1.74-3.62 15.17 15.17 0 0 0 1.79-4.27 8 8 0 0 1 1.74-3c1.16-1 1.6-2.46 2.17-3.92a8.91 8.91 0 0 1 1.6-3.33c.58-.58.72-1.6 1.16-2.32s1.16-1 1.3-1.89c0-.15.15-.29.29-.44v-.87a13.68 13.68 0 0 0 1.3-1.74 28.72 28.72 0 0 1 2.76-4.5c.43-.73.58-1.6 1-2.47 1.16-2.17 2.32-4.35 4.06-5.8a3.24 3.24 0 0 1 1.45-.44.53.53 0 0 1 .44-.15c.72.58 1.74.15 2.46.73a13.26 13.26 0 0 1 2 1 20.75 20.75 0 0 1 2.17 1.6v1.89c-.58 1.45-2 2.47-2.17 4.21a33.41 33.41 0 0 0-6.38 9.14 8.06 8.06 0 0 1-1.31 2.47l-1.1 1.83a47.72 47.72 0 0 1-3.34 6 10.52 10.52 0 0 0-.72 1.31c-1.31 2.9-3 5.51-4.5 8.41-1.31 2.47-2.61 4.93-3.77 7.54a11.23 11.23 0 0 0-1 2.32 16.35 16.35 0 0 1-1.74 3 7.52 7.52 0 0 0-.87 1.89c-.14.73-.43 1.31-.58 2.17a5.22 5.22 0 0 0-1.76 2.64zm-12.76 30.6c-.44 0-.29-.43-.29-.58h-.29v-1c-.15.14-.29.29-.44.29s-.29-.15-.43-.29a1.3 1.3 0 0 1-.15.72c-.29.29-.29.29 0 .87a1.83 1.83 0 0 1 .15-.87 2.05 2.05 0 0 1 .87.29v1.16zm-1.6-4.35h-.15v.29h.14zm0 5.8c.29-.29.44-.29.44-.29s-.15-.15-.15-.29zm.29-6.82h-.14v.29h.14zM267 87c-.15-.29-.29-.43-.29-.58a1.08 1.08 0 0 1-.15-.73.14.14 0 0 0-.14.15v1.17zm-.58 4.35c.14 0 .14-.15.14-.29.01.15-.14.15-.14.29zm1-7a2.16 2.16 0 0 1-.87.14l.29.58zm-.72 5.22c0-.15.14-.15.29-.29h-.15c-.14 0-.14.15-.29.29zm.14-8h-.14v.29h.14zm1.16 9.42l-.87-.58-.43.58zm-.43-5.37h.29l-.29-.29c0-.29-.29-.29-.58-.29 0 .44.43.29.58.29zm-.45 4.28h-.14v.29h.14zm.44-2.61v1c.43 0 .29.43.29.58s.29.15.29.29l.43.44v.29c-.14.15-.29.29-.43.29l.72.58a2.06 2.06 0 0 0 .87-.29c.14.44.43.29.72.29a.5.5 0 0 0 .15.29l.14-.14c-.14 0-.14-.14-.29-.14v-.29h-.72c.14-.14.29-.29.29-.43s-.15-.29-.15-.43.29-.15.58-.29c-.29 0-.43-.14-.58-.14l-.43-.58v-.3l-.29.29h.29v1l-.58-.44v-.29c-.14 0-.14-.15-.29-.15.15-.14.15-.14.29-.14v.29c.15 0 .15-.15.29-.29h-.29v-.57h.58v.29l.29-.29h-.29c0-.29-.15-.43-.29-.72l.58-.29v1c.29 0 .43.14.72.29v-.58c-.14-.15-.29-.29-.29-.44l-.43-.29.43-.58c-.58 0-.29-.43-.43-.73h-.58c-.14.15-.14.29-.29.29v-.29a.31.31 0 0 1-.29-.29c-.29 0-.43.29-.29.58h.58a1.3 1.3 0 0 0 .29 1.3h-1.59v-.14a.5.5 0 0 0-.29.14zm-.29-1.3h.14a.51.51 0 0 0 .15-.29zm.29-2.47h-.15v.29h.15zm.29 6.09h-.29c0 .14.14.43.14.58h.15zm-.15 2.46c.15-.14.15-.14.15-.29a.51.51 0 0 1-.29.15zm0-9.43h.15v-.29h-.15zm0 1.88h.15v-.43h-.15zm2.46-.72v.14l-.87-.14-.58-.58-.87.44c.14.29.29.43.58.43a.51.51 0 0 0 .29-.15h.14l-.29.29v.29c.44 0 .15.29.29.58l-.29.29h.29v.29h.29c-.14 0-.14-.14-.29-.29v-.29c.29 0 .58.15.58-.29 0-.15-.15-.15-.29-.29h.29v.29c.58.14.29.58.29.87.29 0 .87.29 1-.29-.14 0-.14-.15-.29-.29-.43-.14-.43-.29-.29-.58l.29-.43h.87c-.14-.58-.72-.58-1.16-.58v-.29h-.29c-.14-.14-.14-.29-.29-.29l-.14.14a.51.51 0 0 1 .29.14l.43.29zm-2.32-.87v.14h.28v-.14zm.14-1.31h.14v-.29h-.15zm0 3.33v.14c.15-.14.15-.14.15-.29zm0 2c.15 0 .15 0 .15-.43a6.3 6.3 0 0 1-.15-.73zm.15 1c0-.14-.15-.14-.15-.29s.15.14.29.14zm.43 3.34l-.43.43c0-.29-.15-.15-.15 0h.14c.29.58.72.29 1 .15v-.44c.14-.14.29-.14.29-.29h-.15l-.14.15h-.58V91c-.14.15-.29.29-.43.29zm-.29-3.48c0 .14.15.14.29.29-.14 0-.14 0-.14.15-.15-.15-.15-.29-.29-.29zm0-10.59v.15a.51.51 0 0 0 .29.15c-.11-.09-.11-.23-.25-.23zm.15.29a.31.31 0 0 1 .29.29c0-.14 0-.14.14-.14-.14-.14-.14-.14-.29-.14zm3.33 1.59v.29h-.44c.15-.15.29-.29.44-.29l-.44-1h-.29v-.58h-.58l.58.58a2.05 2.05 0 0 1-.29.87l.58.44c0 .14.15.58-.29.58v.29l.29.29h-.29v-.29c0 .15-.14.15-.29.15a.45.45 0 0 0 .29.15c.15.29-.14.72.29.72.15.14.29.29.29.44a3 3 0 0 0-.87.58c-.14-.44.29-.87-.29-1v-1h-.72v-.31l-.15.14.15.14.43 1a1.61 1.61 0 0 0-1.59.58v.29c.72.58 1-.43 1.59-.58l.58.73c0 .43-.43.29-.72.29h.14v.58a1.69 1.69 0 0 1 1.45-.29c0 .14-.14.29-.29.58h.81c-.15.29-.29.43-.29.58h.87a1.13 1.13 0 0 1-.58-.58v-1c.14-.44.72-.58.58-1.16-.29-.14-.58.14-.58-.29.29 0 .29-.29.29-.58l.29-.29a.14.14 0 0 1-.15-.14.5.5 0 0 1-.14.29h-.58a.75.75 0 0 1 .29-.58 1.58 1.58 0 0 0 .72-.14l-.43-.87c.14 0 .58.29.58-.29l-1.16-.72.58 1zm-3.19 1.74l.15.15a.53.53 0 0 1 .14-.43zm0 9.14a.53.53 0 0 1 .44-.15s0 .15.29.29a3 3 0 0 1-.69-.11zm.29-10.88v.15h.29v-.15zm.29 1.45a.14.14 0 0 0-.14-.15.14.14 0 0 1-.15.15zm0 12.32v-.14h-.29v.14zm0-15.95v.14h.29v-.05zm0 3.77a.5.5 0 0 1 .14.29l.15-.15c0-.14-.15-.14-.29-.29zm.29-2.32h-.15v.29h.15zm-.15 8.27v-.29h.15v.29zm.15-2.32a.5.5 0 0 1 .29-.14c0 .14-.15.14-.29.29zm.14 8h.15v-.29h-.15zm.44-18h-.15v.29h.15zm0 .87h-.15v.43h.15zm.29 3.48l-.44.58c0 .15.15.29.29.43l-.14.15.14-.15h.58zm-.44 3.63c0 .14 0 .29.15.29a.14.14 0 0 0 .14-.14c-.1.06-.1-.09-.25-.09zm.29-4.93a.51.51 0 0 0 .29.15.31.31 0 0 0-.29-.29zm0 1h.15v-.29h-.15zm0 2.9h.29c-.14.14-.29.14-.29.29zm0 5.08h.29c0-.15-.14-.15-.14-.29.04.22-.11.22-.11.36zm0 2.32v.15h.29v-.15zm0 3.63h.15v-.58h-.15zm.58-20.16h-.29l.29.29zm.29 3.48a.45.45 0 0 0-.29.15c.15 0 .29 0 .29.14l.29.58-.87.72c.58 0 .73 0 .87-.14v-.58l.58-.58h-.87zm-.29 9.42c0-.14-.14-.14-.14-.29 0 .14-.15.14-.15.29zm-.29 1.31v.66h.87zm.29 1.31a.45.45 0 0 1-.14-.29c-.15 0-.15.15-.15.29zm-.14 2.46c0 .14-.15.14-.15.29s.15-.14.29-.14zm.29-20.45h-.15c.15.15.15.15.29.15zm.14 2.17c-.14 0-.14.15-.29.29.19-.06.19-.21.33-.21zm-.29 13.49h.29c-.14 0-.14-.15-.29-.29zm0 2.32v.58c.29 0 .44 0 .58-.15-.14-.14-.14-.43-.29-.43zm0 1.3a.14.14 0 0 0 .15.14c0-.14.14-.14.14-.29s-.1.21-.25.21zm.58-17.11v-.29c-.14 0-.14.14-.29.29.15 0 .15 0 .29-.14zm0 1c-.14 0-.14-.14-.29-.14s.15.14.15.29.18.09.18-.05zm.81 13.17l-.44-.73a1.09 1.09 0 0 1-.58.15c.15.14.29.29.44.29a.31.31 0 0 0 .29.29.45.45 0 0 1-.29.14c0 .14.14.14.29.29v.57c.43 0 .14-.43.29-.58h-.29v-.42zm-.29 1.74v-.74h-.44c-.14.15-.14.43-.29.73zm-.44 1a.14.14 0 0 0-.14-.14c0 .14-.15.14-.15.29s.11-.16.25-.16zm0 1.31v-.15h-.29v.1zm0 1.16a.14.14 0 0 1 .15-.15.31.31 0 0 1-.29-.29c0 .14 0 .14-.15.14.15.14.15.14.29.14zm.29-20.74c0-.15-.14-.15-.29-.15.15 0 .15.15.29.29zm.87 1.88l-1.16-.44c0 .29 0 .29.15.44zm-.58 1.45h-.58a1.09 1.09 0 0 0 .15.58h.43a.87.87 0 0 1 .15.62h.29a.58.58 0 0 0-.29-.58.87.87 0 0 0-.19-.62zm-.14 1.45a.14.14 0 0 1-.15-.15c-.14 0-.14.15-.29.15zm-.15 2.17c0-.15-.14-.15-.29-.15.15 0 .15.15.29.29zm0 .43l-.29.29a.5.5 0 0 0 .29-.15zm.15 4.64h-.44v-.14h.44zm0 1.59h-.44a.45.45 0 0 1 .15.29c.1.01.1-.13.25-.28zm-.44 7.11c.15 0 .15.15.29.15s-.18-.14-.33-.14zm.15-15.66l.87.44v-.58c-.29 0-.44-.14-.58-.14zm.29-2.32v.15h.29v-.15zm.29 6.52c-.15-.14-.29-.14-.29-.29-.04.16.1.16.29.3zm-.33 1.27c0-.15 0-.15.14-.29 0 .14 0 .14.15.29zm.14 3.92v-.14c-.14.14-.14.14-.14.29zm-.14 3v.14h.33v-.06zm1.74-16l1-.58v-.29c-.29 0-.58.14-1 .14v.73c-.29-.43-.73-.73-1.45-.15.72-.15 1.04.72 1.45.29zm-1.16 4.64h-.25v.44h.29zm-.25 9.85a.5.5 0 0 1 .29-.15.31.31 0 0 1-.29-.26zm.87-13c-.15.29-.44.43-.73.72h1v-.72a.45.45 0 0 0-.29.14zm.29-3.63h-.87l.43.87zm-.73 15.08h-.14a.58.58 0 0 0 .29.58.87.87 0 0 0-.19-.62zm-.14 2.75h.14a.51.51 0 0 0 .15-.29zm.43-14.36h-.14c.14.15.14.15.29.15zm.15 4.35h-.29c.14.14.29.14.29.29v.58c.58.29.14.72.29 1l.43.87.58-2c.29-.72 1.45-.72 2-1.3h-.44a3.4 3.4 0 0 0-.29-1.74c-.58.58-.72.87-1 1a2 2 0 0 1-1.3.29 2.09 2.09 0 0 1 .29.44c-.15.14-.29.43-.58.58.14 0 .14.14.29.14-.15 0-.15.14-.29.14zm-.29-1.45c.14 0 .14.15.29.15s-.15-.15-.15-.29zm.14 4.93c0 .15-.14.15-.14.29s.14-.14.29-.14-.04-.23-.19-.23zm-.14 1.31v.14h.29v-.14zm0 1.88l.14.14h.15l-.29-.29zm0 1.16c0 .14.14.14.14.29 0-.14.15-.14.15-.29zm.29 1.74l-.15-.15c0 .15-.14.15-.14.29s.1-.17.25-.17zm0-16.24h-.15v.29h.15zm0 15.52h-.15v.29h.15zm0-1c.58 0 .29-.29.29-.58-.48-.05-.33.38-.33.53zm.29-8.85c0-.14-.15-.14-.29-.29.13.1.25.1.25.24zm-.16 5.03c0 .15 0 .15-.14.15.14 0 .29.14.43.14zm.15-6.38h-.15v.43h.15zm.72-1.88c-.15 0-.15-.15-.29-.29-.14.15-.29.29-.43.29zm-.43 1v-.14a.51.51 0 0 0-.29-.14zm-.29.44v.19h.29v-.14zm0 7.11c.14.14.14.29.29.29s-.18-.15-.32-.29zm.14 2.9l.15-.15v-.15l-.29.29zm.43-1.31a.31.31 0 0 0-.29-.29v-.29h-.15c0 .14.15.14.15.29s0 .15.14.29zm-.43.15v.14c.15-.14.15-.14.15-.29zm.87-1a.8.8 0 0 0-.72.29 1.3 1.3 0 0 0 .72-.15zm-.29-9.28v.14l.14.14h.15zm0 1.3v.32h.58v-.29zm0 6.53l.14.14c0-.14.15-.14.15-.29s-.16.13-.32.13zm0 3.77a.14.14 0 0 0 .14.14c0-.14.15-.14.15-.29s-.16.17-.32.17zm.72-7.25a1.1 1.1 0 0 0-.58.14v-.72h.29zm-.29-4.64a.14.14 0 0 0 .15-.14c-.15 0-.15-.14-.29-.14s.12.12.12.26zm.15 7.69h-.15a.5.5 0 0 0-.14.29zm0 3.92a.14.14 0 0 0-.15-.15c0 .15-.14.15-.14.29s.12-.17.26-.17zm.26-14.7v.14h.29v-.14zm.14 1.88l-.14.15c.14 0 .29.15.43.15-.14-.12-.14-.27-.28-.27zm0 4.79a.5.5 0 0 0 .15-.29c0 .14 0 .14.14.14l-.29.29zm.29-4.49h-.14c.14 0 .14.14.29.29v-.14zm.29.87v-.14h-.43v.14zm0 9.14c0-.15-.14-.43-.14-.58a.14.14 0 0 0-.15.15v.43zm.29-2.61c.15 0 .15.14.29.14s-.14-.14-.14-.29a.14.14 0 0 0-.14.17zm.58.14h-.3v.73a1.09 1.09 0 0 1 .58-.15zm.15-4.64h-.15c.15.15.15.15.29.15v.14a.14.14 0 0 1 .15-.14.5.5 0 0 1-.28-.13zm.14 1.59l-.14-.14a.53.53 0 0 1-.15.44zm0 2.9c0-.14 0-.14-.14-.14s0 .14-.15.29c.16.02.16-.12.3-.12zm1-3.33v-.24h-.59a1.57 1.57 0 0 0-.15-.72.51.51 0 0 0-.29.14c0 .29-.14.58.44.58 0 .44.29.29.58.29v.29a.45.45 0 0 0 .29-.14c-.11-.03-.25-.03-.25-.18zm-.87 1.59v.29a.53.53 0 0 0 .43-.15v-.15zm0 1v.29a.53.53 0 0 1 .43-.14v-.14zm.43-3.77a.14.14 0 0 0-.14.15h-.15a.14.14 0 0 1 .15.14c-.01-.1.17-.1.17-.25zm0 1.74c0 .15-.14.15-.14.29s.14-.14.29-.14a.14.14 0 0 0-.12-.11zm.44-3a.58.58 0 0 0 .29.58c0-.29 0-.43-.15-.58zm.14 1.88c0 .15-.14.15-.14.29s.14-.14.29-.14a.14.14 0 0 0-.12-.15zm.15 3.33v-.14h-.29v.13zm.29-2.17a3.23 3.23 0 0 1-.44.73 1.11 1.11 0 0 0 .29.58h.15zm-.29-2.47c0 .15.14.15.29.29v-.29zm0 5.51v.12h.29v-.15zm.87-5.8c-.14 0-.29 0-.58.29a1.31 1.31 0 0 0 .72-.14.14.14 0 0 0-.12-.14zm-.29.72a.5.5 0 0 0-.29-.14.45.45 0 0 1 .14.29c.17.05.17.05.17-.14zm.44.44a1.31 1.31 0 0 1-.72.14c0 .29 0 .44.14.58.14-.14.29-.14.29-.29s.16-.13.31-.42zm-.44 3.91h-.14v.29h.14zm.29-2.9a.14.14 0 0 1 .15-.15.53.53 0 0 1-.44-.14zm.29.58v-.29c-.14 0-.29.14-.43.14v.15zm-.12 2.17h.29c0-.14-.15-.29-.15-.43h-.14zm.14.44h-.14v.29h.14zm.15-4.64a1.55 1.55 0 0 1 .43.72c.15-.85.15-.85-.43-.71zm.58.87h-.58c.14.29.14.58.58.58zm0 2.47c0 .14.14.14.29.29v-.14l-.15-.14a6.41 6.41 0 0 1-.58-1 .14.14 0 0 1-.14.14v.87zm-.58 2.32v.29a1.1 1.1 0 0 1 .58-.14v-.15zm.58-1.59h-.29a.53.53 0 0 0 .14.43h.15zm.29-2c0-.15 0-.29-.29-.43a1.46 1.46 0 0 0 .14.43zm.14-4.35a.14.14 0 0 1-.14.15c.14 0 .29.15.43.15zm.58 5.37h-.29a.31.31 0 0 1 .29-.29 1.31 1.31 0 0 1-.14-.73c-.29.15-.44.29-.44.58s-.14.43.29.43c0 .15.15.15.29.29a1.83 1.83 0 0 0 .29.43 2.16 2.16 0 0 0 .87.14v-.58h-.58v-.16a1.09 1.09 0 0 1 .58-.15v.29l.44-.29c.58-.14.14-.58.14-.87-.14 0-.29.14-.58.29v-.72c.29 0 .73.14.73-.44-.29-.14-.58-.14-.73-.29l-.58-.87v-.29c-.14 0-.14.14-.29.14.15 0 .15.14.29.14l-.29.58.29.44-.87.44.87.72-.58.44v.29a.51.51 0 0 0 .29.15.45.45 0 0 1-.29.15zm-.14-4.79v-.14a.51.51 0 0 0-.29-.14zm.72 1.6c.15 0 .15 0 .29-.15-.14 0-.14 0-.29-.15v-.29c-.14-.14-.14-.29-.29-.29h-.72a1.84 1.84 0 0 1 .14.87l.87-.29zm-.72.58h-.15v.43h.15zm.14 4.06a.45.45 0 0 1 .29.15c0-.15-.14-.15-.14-.29s-.15-.04-.15.11zm.2.66a.17.17 0 1 0-.15-.15c-.05.15-.05.15.15.15zm.43-6.24v.29l.15-.14a.14.14 0 0 0-.15-.15c0-.29-.14-.43-.14-.58h-.15v.58zm0 5.94v-.29h-.29v.29c.44.15.44.29.58.29s.15-.15.29-.29zm-.29 1v.14h.29v-.14zm.58-4.5c0-.15-.14-.15-.29-.29.1.21.24.21.24.35zm-.14 2.9c0 .15-.15.15-.15.29.15-.15.15-.15.29-.15s-.05-.08-.19-.08zm.43-2.61c0-.14-.14-.14-.29-.29.1.21.28.21.28.35zm0-2.75v.15h.44v-.09zm0 4.06l.29-.29c0 .14 0 .14.15.29zm0 1.3v.58c.29 0 .73.15.73-.29zm.29-4.79h-.14v.29h.14zm0 .58h-.14v.29h.14zm.29 5.37h-.14v.29h.14zm.15-6.52h.14v-.43h-.14zm.14.29h-.14v.29h.14zm0 .58h-.14v.39h.14zm0 3.92h-.14c.14.14.14.14.29.14zm.12-2.53v.29a1.06 1.06 0 0 0 .87-.29zm.29 1.3v-.3h-.29l.29.58h.58v.29h.44c-.15-.14-.29-.29-.44-.29 0-.29.29-.58-.29-.58v-.3c-.14 0-.14.15-.29.29h.29zm-.14.58a.5.5 0 0 1 .14-.29c-.14 0-.14 0-.29.14a.14.14 0 0 1 .13.13zm-.14 1.3l.29-.43c-.14 0-.14 0-.29.15zm.58-4.49a.5.5 0 0 1-.29.14.5.5 0 0 1 .29.14 2.43 2.43 0 0 1-.29.73h.58v.3a.58.58 0 0 0 .58-.29H284c0-.29.29-.58-.29-.73zm-.29 4.06a14.13 14.13 0 0 0 1.6-.43c-.44-.29-.58-.29-.58-.44l-.29.29c0-.15 0-.15-.15-.29a3 3 0 0 1-.61.85zm.73-4.35a.5.5 0 0 1 .29-.14l-.15-.14-.29.29zm.58.87v.14a.53.53 0 0 0 .14-.44.51.51 0 0 1-.17.28zm5.37-14.36a3.25 3.25 0 0 1-1.16 2.75 10.51 10.51 0 0 0-2.17 3.63 14 14 0 0 1-1.74 2.9c0 .58 0 1 .58 1.31h1.16a7.06 7.06 0 0 1 1.88-.87 15.79 15.79 0 0 0 2.17-1.16 4.18 4.18 0 0 1 1.88-1.16 1.48 1.48 0 0 0 1.16-.72l2.18-2.46c0-.72.72-1 1-1.45.72-1.31 1.74-2.32 2.46-3.48.15-.58 0-1.45.44-2 .58-.87.14-1.74-.15-2.61a1.7 1.7 0 0 0-1.74-1.3c-.87.29-2 .29-2.75 1.16l-2.18 2.55zm-1 30.89h-.14v.29h.14zm.58.29h-.14v.29h.14zm.15-1.88v.14h.87v-.14zm.14 2.9h-.14v.29h.14zm0-.58a1.81 1.81 0 0 0 .44-.29.5.5 0 0 1-.15-.29zm.29-1.31h-.14c.14.15.14.15.29.15zm0 .73v-.15c0 .15-.14.29.15 0l.29-.43c-.15 0-.15 0-.29.14s-.21.27-.21.41zm.87-.73c0-.15.15-.15.15-.29v-.14c-.15.14-.15.29-.29.29a.14.14 0 0 0 .13.12zm1.16-1h-.17v.29h.14zm-.17 2.14h.14v-.29h-.14zm.43-1a.31.31 0 0 1-.29.29l.14.15c.15-.15.15-.15.15-.29zm0 1.74h-.29a1.84 1.84 0 0 0 .14.87h.15zm.29-1.88c-.15 0-.15.15-.15.29-.02-.17.13-.17.13-.31zm.28 1.28a1.78 1.78 0 0 0 .43-.29.5.5 0 0 1-.14-.29zm.29-.58c0 .14 0 0 .14-.15s.15-.15.29-.29h-.14a1.76 1.76 0 0 0-.29.44zm2.71-74.92a.53.53 0 0 0 .15-.44c0 .15-.15.15-.29.29.14-.04.14-.04.14.15zm.15 1v.15h.43v-.15zm.43-1.45a.14.14 0 0 1-.14-.15.14.14 0 0 0-.15.15zm-.14.15c.14 0 .14.15.29.29a.14.14 0 0 1 .14-.15c-.14-.15-.29-.15-.29-.29zm.87-.44h.15v-.29h-.15zm1.74-4.64v.15h.29v-.15zm1 39.88c0 .15 0 .15.14.15s.15-.15.15-.29a.5.5 0 0 0-.25.1zm.14.87h-.14v.29h.14zm.44-1.16a.14.14 0 0 1-.15-.15c-.14.15-.14.15-.14.29a.5.5 0 0 1 .33-.18zm0-43.07c.29 0 .43-.15.58-.44-.15.15-.29.15-.58.15zm.37 1.56v.15h.29v-.15zm.14 41.91c0 .15 0 .15-.14.15.14.15.14.15.43.15-.18-.16-.32-.16-.32-.3zm.29-43.79c0-.15.15-.15.15-.29s-.15.15-.29.29zm-.18 44.18c.14 0 .14.15.29.15s-.14-.15-.29-.15zm.43-42.34v.15h.32v-.11zm.58-2.17v.15h.29V7.5zm.72.58h.15v-.29h-.13z"/>
</svg>
