<?xml version="1.0" standalone="no"?>
<!DOCTYPE svg PUBLIC "-//W3C//DTD SVG 20010904//EN"
 "http://www.w3.org/TR/2001/REC-SVG-20010904/DTD/svg10.dtd">
<svg version="1.0" xmlns="http://www.w3.org/2000/svg"
 width="2094.000000pt" height="2094.000000pt" viewBox="0 0 2094.000000 2094.000000"
 preserveAspectRatio="xMidYMid meet">
<metadata>
Created by potrace 1.11, written by Peter Selinger 2001-2013
</metadata>
<g transform="translate(0.000000,2094.000000) scale(0.100000,-0.100000)"
fill="#000000" stroke="none">
<path d="M10119 20935 c-2 -1 -57 -6 -123 -10 -65 -4 -126 -8 -135 -10 -9 -1
-54 -6 -101 -10 -46 -4 -107 -10 -134 -15 -32 -5 -56 -4 -67 3 -13 8 -21 6
-34 -6 -9 -9 -28 -17 -43 -18 -15 0 -36 -2 -47 -4 -19 -4 -85 -14 -130 -21
-11 -1 -56 -9 -100 -18 -44 -8 -91 -17 -105 -20 -56 -9 -263 -58 -385 -90
-456 -119 -874 -276 -1295 -485 -600 -298 -1092 -634 -1595 -1091 -66 -60
-367 -361 -430 -431 -331 -363 -676 -839 -890 -1224 -137 -247 -174 -320 -299
-590 -54 -116 -176 -427 -236 -600 -28 -82 -54 -152 -58 -155 -4 -3 -7 -16 -8
-30 -1 -14 -21 -99 -46 -190 -59 -213 -116 -457 -138 -595 -5 -33 -12 -71 -15
-85 -3 -14 -7 -38 -9 -55 -3 -16 -7 -43 -10 -60 -2 -16 -8 -55 -11 -85 -4 -30
-9 -63 -10 -72 -2 -9 -6 -45 -10 -80 -3 -35 -8 -76 -10 -93 -9 -64 -23 -253
-30 -390 -5 -93 -5 -530 0 -625 9 -186 17 -305 20 -310 2 -3 6 -43 10 -89 4
-46 8 -91 10 -100 1 -9 6 -45 10 -81 4 -36 8 -72 10 -80 3 -16 14 -87 20 -130
33 -221 108 -559 176 -791 10 -37 16 -75 13 -84 -4 -9 -1 -20 6 -25 6 -4 40
-90 75 -191 58 -172 115 -328 135 -374 5 -11 37 -85 71 -165 149 -351 356
-733 578 -1063 58 -87 113 -169 121 -181 8 -13 78 -117 156 -232 144 -213 373
-570 482 -749 130 -215 379 -640 457 -780 202 -364 236 -428 372 -690 115
-222 321 -639 411 -830 41 -88 89 -191 107 -230 18 -38 101 -223 185 -410 83
-187 160 -359 171 -383 11 -24 84 -188 163 -365 79 -177 152 -342 164 -367 92
-203 144 -397 158 -593 3 -51 6 -634 6 -1297 0 -1283 0 -1280 47 -1450 18 -65
79 -205 120 -275 49 -85 115 -169 191 -245 89 -88 87 -86 325 -250 116 -79
212 -146 215 -150 3 -3 25 -19 50 -35 24 -17 155 -107 290 -201 316 -218 398
-273 490 -322 91 -48 266 -124 341 -147 82 -25 220 -62 259 -69 19 -3 37 -6
40 -7 3 0 25 -5 50 -9 156 -30 487 -32 670 -5 145 22 387 88 500 137 126 54
302 149 410 222 156 106 299 204 380 261 36 25 76 53 90 63 648 448 683 475
787 605 141 174 216 338 257 562 2 11 7 45 11 75 4 30 8 610 8 1290 0 1350 0
1331 57 1552 23 88 73 220 131 346 22 46 39 86 39 88 0 2 21 47 46 101 25 54
56 123 69 153 13 30 39 90 59 133 20 42 36 79 36 81 0 3 15 37 34 78 18 40 69
154 114 253 44 99 91 205 105 235 14 30 45 100 70 155 70 157 96 214 139 305
22 47 61 128 85 180 60 126 347 701 408 815 26 50 64 122 85 160 21 39 53 99
73 135 130 243 339 610 513 900 71 118 139 230 150 250 12 19 43 70 70 112 27
43 95 151 152 240 97 155 209 325 473 719 115 172 219 337 274 434 15 28 48
86 72 130 192 342 409 854 531 1255 44 141 127 449 135 497 3 15 10 51 17 78
6 28 14 61 16 75 3 14 11 59 19 100 8 41 22 120 30 175 9 55 18 111 20 125 14
90 31 240 50 441 23 252 23 890 1 1074 -3 17 -7 64 -11 105 -6 75 -13 143 -20
190 -2 14 -7 50 -10 80 -5 48 -24 169 -40 265 -9 53 -17 99 -22 125 -14 81
-90 402 -124 525 -73 266 -184 595 -266 785 -9 19 -21 49 -28 65 -98 226 -274
588 -316 647 -10 14 -19 29 -19 33 0 14 -162 280 -265 435 -150 226 -394 549
-530 700 -13 14 -47 52 -76 85 -115 128 -288 303 -459 467 -320 305 -875 709
-1287 938 -23 12 -44 31 -46 41 -3 13 -11 17 -21 13 -9 -4 -92 32 -203 89
-551 278 -1146 486 -1723 601 -74 15 -185 35 -230 42 -19 3 -60 9 -90 14 -70
11 -170 25 -250 35 -25 2 -63 7 -85 9 -22 3 -74 8 -115 11 -41 4 -93 9 -115
11 -49 6 -831 14 -836 9z m661 -310 c80 -3 161 -7 180 -9 19 -2 71 -7 115 -11
44 -3 94 -8 110 -10 17 -2 57 -7 90 -10 32 -4 62 -8 65 -10 3 -1 32 -6 65 -9
33 -3 110 -15 170 -26 149 -26 167 -29 191 -35 12 -3 38 -7 58 -10 20 -4 132
-31 249 -61 258 -66 221 -56 352 -97 453 -144 842 -312 1252 -542 141 -79 142
-79 154 -125 17 -62 14 -52 54 -185 20 -66 47 -156 60 -200 13 -44 54 -181 90
-305 37 -124 84 -283 105 -355 21 -71 72 -245 113 -385 146 -491 156 -524 154
-526 -1 -1 -20 -5 -42 -8 -22 -4 -49 -8 -60 -10 -11 -2 -45 -6 -75 -10 -30 -4
-77 -11 -105 -16 -27 -5 -68 -12 -90 -14 -74 -9 -120 -16 -135 -21 -17 -5
-127 -18 -150 -18 -8 0 -136 41 -285 91 -305 103 -634 214 -1785 602 -443 149
-870 293 -950 320 -233 79 -1604 540 -1855 625 -126 42 -233 80 -237 84 -7 6
131 224 711 1123 53 83 58 87 99 93 24 4 51 8 60 10 10 1 40 6 67 9 281 36
381 44 640 52 105 4 191 7 192 8 4 3 219 -2 373 -9z m-1490 -101 c0 -4 -24
-43 -53 -88 -29 -45 -116 -179 -193 -298 -470 -734 -533 -832 -689 -1073 -18
-27 -160 -248 -315 -490 -155 -242 -289 -451 -299 -464 -9 -13 -20 -31 -26
-40 -15 -25 -308 -481 -390 -606 -112 -173 -455 -706 -511 -795 -65 -103 -69
-107 -129 -114 -27 -4 -88 -13 -135 -21 -47 -8 -105 -17 -130 -20 -25 -3 -56
-8 -70 -10 -14 -2 -45 -7 -70 -10 -25 -3 -56 -8 -70 -10 -40 -7 -84 -14 -121
-19 -19 -3 -50 -7 -69 -10 -19 -3 -82 -13 -140 -21 -58 -9 -116 -17 -130 -20
-87 -13 -179 -27 -200 -31 -14 -2 -49 -6 -78 -10 -51 -5 -69 -8 -122 -19 -14
-3 -41 -7 -60 -10 -112 -15 -189 -26 -208 -30 -25 -4 -161 -25 -202 -30 -19
-2 -51 -7 -70 -10 -19 -3 -48 -7 -65 -9 -16 -2 -57 -9 -90 -15 -33 -6 -82 -13
-110 -17 -27 -3 -59 -8 -69 -10 -11 -2 -54 -8 -96 -14 -42 -6 -86 -12 -98 -15
-12 -2 -22 -2 -22 0 0 6 97 267 128 347 201 501 504 1037 834 1476 90 118 232
296 258 322 3 3 39 43 80 90 166 189 391 413 623 618 86 76 352 284 480 375
669 478 1449 835 2232 1022 154 37 281 64 335 72 19 3 37 7 39 9 7 6 21 5 21
-2z m4835 -1007 c584 -389 1153 -931 1589 -1512 307 -408 540 -811 782 -1350
151 -336 331 -929 404 -1330 11 -60 22 -121 25 -135 7 -34 33 -214 40 -275 3
-27 8 -63 10 -80 2 -16 7 -64 10 -105 4 -41 9 -88 11 -105 24 -198 24 -850 0
-1085 -2 -19 -7 -66 -10 -105 -4 -38 -8 -81 -10 -95 -2 -14 -7 -50 -11 -80 -8
-68 -14 -116 -20 -155 -3 -16 -7 -48 -10 -70 -4 -22 -15 -87 -27 -145 -11 -58
-24 -125 -28 -150 -38 -218 -233 -878 -300 -1015 -5 -11 -23 -56 -41 -100 -17
-44 -41 -102 -53 -130 -12 -27 -38 -85 -57 -128 l-34 -78 -18 58 c-21 68 -56
182 -125 418 -48 163 -122 413 -182 615 -15 52 -80 273 -144 490 -65 217 -130
438 -146 490 -51 170 -78 261 -160 540 -45 151 -127 428 -182 615 -55 187
-104 354 -108 370 -5 17 -54 183 -110 370 -95 321 -349 1178 -410 1385 -15 52
-50 172 -78 265 -92 311 -209 707 -291 985 -44 151 -85 289 -90 305 -18 56
-152 510 -157 529 -2 11 -12 47 -23 80 -11 34 -47 156 -81 271 -54 184 -150
506 -166 558 -7 21 10 12 201 -116z m-5065 -408 c245 -83 483 -163 530 -179
165 -55 1690 -569 2075 -699 215 -73 584 -197 820 -277 237 -79 572 -192 745
-251 306 -103 356 -122 315 -124 -29 -1 -123 -13 -186 -24 -54 -9 -157 -25
-199 -30 -25 -3 -56 -7 -70 -10 -14 -3 -45 -7 -70 -11 -25 -3 -70 -9 -100 -14
-30 -6 -71 -12 -90 -14 -19 -3 -48 -7 -65 -10 -36 -6 -235 -36 -284 -42 -19
-2 -47 -6 -63 -9 -15 -3 -40 -7 -55 -9 -16 -3 -46 -7 -68 -11 -22 -3 -53 -7
-70 -9 -16 -3 -43 -7 -60 -10 -16 -2 -66 -10 -110 -16 -44 -7 -87 -14 -96 -15
-9 -2 -40 -6 -70 -10 -30 -3 -61 -8 -69 -10 -8 -2 -35 -7 -60 -10 -25 -3 -56
-8 -70 -10 -14 -2 -61 -9 -105 -15 -44 -7 -87 -13 -95 -15 -8 -2 -37 -6 -65
-9 -27 -4 -61 -8 -75 -11 -46 -9 -88 -15 -131 -20 -24 -3 -55 -7 -69 -10 -32
-6 -73 -12 -130 -20 -25 -3 -70 -10 -100 -15 -30 -5 -75 -12 -100 -15 -25 -3
-70 -10 -100 -15 -30 -5 -77 -12 -105 -15 -27 -4 -57 -8 -65 -10 -8 -2 -35 -7
-60 -10 -25 -3 -70 -10 -100 -15 -63 -10 -95 -15 -235 -35 -126 -18 -166 -24
-235 -35 -30 -5 -75 -12 -100 -15 -25 -3 -99 -14 -165 -25 -66 -10 -142 -22
-170 -26 -27 -3 -57 -7 -65 -9 -8 -2 -51 -8 -95 -15 -44 -6 -91 -13 -105 -15
-14 -2 -45 -7 -70 -10 -25 -3 -52 -8 -60 -10 -8 -2 -39 -7 -69 -10 -30 -4 -63
-8 -73 -10 -11 -2 -85 -14 -166 -25 -170 -25 -188 -27 -262 -40 -30 -6 -77
-12 -105 -15 -27 -3 -57 -8 -65 -10 -8 -2 -35 -7 -60 -10 -25 -3 -56 -8 -70
-10 -14 -2 -45 -7 -70 -10 -25 -3 -99 -15 -165 -25 -66 -10 -140 -22 -165 -25
-42 -6 -62 -9 -130 -20 -14 -2 -47 -7 -75 -10 -27 -4 -57 -8 -65 -10 -8 -2
-35 -7 -60 -10 -48 -6 -116 -16 -140 -20 -8 -2 -51 -8 -95 -15 -44 -6 -91 -13
-105 -15 -63 -10 -229 -35 -261 -39 l-37 -4 113 176 c63 98 117 182 122 188 4
5 13 18 18 27 11 18 712 1110 831 1292 39 61 124 193 189 295 65 102 152 237
193 300 98 151 127 196 202 313 48 74 67 97 79 92 9 -4 216 -74 461 -156z
m5500 -1902 c68 -232 139 -471 156 -532 18 -60 76 -256 129 -435 93 -312 165
-558 225 -760 15 -52 51 -174 80 -270 29 -96 58 -195 65 -220 7 -25 48 -162
90 -305 42 -143 90 -303 105 -355 32 -111 267 -904 315 -1065 18 -60 31 -112
29 -114 -2 -3 -282 169 -479 294 -27 18 -385 240 -795 495 -410 255 -767 477
-795 495 -27 18 -88 55 -135 84 -47 29 -213 132 -370 230 -157 97 -618 384
-1025 638 -407 253 -1107 689 -1555 968 -448 279 -834 520 -857 534 -46 28
-54 41 -25 42 9 0 26 2 37 4 11 2 40 7 65 10 25 3 56 8 70 10 51 8 156 24 200
30 25 3 70 10 100 15 30 5 78 12 105 15 28 4 57 8 65 10 8 2 35 7 60 10 25 3
70 10 100 15 30 5 75 12 100 15 25 3 70 10 100 15 54 9 80 13 170 25 25 3 70
10 100 15 30 5 78 12 105 16 28 3 57 7 65 9 8 2 51 8 95 15 75 11 93 13 163
24 15 3 43 7 62 10 19 3 96 14 170 25 74 11 153 23 175 26 22 3 51 8 65 10 14
2 45 7 70 10 25 4 86 13 135 20 50 8 110 17 135 20 41 5 200 30 260 40 21 4
82 13 210 30 14 2 25 4 25 5 0 1 11 3 25 4 14 1 45 6 70 10 48 8 70 11 140 21
39 5 112 16 200 30 14 2 61 9 105 16 44 6 89 13 100 15 11 2 36 6 55 8 19 3
53 8 75 11 22 4 51 8 65 10 26 3 103 15 130 20 8 1 38 6 65 9 28 4 61 9 75 11
14 2 86 13 160 24 74 11 153 23 175 27 95 16 212 32 240 33 l30 1 125 -423z
m-4785 -434 c110 -69 207 -129 215 -134 8 -5 76 -47 150 -93 74 -47 174 -109
223 -138 48 -29 87 -55 87 -58 0 -3 -153 -197 -341 -430 -188 -234 -393 -490
-457 -570 -63 -80 -118 -148 -122 -153 -3 -4 -33 -9 -66 -12 -32 -3 -79 -7
-104 -10 -25 -2 -72 -7 -105 -10 -89 -7 -176 -16 -215 -20 -19 -2 -73 -7 -120
-11 -47 -3 -89 -7 -95 -7 -10 -2 -68 -32 -275 -139 -69 -36 -183 -96 -255
-133 -71 -37 -170 -89 -220 -115 -49 -26 -153 -80 -230 -120 -77 -40 -171 -90
-210 -110 -38 -21 -142 -75 -230 -121 -88 -45 -186 -97 -217 -114 -62 -33 -16
25 -783 -982 -249 -327 -269 -363 -268 -483 1 -73 15 -121 78 -275 7 -16 21
-52 33 -80 151 -366 354 -887 349 -897 -6 -15 -267 -342 -276 -346 -4 -1 -15
44 -25 100 -11 57 -21 108 -22 113 -8 40 -229 1152 -250 1260 -2 11 -8 43 -14
71 -6 28 -13 64 -15 80 -3 16 -10 49 -15 74 -5 25 -12 56 -14 70 -2 14 -7 36
-10 50 -3 14 -8 36 -10 50 -2 14 -28 142 -56 285 -29 143 -54 269 -56 280 -2
11 -8 43 -14 70 -6 28 -12 61 -15 75 -3 14 -9 48 -15 75 -5 28 -12 62 -15 78
-3 15 -7 37 -10 50 -2 12 -16 78 -29 147 -14 69 -27 134 -29 145 -2 11 -7 36
-11 55 -8 48 -13 73 -31 160 -20 101 -24 120 -30 153 -4 22 6 45 44 105 165
254 275 425 311 482 23 36 59 92 80 125 22 33 53 83 70 110 17 28 61 96 98
153 37 56 177 273 311 482 134 209 247 380 250 381 3 0 17 2 31 5 26 4 147 23
190 29 14 2 54 9 90 14 36 5 85 13 110 16 25 3 56 8 70 10 40 7 82 14 125 19
22 3 49 8 60 10 11 2 43 7 70 10 28 4 61 9 75 11 48 7 115 17 130 20 8 2 38 6
65 9 28 4 91 13 140 21 50 8 110 17 135 21 25 3 54 8 65 10 11 3 38 6 60 9 60
7 103 13 133 19 15 3 47 8 72 11 25 4 99 15 165 25 66 10 145 21 175 25 30 4
64 9 75 11 10 2 37 6 60 9 22 3 47 8 55 10 8 2 40 7 70 10 30 3 62 8 70 10 8
2 35 7 60 10 25 3 56 8 70 10 14 2 90 14 170 25 80 12 147 24 148 25 8 8 45
-13 237 -132z m-3106 -325 c-7 -12 -44 -72 -83 -132 -39 -60 -84 -131 -101
-158 -16 -26 -129 -201 -250 -388 -121 -187 -226 -350 -233 -362 -7 -13 -38
-62 -70 -111 -86 -132 -903 -1401 -932 -1447 -25 -40 -202 -316 -335 -521 -38
-60 -97 -150 -130 -201 -32 -51 -87 -136 -120 -188 -115 -177 -242 -375 -270
-420 l-28 -44 -13 44 c-14 47 -89 406 -99 475 -3 23 -7 50 -9 60 -2 11 -7 45
-11 75 -4 30 -9 63 -11 73 -2 10 -6 45 -9 78 -4 33 -8 68 -10 78 -2 9 -6 57
-10 107 -4 49 -8 100 -10 114 -23 153 -23 818 0 1010 2 19 7 71 10 115 3 44 8
91 10 105 2 14 6 50 10 81 3 31 7 65 9 75 2 11 7 42 10 69 29 210 83 475 141
700 42 162 100 363 107 370 2 2 23 6 48 10 25 3 70 10 100 15 30 5 77 12 104
15 27 3 52 8 55 9 3 2 31 7 62 10 31 4 65 8 75 10 17 3 54 8 154 22 19 3 73
11 120 19 47 8 105 17 130 20 25 3 56 8 70 10 14 2 87 13 162 24 76 12 150 23
165 25 16 3 48 8 73 11 25 3 86 12 135 20 135 21 295 45 340 50 22 3 51 7 65
10 14 3 43 7 65 10 22 3 51 8 65 10 29 5 68 11 125 19 49 7 114 17 139 22 10
2 41 6 70 9 28 4 67 10 86 14 43 9 45 8 29 -21z m4156 -328 c83 -51 267 -166
410 -255 143 -89 346 -215 450 -280 538 -334 780 -485 880 -548 61 -39 119
-75 130 -81 24 -13 356 -219 405 -251 19 -13 175 -110 345 -216 171 -105 495
-307 720 -447 574 -358 966 -602 1058 -659 125 -76 119 -69 108 -133 -6 -30
-13 -71 -16 -90 -3 -19 -10 -60 -15 -90 -5 -30 -12 -71 -15 -90 -11 -69 -26
-156 -35 -205 -5 -27 -32 -185 -59 -350 -61 -370 -60 -365 -66 -395 -3 -14 -7
-38 -9 -55 -3 -16 -12 -73 -21 -125 -9 -52 -18 -107 -21 -122 -2 -16 -6 -43
-9 -60 -3 -18 -10 -58 -15 -88 -5 -30 -12 -71 -15 -90 -4 -19 -12 -71 -20
-115 -8 -44 -16 -98 -20 -120 -3 -23 -7 -52 -10 -65 -3 -14 -7 -38 -10 -55 -3
-16 -7 -43 -10 -60 -3 -16 -15 -84 -26 -150 -25 -150 -29 -173 -35 -210 -3
-16 -7 -39 -8 -50 -2 -11 -6 -33 -9 -50 -3 -16 -9 -48 -12 -70 -3 -22 -14 -89
-25 -150 -10 -60 -21 -123 -23 -140 -3 -16 -19 -113 -36 -215 -18 -102 -34
-196 -36 -210 -2 -14 -11 -68 -20 -120 -9 -52 -18 -106 -20 -120 -2 -14 -11
-68 -20 -120 -9 -52 -18 -108 -21 -125 -6 -38 -13 -75 -18 -100 -2 -11 -7 -42
-10 -70 -4 -27 -11 -68 -16 -90 -5 -22 -12 -62 -16 -90 -3 -27 -8 -59 -10 -70
-2 -11 -11 -60 -19 -110 -8 -49 -17 -101 -20 -115 -2 -13 -7 -42 -10 -65 -3
-22 -8 -47 -10 -55 -3 -8 -7 -35 -10 -60 -3 -25 -7 -52 -10 -60 -2 -8 -7 -33
-10 -55 -3 -23 -8 -52 -10 -65 -3 -14 -8 -41 -11 -60 -3 -19 -7 -46 -10 -60
-2 -14 -9 -56 -15 -95 -6 -40 -23 -91 -39 -120 -61 -111 -145 -275 -288 -560
-252 -504 -298 -603 -747 -1610 -81 -181 -158 -354 -171 -383 -13 -29 -24 -55
-24 -58 0 -3 -21 -38 -46 -77 -94 -146 -217 -233 -388 -277 -65 -16 -113 -19
-358 -20 -316 0 -331 2 -375 69 -31 46 -29 81 13 224 20 67 37 129 39 137 2 8
16 53 30 100 14 47 28 92 30 100 2 8 60 209 130 445 70 237 137 466 150 510
13 44 85 289 160 545 75 256 138 472 140 480 2 8 20 69 40 135 31 104 85 289
205 695 15 52 49 167 75 255 26 88 48 167 50 175 2 8 54 184 115 390 61 206
136 461 166 565 31 105 67 226 80 270 40 135 202 686 223 760 11 39 45 156 76
260 125 422 157 531 165 560 4 17 29 102 56 190 62 211 74 265 75 355 1 99 -8
173 -31 241 -18 52 -34 89 -115 264 -18 39 -70 151 -115 250 -45 99 -98 214
-117 255 -41 88 -140 303 -173 375 -13 28 -45 97 -72 154 -26 57 -48 105 -48
107 0 1 -24 54 -54 118 -79 166 -124 205 -311 266 -38 12 -74 26 -79 31 -6 5
-17 9 -27 9 -9 0 -38 9 -65 20 -27 10 -141 51 -254 90 -113 40 -248 87 -300
105 -52 19 -211 74 -352 124 -142 50 -272 98 -290 107 -55 28 -151 95 -198
140 -25 23 -59 55 -76 70 -17 16 -80 75 -140 130 -60 56 -129 120 -154 143
-25 23 -58 49 -75 58 -32 18 -116 22 -215 10 -30 -3 -86 -9 -125 -12 -38 -3
-86 -8 -105 -10 -19 -2 -71 -7 -115 -10 -44 -4 -91 -8 -105 -10 -14 -2 -63 -6
-110 -10 -47 -4 -96 -8 -110 -10 -14 -2 -59 -6 -100 -10 -41 -3 -93 -8 -115
-10 -22 -2 -69 -7 -105 -10 -36 -3 -87 -8 -113 -11 -55 -6 -55 -5 0 62 17 22
81 102 143 179 62 77 119 149 129 160 9 11 43 54 76 95 33 41 62 77 65 80 3 3
21 25 40 50 19 25 68 86 108 135 40 50 79 97 85 105 7 8 52 65 101 126 l90
112 75 -47 c42 -26 144 -90 226 -141z m93 -1106 c15 -10 32 -22 38 -28 12 -12
189 -176 272 -251 62 -57 64 -79 7 -81 -22 -1 -101 -5 -175 -9 -74 -4 -166 -9
-205 -10 -74 -4 -249 -13 -375 -20 -41 -2 -133 -7 -205 -11 -71 -3 -150 -8
-175 -9 -98 -6 -201 -8 -204 -4 -3 2 193 104 434 226 l438 222 62 -4 c36 -2
72 -11 88 -21z m-495 -22 c3 -4 -164 -94 -372 -200 l-378 -192 -104 5 c-57 3
-117 7 -134 9 -33 5 -289 34 -375 42 -30 3 -64 7 -75 9 -11 1 -56 6 -100 11
-44 4 -83 9 -87 10 -5 1 -24 2 -43 3 -25 1 -35 6 -35 17 0 28 65 98 116 126
50 27 76 33 199 43 39 3 88 8 110 10 22 2 72 7 110 10 39 3 88 8 110 10 68 7
147 14 220 20 39 4 81 8 95 10 14 2 66 6 115 10 50 3 101 8 115 10 14 2 63 7
110 11 47 3 92 7 100 9 8 1 58 6 110 10 52 4 96 8 97 9 8 7 92 5 96 -2z
m-1863 -310 c0 -5 -105 -157 -234 -338 -129 -181 -248 -349 -266 -374 -118
-168 -214 -299 -241 -326 -21 -21 -70 -48 -148 -80 -101 -41 -438 -195 -780
-355 -57 -27 -105 -49 -106 -49 -2 0 -41 -18 -87 -40 -50 -23 -86 -36 -92 -30
-6 6 34 66 100 152 172 226 244 321 264 348 182 242 327 425 354 445 35 27 42
31 281 155 161 83 303 157 450 235 44 23 152 80 240 125 88 46 183 96 210 111
57 32 55 32 55 21z m305 -107 c32 -5 263 -31 355 -40 155 -15 180 -22 180 -45
0 -18 -286 -357 -309 -365 -147 -56 -641 -249 -656 -255 -60 -27 -403 -160
-413 -160 -7 0 -12 2 -12 5 0 3 55 83 123 178 67 94 129 181 137 194 77 114
330 463 350 482 24 22 30 23 120 17 52 -4 109 -9 125 -11z m-3271 -125 c9 -53
89 -454 127 -645 23 -110 43 -211 45 -225 3 -14 16 -79 29 -145 13 -66 27
-136 30 -155 3 -19 10 -53 15 -75 5 -22 21 -98 34 -170 14 -71 28 -143 31
-160 3 -16 8 -43 11 -60 3 -16 12 -61 21 -100 17 -80 18 -88 27 -135 8 -43 10
-56 30 -150 8 -41 18 -91 21 -110 3 -19 8 -42 10 -50 2 -8 7 -30 10 -48 3 -18
12 -64 20 -102 8 -38 17 -84 20 -102 4 -18 30 -155 60 -304 67 -338 61 -305
79 -399 9 -44 18 -91 21 -105 3 -14 7 -36 10 -50 2 -14 23 -117 46 -230 22
-113 43 -216 45 -230 3 -14 20 -101 39 -195 19 -93 37 -186 40 -205 3 -19 8
-42 10 -50 2 -8 6 -27 9 -42 3 -15 12 -63 20 -105 22 -105 25 -123 32 -158 3
-16 16 -86 30 -155 14 -69 28 -136 30 -150 2 -14 7 -36 10 -50 3 -14 8 -36 10
-50 10 -54 126 -640 144 -725 10 -49 22 -106 25 -125 3 -19 31 -161 61 -315
31 -154 58 -291 60 -305 3 -14 7 -32 9 -40 2 -8 7 -31 10 -50 3 -19 13 -69 21
-110 9 -41 18 -84 20 -95 2 -11 6 -31 9 -45 2 -14 7 -36 9 -50 2 -14 11 -59
20 -100 8 -41 17 -86 20 -100 18 -100 58 -302 66 -335 5 -22 21 -101 35 -175
14 -74 28 -144 31 -155 4 -20 -30 49 -169 340 -193 404 -500 995 -717 1380
-110 196 -253 441 -344 590 -60 99 -114 190 -120 202 -6 13 -14 23 -18 23 -5
0 -8 4 -8 10 0 19 -399 635 -570 879 -85 122 -244 361 -291 439 -241 398 -437
813 -587 1242 -55 158 -132 409 -134 437 -1 10 79 143 178 296 209 324 194
301 262 408 29 46 89 138 132 204 44 66 83 127 86 135 4 8 22 36 41 63 18 26
33 49 33 51 0 3 19 33 43 69 23 35 76 116 117 181 41 64 96 149 121 189 26 40
84 131 131 202 46 72 126 196 178 277 l95 148 12 -53 c7 -28 14 -63 17 -77z
m5786 1 c-8 -5 -289 -115 -625 -245 -335 -131 -619 -242 -630 -247 -20 -9
-456 -179 -745 -290 -85 -33 -163 -64 -172 -70 -10 -5 -21 -9 -24 -9 -5 0 2
128 12 195 1 11 3 32 3 46 1 23 9 30 69 52 86 33 180 70 657 256 215 84 449
175 520 203 72 27 145 56 162 64 19 9 78 17 140 20 60 2 131 6 158 9 28 2 122
7 210 11 88 3 161 7 162 8 1 0 28 2 60 3 34 1 52 -1 43 -6z m330 -26 c132 -26
182 -48 166 -73 -3 -6 -212 -92 -464 -192 -251 -100 -470 -188 -487 -195 -16
-7 -158 -63 -315 -125 -157 -62 -298 -118 -315 -125 -16 -7 -106 -43 -200 -80
-93 -37 -183 -73 -200 -80 -113 -49 -719 -285 -732 -285 -13 0 -14 11 -9 68
11 130 18 197 19 198 1 0 88 33 192 74 170 65 291 113 685 267 63 25 167 65
230 90 63 24 183 71 265 103 83 33 308 120 500 195 193 75 359 140 370 145 59
28 122 48 140 45 11 -3 81 -16 155 -30z m-1235 -13 c-13 -11 -41 -22 -415
-168 -179 -69 -415 -161 -525 -204 -110 -43 -224 -88 -254 -99 -29 -12 -56
-20 -58 -17 -17 16 92 158 259 337 26 28 221 110 273 114 17 2 98 6 180 10 83
4 177 8 210 10 33 2 118 7 190 10 71 3 131 8 134 10 2 3 7 5 10 5 3 0 1 -4 -4
-8z m2031 -248 c198 -69 382 -135 411 -146 63 -24 125 -76 157 -131 13 -23 99
-217 191 -432 91 -214 191 -447 221 -516 30 -70 54 -134 54 -143 0 -27 -34
-18 -64 17 -15 17 -60 66 -100 107 -39 42 -125 133 -191 204 -66 71 -138 148
-160 171 -22 24 -92 98 -155 166 -63 67 -126 134 -140 149 -14 14 -81 86 -150
160 -69 74 -134 144 -145 156 -27 28 -242 258 -282 302 -35 38 -42 62 -19 62
7 0 175 -57 372 -126z m-478 44 c33 -35 77 -81 97 -103 57 -61 161 -172 239
-255 39 -42 132 -141 206 -220 190 -204 273 -292 290 -310 126 -129 142 -150
137 -182 -2 -18 -27 -118 -55 -223 -28 -104 -117 -442 -197 -750 -81 -308
-156 -594 -167 -635 -11 -41 -21 -82 -23 -90 -2 -8 -13 -51 -25 -95 -12 -44
-31 -117 -43 -163 -12 -46 -26 -84 -32 -85 -5 -1 -17 21 -27 48 -9 28 -130
385 -268 795 -138 410 -311 923 -384 1140 -73 217 -177 525 -231 683 -54 159
-93 292 -89 297 5 4 61 29 124 54 63 26 124 51 135 55 15 7 244 98 251 101 1
0 29 -28 62 -62z m-655 -255 l18 -56 -43 -61 c-98 -142 -165 -238 -260 -376
-36 -52 -110 -159 -164 -237 -54 -79 -166 -239 -247 -358 -82 -118 -152 -215
-155 -216 -4 0 -16 -2 -27 -4 -11 -2 -140 58 -300 140 -154 79 -403 206 -552
282 -183 92 -273 143 -273 154 0 11 31 28 98 54 173 67 676 266 707 280 17 7
271 108 565 225 294 116 548 218 564 225 16 7 34 11 41 9 6 -3 19 -30 28 -61z
m-2277 -130 c-4 -49 -9 -95 -11 -103 -2 -8 -6 -53 -10 -100 -4 -47 -8 -98 -9
-115 -6 -60 -17 -171 -21 -210 -3 -22 -7 -67 -10 -100 -7 -86 -15 -175 -20
-215 -2 -19 -7 -69 -11 -110 -3 -41 -8 -83 -9 -92 -2 -9 -6 -45 -10 -80 -3
-35 -8 -74 -10 -88 -2 -14 -6 -52 -10 -85 -4 -33 -11 -61 -16 -63 -5 -2 -6
-14 -3 -27 5 -19 -11 -187 -31 -330 -2 -16 -7 -59 -11 -94 -8 -79 -18 -117
-31 -114 -11 2 -143 64 -403 190 -113 54 -243 117 -288 138 -46 22 -167 81
-268 130 l-184 90 33 35 c18 19 95 103 172 185 76 83 146 157 154 166 14 13
143 153 245 263 15 17 79 85 141 151 61 66 123 132 136 146 25 27 201 217 254
273 17 18 75 81 129 139 55 59 101 107 104 107 2 0 1 -39 -2 -87z m-276 -43
c0 -11 -33 -47 -242 -271 -53 -57 -109 -117 -124 -134 -15 -16 -81 -88 -148
-159 -67 -71 -132 -140 -145 -155 -35 -38 -210 -227 -251 -271 -93 -99 -247
-265 -261 -281 -16 -18 -19 -17 -97 21 -70 34 -80 42 -77 62 2 13 6 68 9 123
6 95 9 137 21 273 2 31 7 107 11 167 6 109 18 145 49 145 7 0 25 6 41 14 48
24 301 127 690 281 203 80 396 157 429 170 65 26 95 31 95 15z m2625 -47 c4
-10 116 -342 250 -738 133 -396 288 -856 345 -1022 56 -166 100 -310 98 -320
-2 -10 -10 -18 -18 -18 -8 0 -246 144 -527 320 -282 176 -521 325 -530 330
-53 30 -401 250 -415 263 -10 8 -18 27 -18 41 0 19 93 161 301 461 165 239
342 495 392 568 50 72 96 132 103 132 6 0 15 -8 19 -17z m-4130 -513 c0 -30
-2 -77 -5 -105 l-5 -50 -33 94 c-18 51 -32 94 -30 96 17 13 46 24 58 22 11 -2
15 -16 15 -57z m8297 -79 l184 -114 64 -216 c35 -119 69 -236 76 -261 7 -25
33 -112 58 -195 55 -184 301 -1015 327 -1107 l20 -67 -37 -73 c-107 -212 -256
-463 -427 -718 -310 -461 -458 -688 -628 -965 -50 -82 -102 -166 -115 -185
-40 -63 -325 -547 -385 -655 -15 -27 -60 -106 -99 -175 -75 -133 -75 -133 -54
-5 7 40 113 673 119 705 2 14 11 68 20 120 9 52 18 106 20 120 3 21 86 517
100 600 3 14 7 36 9 50 3 14 8 41 10 60 3 19 8 45 10 56 2 12 7 39 10 60 4 22
11 64 16 94 10 56 12 68 30 180 9 62 13 84 25 148 3 15 9 54 15 87 5 33 34
209 65 390 72 427 72 424 80 478 3 17 7 43 10 57 3 14 7 39 9 55 3 17 7 44 10
60 31 182 76 449 81 485 3 25 8 52 11 61 2 9 7 34 9 55 3 22 9 62 15 89 5 28
12 64 14 80 3 17 10 59 16 95 6 36 13 79 16 95 3 17 9 55 14 85 5 30 12 69 14
85 3 17 8 46 11 65 3 19 12 71 20 115 8 44 16 94 19 110 9 74 19 116 27 113 4
-2 90 -54 191 -117z m-8372 -40 l43 -129 -41 -105 c-23 -58 -42 -111 -42 -118
0 -32 -22 17 -75 171 -32 91 -63 183 -70 205 l-12 40 66 32 c36 17 71 32 77
32 5 1 30 -57 54 -128z m2289 -92 c174 -89 449 -229 611 -312 162 -82 304
-158 315 -169 20 -18 20 -32 21 -973 0 -525 0 -955 -2 -955 -2 0 -95 153 -129
212 -5 10 -50 84 -100 165 -49 81 -95 157 -101 168 -6 11 -44 74 -84 140 -89
146 -562 928 -788 1303 l-164 273 7 72 c4 40 8 86 10 102 1 17 3 45 4 63 1 25
8 37 34 52 17 11 36 20 41 20 4 0 151 -73 325 -161z m-2463 -66 c38 -109 69
-200 70 -203 0 -3 6 -18 12 -33 16 -38 18 -28 -35 -163 -39 -101 -48 -115 -54
-94 -4 14 -46 138 -94 275 -99 284 -119 345 -113 350 6 6 132 64 139 65 4 0
37 -89 75 -197z m-225 -9 c20 -60 73 -214 118 -342 84 -243 83 -236 52 -307
-5 -11 -21 -51 -36 -88 -15 -37 -29 -66 -31 -64 -3 3 -39 104 -225 642 -38
110 -69 203 -69 207 0 5 6 8 13 9 6 0 37 13 67 29 30 15 59 27 64 26 5 -1 26
-51 47 -112z m6306 77 c21 -21 88 -91 148 -156 136 -147 153 -164 295 -315 63
-68 122 -134 130 -149 9 -17 14 -55 14 -111 l0 -85 -63 -120 c-35 -66 -72
-133 -81 -150 -18 -31 -67 -122 -130 -240 -20 -39 -56 -106 -80 -150 -23 -44
-63 -118 -88 -165 -24 -47 -53 -98 -62 -115 -10 -16 -41 -75 -70 -130 -177
-334 -208 -361 -481 -415 -237 -47 -221 -46 -213 -13 4 15 11 36 16 46 5 9 7
17 4 17 -3 0 0 15 5 33 6 17 26 93 45 167 19 74 68 261 109 415 41 154 78 298
84 320 5 22 30 117 54 210 25 94 99 377 166 631 128 489 135 514 150 514 6 0
27 -17 48 -39z m-6446 -331 c50 -146 95 -276 99 -290 5 -14 33 -96 63 -183
l55 -157 -46 -115 c-33 -83 -50 -115 -62 -115 -13 0 -63 115 -210 482 -194
485 -208 529 -178 566 17 20 171 91 180 83 4 -3 48 -125 99 -271z m574 -62
c-3 -24 -9 -65 -15 -93 -6 -27 -12 -59 -14 -70 -2 -11 -9 -38 -15 -60 -5 -22
-13 -54 -16 -72 -3 -17 -19 -96 -35 -175 -41 -190 -45 -239 -27 -274 16 -30
145 -158 282 -279 43 -38 93 -83 109 -99 l31 -28 -35 6 c-19 3 -66 14 -105 25
-144 40 -421 113 -440 117 -33 6 -85 70 -85 104 0 23 251 680 315 825 7 17 21
49 30 73 10 23 19 42 21 42 2 0 1 -19 -1 -42z m1871 -21 c36 -61 570 -945 699
-1157 48 -80 95 -158 105 -175 26 -44 414 -686 443 -731 13 -22 31 -53 40 -71
l17 -31 -87 -36 c-67 -28 -88 -34 -95 -24 -4 7 -65 105 -134 218 -70 113 -150
243 -179 290 -29 47 -245 400 -480 784 l-427 699 7 56 c4 30 8 62 10 71 1 8 6
46 10 85 4 38 9 73 11 77 9 15 30 -4 60 -55z m-1475 -241 c243 -117 404 -195
564 -271 61 -29 178 -85 260 -125 83 -40 201 -97 263 -126 61 -30 113 -60 113
-67 1 -6 1 -14 1 -17 0 -7 -11 -109 -16 -145 -2 -16 -7 -59 -11 -95 -4 -36 -8
-76 -10 -90 -2 -14 -6 -47 -10 -75 -3 -27 -7 -68 -10 -90 -3 -22 -7 -62 -10
-90 -7 -53 -9 -71 -25 -205 -5 -47 -13 -112 -16 -145 -4 -33 -8 -67 -10 -75
-1 -8 -3 -24 -3 -35 -1 -12 -16 7 -40 50 -79 147 -115 212 -145 265 -17 30
-38 68 -46 84 -24 48 -105 122 -162 150 -30 15 -107 40 -171 56 -64 16 -130
36 -145 44 -28 14 -196 151 -277 225 -22 20 -69 61 -105 91 -36 30 -72 62 -80
70 -8 8 -33 30 -55 49 -94 80 -150 138 -160 168 -9 27 -6 59 22 190 18 87 35
165 37 173 2 8 9 43 16 78 7 34 14 62 15 62 1 0 99 -47 216 -104z m3172 -56
l176 -111 213 -372 c116 -205 222 -390 235 -412 46 -80 51 -104 34 -147 -5
-13 -81 -96 -168 -184 -87 -89 -274 -280 -415 -424 l-257 -262 -42 25 -42 25
0 967 c1 907 2 967 19 986 31 35 63 23 247 -91z m-1563 -412 c126 -205 246
-401 267 -436 21 -34 54 -88 74 -120 44 -70 445 -725 469 -767 10 -16 43 -71
74 -121 31 -50 56 -95 56 -100 0 -5 -21 -18 -48 -28 -45 -18 -71 -29 -176 -75
-27 -11 -54 -21 -60 -21 -6 0 -86 123 -177 273 -91 149 -271 443 -399 652
-419 685 -381 617 -375 672 3 26 7 64 10 83 2 19 7 60 10 90 3 30 7 69 10 85
2 17 7 57 11 89 3 33 8 67 9 75 2 9 4 20 4 25 1 5 4 7 7 3 3 -3 109 -174 234
-379z m2420 -123 c421 -262 520 -325 520 -330 0 -1 41 -121 91 -266 49 -145
91 -271 93 -279 3 -17 -57 -257 -78 -310 -32 -81 -118 -262 -122 -257 -3 2
-97 166 -128 222 -13 22 -126 220 -251 440 -125 220 -236 414 -245 430 -9 17
-91 161 -182 320 -91 160 -171 301 -178 315 -13 24 -13 24 11 9 13 -9 224
-141 469 -294z m-2587 -310 c68 -110 130 -211 138 -225 9 -14 54 -88 101 -165
89 -147 194 -318 396 -648 121 -198 121 -198 89 -191 -17 3 -117 30 -222 59
l-190 52 -40 62 c-22 34 -58 92 -81 129 -23 37 -99 162 -169 277 -71 116 -133
219 -139 230 -6 11 -28 46 -49 78 -39 61 -41 75 -22 197 2 14 7 52 10 85 4 33
8 71 10 85 3 21 9 69 20 155 1 11 3 27 4 35 3 19 -9 36 144 -215z m-2364 -48
c28 -16 75 -34 106 -42 69 -18 127 -47 186 -94 103 -80 156 -176 219 -391 70
-239 96 -326 155 -520 31 -102 58 -192 60 -200 2 -8 60 -206 130 -440 70 -234
133 -445 140 -470 8 -25 28 -92 45 -150 46 -152 85 -283 113 -380 30 -102 177
-593 252 -845 29 -99 94 -317 144 -485 50 -168 95 -318 100 -335 5 -16 23 -75
39 -130 17 -55 42 -138 56 -185 60 -200 217 -726 220 -740 5 -21 171 -575 208
-694 17 -55 32 -114 33 -131 5 -48 -27 -108 -70 -134 -36 -21 -42 -21 -364
-19 l-326 3 -79 28 c-136 48 -267 150 -339 265 -15 23 -72 144 -128 269 -55
126 -111 251 -124 279 -13 28 -60 134 -105 235 -45 101 -93 209 -107 239 -47
103 -62 138 -66 167 -8 45 -61 312 -137 693 -39 195 -73 369 -76 385 -3 17 -9
49 -15 73 -5 23 -12 59 -15 80 -3 20 -7 45 -10 54 -3 10 -8 30 -10 45 -3 16
-12 62 -20 103 -8 41 -17 86 -20 100 -2 14 -7 36 -10 50 -3 14 -8 36 -11 50
-2 14 -15 79 -28 145 -13 66 -27 136 -30 155 -3 19 -8 42 -10 50 -2 8 -7 29
-10 45 -2 17 -7 41 -10 55 -3 14 -8 38 -10 53 -3 16 -46 232 -96 480 -49 249
-92 466 -95 482 -3 17 -9 48 -14 70 -5 22 -12 56 -15 75 -3 19 -33 168 -65
330 -33 162 -61 308 -64 324 -11 60 -27 142 -36 181 -5 22 -30 147 -56 278
l-46 238 26 34 c14 18 31 39 38 47 8 7 38 45 68 83 30 39 83 105 118 147 l64
77 23 -28 c13 -15 46 -39 74 -54z m1013 -273 c106 -34 224 -90 322 -154 102
-66 92 -58 225 -190 111 -109 149 -160 283 -370 46 -73 110 -133 178 -169 30
-16 138 -52 240 -79 643 -176 629 -171 696 -238 79 -77 99 -139 109 -329 4
-71 8 -146 10 -165 1 -19 6 -93 10 -165 17 -307 24 -416 30 -490 3 -33 7 -105
10 -160 4 -93 7 -140 20 -335 9 -143 15 -235 20 -325 3 -49 7 -119 10 -155 2
-36 7 -109 10 -163 3 -53 7 -130 10 -170 2 -39 7 -110 10 -157 3 -47 8 -125
10 -175 3 -49 7 -117 10 -150 2 -33 7 -109 10 -170 3 -60 8 -139 10 -175 3
-36 7 -103 10 -150 3 -47 7 -119 10 -160 15 -242 21 -340 30 -495 3 -55 8
-122 10 -150 2 -27 7 -108 10 -180 4 -71 9 -146 11 -165 9 -87 5 -177 -10
-212 -18 -43 -77 -94 -126 -109 -22 -7 -127 -9 -280 -7 -240 3 -246 4 -301 29
-66 31 -129 92 -158 152 -18 37 -61 168 -76 228 -3 16 -49 169 -80 269 -7 25
-43 144 -79 265 -36 121 -137 461 -225 755 -87 294 -304 1021 -481 1615 -177
594 -333 1116 -346 1160 -14 44 -26 87 -29 96 -2 9 -17 63 -35 120 -34 114
-35 116 -180 604 -56 187 -117 394 -136 460 -20 66 -40 131 -45 145 -15 44
-18 77 -7 117 11 46 34 75 79 102 46 28 100 27 201 -5z m3850 9 c13 -16 55
-87 131 -223 14 -25 110 -195 215 -379 l190 -334 -66 -34 c-37 -20 -112 -59
-167 -88 -335 -177 -332 -176 -404 -174 -68 2 -119 24 -231 95 -25 16 -54 34
-65 41 -62 36 -423 259 -442 272 -21 16 -19 18 117 156 76 77 259 263 407 413
147 150 275 272 284 272 9 0 23 -8 31 -17z m-2662 -128 c5 -11 97 -162 203
-335 107 -173 194 -316 193 -317 -2 -2 -102 24 -336 88 -100 27 -150 46 -162
60 -10 12 -16 24 -14 28 2 3 7 42 10 86 4 44 9 87 11 95 2 8 6 42 10 75 3 33
8 74 10 90 10 65 22 168 24 195 1 15 33 -26 51 -65z m4403 -303 c9 -8 17 -27
17 -41 0 -14 -93 -340 -206 -725 -262 -892 -339 -1157 -634 -2161 -132 -451
-251 -856 -265 -900 -13 -44 -60 -206 -106 -360 -45 -154 -111 -379 -146 -500
-36 -121 -66 -227 -68 -235 -18 -78 -167 -558 -184 -593 -26 -55 -97 -121
-161 -151 -41 -19 -66 -21 -292 -24 -156 -2 -261 1 -287 8 -49 13 -113 76
-128 125 -13 39 -10 140 12 480 7 105 16 267 20 350 6 111 15 279 20 345 2 30
7 115 10 188 3 74 8 152 10 175 3 36 8 117 20 352 11 207 16 288 20 345 2 36
7 117 10 180 3 63 8 144 10 180 2 36 7 112 10 170 6 106 9 165 20 344 4 54 13
120 22 145 56 169 201 283 378 295 70 5 107 -3 325 -71 277 -87 340 -95 465
-61 82 23 482 219 508 249 40 48 36 53 -317 408 -184 185 -345 347 -357 361
-66 75 -64 190 3 263 23 25 35 32 198 120 l85 46 50 103 c95 196 235 301 468
352 188 41 251 77 333 191 24 35 50 66 57 68 18 7 60 -4 80 -21z m-2704 -440
l125 -77 28 -145 c16 -80 31 -156 33 -170 2 -14 20 -108 40 -210 20 -102 38
-198 41 -215 2 -16 10 -58 18 -93 15 -76 44 -98 -257 198 -125 124 -314 309
-420 411 l-191 187 39 16 c49 21 154 66 180 77 54 24 231 98 235 98 3 0 61
-34 129 -77z m448 -273 c109 -67 221 -136 248 -154 28 -17 95 -59 150 -93 91
-55 130 -91 435 -397 184 -185 356 -357 383 -383 26 -25 47 -48 47 -51 0 -4
-31 -21 -69 -39 -117 -55 -210 -60 -342 -19 -41 13 -240 75 -444 137 -314 96
-375 118 -402 144 -18 16 -33 38 -33 47 0 9 -9 63 -21 120 -11 57 -22 111 -24
119 -6 30 -37 196 -41 220 -3 14 -9 48 -14 75 -6 28 -12 61 -15 75 -19 103
-48 251 -55 283 -4 20 -6 37 -4 37 2 0 93 -55 201 -121z m-766 -476 c154 -150
280 -293 310 -351 8 -15 16 -29 19 -32 38 -37 137 -298 154 -404 25 -154 25
-241 1 -611 -2 -27 -6 -102 -9 -165 -7 -122 -14 -241 -21 -355 -4 -67 -11
-185 -20 -360 -2 -44 -7 -118 -9 -165 -3 -47 -8 -132 -11 -190 -4 -58 -8 -136
-10 -175 -3 -38 -7 -113 -10 -165 -5 -102 -12 -228 -20 -355 -3 -44 -7 -125
-10 -180 -3 -55 -8 -136 -10 -180 -3 -44 -7 -123 -10 -175 -3 -52 -7 -126 -10
-165 -2 -38 -7 -122 -10 -185 -12 -238 -14 -246 -60 -276 -19 -13 -46 -15
-126 -12 -97 3 -102 4 -123 31 -13 16 -23 34 -23 40 0 19 -18 309 -28 452 -2
44 -7 123 -10 175 -3 52 -7 124 -10 160 -5 67 -13 203 -20 324 -12 208 -16
276 -20 326 -2 30 -7 102 -10 160 -3 58 -8 137 -10 175 -7 96 -15 235 -20 325
-2 41 -6 109 -9 150 -3 41 -8 118 -11 170 -3 52 -8 124 -10 160 -2 36 -7 110
-10 165 -3 55 -8 136 -11 180 -8 126 -14 213 -19 303 -2 46 -7 115 -9 155 -3
40 -8 115 -11 167 -3 52 -7 133 -10 180 -4 47 -8 114 -10 150 -13 233 -17 289
-20 325 -2 22 -7 106 -11 187 l-7 146 26 26 c18 18 37 26 61 26 32 0 50 -15
197 -157z m-1654 -5334 c219 -287 406 -530 415 -542 231 -296 308 -404 308
-433 0 -36 -14 -52 -128 -154 l-83 -74 -27 34 c-15 19 -104 136 -197 260 -94
124 -346 457 -560 740 -385 509 -389 516 -395 570 -3 30 -4 69 -2 87 3 30 6
32 45 35 23 2 83 2 134 0 l91 -3 399 -520z m2343 521 l85 -1 -75 -68 c-66 -60
-455 -410 -690 -620 -46 -42 -112 -101 -145 -131 -34 -30 -79 -71 -101 -90
-149 -134 -241 -217 -254 -230 -9 -8 -50 -44 -90 -80 -41 -36 -101 -90 -133
-120 -116 -109 -131 -105 -272 79 -58 75 -214 278 -347 452 -134 174 -315 411
-403 525 -88 115 -172 225 -187 246 l-27 37 57 3 c45 2 2224 1 2582 -2z m1855
0 l51 0 -1 -95 c0 -52 -5 -99 -10 -103 -6 -5 -138 -61 -295 -125 -157 -64
-368 -150 -470 -192 -198 -82 -425 -175 -609 -249 -167 -69 -332 -136 -366
-151 -16 -7 -82 -34 -145 -59 -63 -26 -124 -51 -135 -56 -11 -5 -173 -72 -360
-148 -187 -76 -425 -174 -529 -216 -192 -79 -219 -85 -252 -51 -39 39 -32 96
18 138 11 10 57 50 101 90 102 92 88 79 192 172 50 44 92 82 95 85 9 9 111
101 205 185 49 44 114 103 145 130 30 28 70 64 89 80 19 17 39 35 45 40 6 6
56 51 111 100 55 49 105 94 111 100 6 5 44 40 85 76 41 37 86 77 100 90 162
149 169 154 228 159 42 4 1067 4 1596 0z m-4599 -600 c142 -190 261 -347 264
-350 3 -3 59 -77 125 -165 66 -88 198 -263 293 -389 95 -126 174 -233 175
-238 2 -7 -305 -141 -309 -135 -1 1 -64 85 -141 187 -76 102 -251 334 -388
515 -136 182 -257 340 -267 352 -18 19 -20 37 -20 170 1 285 2 406 5 402 2 -2
120 -159 263 -349z m4648 -892 c0 -662 -4 -1225 -8 -1253 -34 -253 -174 -485
-378 -626 -45 -31 -59 -36 -65 -25 -4 8 -22 29 -38 48 -17 18 -110 126 -208
240 -98 114 -183 210 -188 213 -15 10 -11 39 20 132 16 48 91 277 166 508 163
501 233 715 290 890 24 72 98 299 165 505 67 206 133 410 147 453 24 73 56
117 87 117 8 0 11 -324 10 -1202z m-236 1046 c12 -14 22 -35 22 -46 0 -12 -31
-116 -69 -232 -38 -116 -136 -413 -216 -661 -81 -247 -167 -513 -193 -590 -25
-77 -47 -144 -48 -150 -2 -10 -186 -574 -207 -632 -6 -18 -14 -33 -18 -33 -4
0 -26 23 -50 52 -40 47 -481 561 -599 698 -26 30 -170 199 -321 375 -151 176
-282 329 -292 340 -25 28 -31 61 -17 94 12 29 57 53 230 121 30 12 69 28 85
35 17 7 280 116 585 241 305 125 663 271 795 325 256 105 272 108 313 63z
m-4122 -1170 l212 -281 -156 -65 -157 -66 -25 31 c-14 17 -116 152 -227 299
l-202 268 -1 242 c-1 134 -1 258 -1 276 1 30 17 12 173 -195 94 -125 267 -354
384 -509z m2005 307 c23 -23 28 -36 24 -58 -4 -23 -92 -225 -195 -450 -11 -23
-61 -133 -111 -245 -50 -112 -101 -225 -114 -253 -12 -27 -53 -117 -90 -200
-37 -82 -85 -188 -106 -233 -22 -46 -39 -85 -39 -87 0 -2 -15 -36 -34 -77 -19
-40 -63 -138 -99 -218 -153 -341 -322 -714 -389 -862 l-30 -67 -92 62 c-50 34
-95 66 -101 70 -5 5 -80 57 -165 116 -85 58 -184 127 -220 152 -36 25 -153
105 -260 179 -287 199 -402 323 -478 520 -58 148 -69 255 -63 600 l2 65 107
42 c100 39 673 273 717 292 22 10 167 70 390 160 83 34 400 164 705 290 305
126 568 230 583 230 19 1 38 -9 58 -28z m154 -185 c20 -7 140 -142 150 -168 3
-8 -64 -173 -148 -368 -85 -195 -157 -362 -160 -370 -3 -8 -147 -339 -320
-735 l-314 -720 -109 -12 c-60 -6 -146 -14 -191 -18 l-82 -7 115 253 c63 140
118 263 123 274 5 11 21 47 36 80 15 33 79 175 142 315 63 140 122 273 132
295 76 167 180 396 301 665 78 173 158 348 176 388 19 41 34 77 34 81 0 10 42
47 60 53 17 6 27 5 55 -6z m-2668 -78 c21 -29 43 -60 50 -68 78 -97 303 -403
300 -406 -9 -9 -290 -124 -302 -124 -7 0 -32 25 -55 56 l-42 56 -1 269 c-1
148 1 269 5 269 3 0 24 -24 45 -52z m3065 -372 l75 -89 -54 -126 c-30 -69 -61
-142 -70 -161 -21 -49 -34 -78 -93 -215 -28 -66 -57 -133 -65 -150 -7 -16 -30
-68 -50 -115 -21 -47 -45 -103 -55 -125 -10 -22 -98 -224 -195 -450 -98 -225
-181 -414 -186 -419 -10 -11 -15 -12 -112 -21 -39 -3 -83 -8 -97 -10 -14 -2
-56 -7 -95 -10 -38 -3 -85 -8 -102 -10 l-33 -4 14 32 c16 39 500 1154 528
1217 11 25 26 59 34 75 7 17 50 116 94 220 45 105 90 208 99 230 40 88 52 114
84 191 19 43 44 101 56 127 l21 48 63 -73 c35 -40 98 -113 139 -162z m258
-301 c47 -55 95 -111 107 -125 25 -28 25 -33 -17 -125 -16 -33 -47 -105 -70
-160 -23 -55 -73 -170 -110 -255 -38 -85 -121 -276 -185 -425 -64 -148 -127
-292 -140 -320 -12 -27 -25 -60 -29 -72 -4 -13 -10 -23 -14 -24 -4 0 -15 -2
-25 -4 -10 -2 -55 -6 -100 -10 -45 -4 -84 -8 -87 -10 -3 -1 -45 -6 -95 -9 -49
-4 -98 -9 -107 -12 -10 -3 -18 -1 -18 3 0 8 118 284 169 398 10 22 69 157 131
300 62 143 122 283 135 310 12 28 41 95 65 150 23 55 53 124 66 153 13 29 35
79 49 112 14 33 36 84 50 114 14 30 25 57 25 60 0 3 12 31 27 62 l26 56 31
-33 c17 -19 69 -79 116 -134z m379 -440 c34 -38 61 -75 61 -81 0 -10 -133
-319 -370 -864 -34 -78 -24 -74 -265 -95 -60 -5 -170 -17 -187 -21 -10 -1 -18
-1 -18 0 0 4 81 191 104 241 18 38 23 51 146 335 56 129 110 253 120 275 10
22 53 121 95 220 43 99 84 192 92 208 l14 27 73 -87 c41 -49 101 -119 135
-158z m184 -215 c12 -14 61 -71 109 -127 l88 -102 -19 -43 c-10 -24 -27 -63
-39 -88 -11 -25 -32 -74 -47 -110 -15 -36 -35 -83 -45 -105 -57 -126 -69 -158
-64 -166 3 -5 2 -9 -3 -10 -4 0 -21 -2 -38 -3 -77 -7 -182 -18 -205 -21 -14
-2 -59 -7 -100 -10 -41 -4 -78 -9 -82 -11 -18 -11 -16 20 6 68 13 29 59 134
101 233 43 99 86 198 95 220 25 56 129 293 147 334 l15 35 30 -35 c16 -19 39
-45 51 -59z m272 -317 c18 -21 71 -83 118 -138 l85 -99 -121 -85 c-67 -47
-131 -86 -142 -87 -11 -1 -57 -5 -103 -9 l-83 -8 26 59 c15 33 38 85 51 117
13 32 38 87 54 123 17 35 30 66 30 68 0 10 42 96 47 96 3 0 20 -17 38 -37z
m-247 -550 c-601 -428 -797 -530 -1148 -600 -268 -53 -594 -39 -870 38 -136
38 -402 156 -470 208 l-24 19 29 61 c16 34 31 61 34 62 3 0 14 2 24 4 9 2 50
6 90 10 39 3 88 8 107 10 19 2 60 7 90 10 30 3 71 8 90 10 19 3 62 7 95 10 33
3 80 7 105 10 44 5 89 9 200 20 48 4 250 26 375 40 22 2 72 7 110 10 39 4 81
8 95 10 14 2 59 7 100 10 41 4 89 9 105 11 17 2 55 6 85 9 30 3 71 7 90 10 32
4 92 10 204 21 23 2 70 6 106 9 36 3 74 7 85 10 11 2 59 7 108 11 48 4 101 9
119 13 17 3 54 7 82 9 l51 3 -67 -48z"/>
</g>
</svg>
